#N canvas 552 22 623 811 10;
#X declare -path mtl;
#X declare -path mtl;
#X floatatom 131 517 5 0 0 0 - - -;
#X obj 24 2 gemhead;
#X text 87 5 Second inlet: x y z flots;
#X obj 88 100 pack f f f;
#X msg 190 167 points 10;
#X msg 195 315 color 1 0 0;
#X text 21 -18 First inlet: gemlist;
#X msg 189 142 sampling 100;
#X msg 190 239 setPoint 1 3 f f f;
#X text 316 234 set point to f f f position:;
#X text 320 249 usage: on/off point x y z;
#X msg 190 266 freeze 1;
#X msg 190 213 randomLevel 0.1;
#X text 303 213 set random behaviour [0-1];
#X msg 196 367 scale 1 1 1;
#X text 298 367 scale topology by x y z factors;
#X msg 196 342 alpha 0.5;
#X text 198 117 DATA CONFIGURATION:;
#X text 202 292 IMAGE:;
#X text 207 468 OTHER;
#X msg 203 489 metro 1;
#X text 269 492 stop internal clock;
#X text 202 193 BEHAVIOURS:;
#X text 283 142 sampling in ms;
#X text 284 164 points (samples) that form the topology;
#X text 255 267 freeze topology [1: freeze/0: free];
#X text 294 315 Color of the surface;
#X text 294 342 Alpha of the surface;
#X text 289 177 more than 10 gives an error but does not crash;
#X text 318 396 Types of drawing;
#X text 344 435 More types;
#X text 191 94 third inlet: message control;
#X text 112 518 ID;
#X floatatom 76 502 5 0 0 0 - - -;
#X text 14 490 Gemlist;
#X obj 21 538 cnv 3 550 3 empty \$0-pddp.cnv.inlets inlets 8 12 0 13
-228856 -1 0;
#X obj 25 615 cnv 3 550 3 empty \$0-pddp.cnv.outlets outlets 8 12 0
13 -228856 -1 0;
#X obj 24 711 cnv 3 550 3 empty \$0-pddp.cnv.argument arguments 8 12
0 13 -228856 -1 0;
#X obj 24 818 cnv 3 550 3 empty \$0-pddp.cnv.more_info more_info 8
12 0 13 -228856 -1 0;
#N canvas 246 467 428 109 Related_objects 0;
#X obj 0 0 cnv 15 425 20 empty \$0-pddp.cnv.subheading empty 3 12 0
14 -204280 -1 0;
#X text 6 1 Related Objects;
#X restore 134 832 pd Related_objects;
#X obj 18 -69 cnv 15 552 40 empty cnv.header topos.features 3 12 0
18 -204280 -1 0;
#N canvas 496 267 494 344 META 0;
#X text 12 25 LICENSE LGPL v2.1;
#X text 18 165 AUTHOR Luiz Naveda;
#X text 15 185 WEBSITE http://naveda.info;
#X text 15 204 HELP_PATCH_AUTHORS "pd meta" information added by Luiz
Naveda for 0.43.4-extended;
#X text 12 5 KEYWORDS;
#X text 12 45 DESCRIPTION;
#X text 14 79 INLET_0;
#X text 14 99 INLET_1;
#X text 14 119 INLET_2;
#X text 17 142 OUTLET_0;
#X restore 309 833 pd META;
#N canvas 317 454 504 212 guts 0;
#X msg 79 104 cnv.header vis_size 650 60;
#X msg 80 65 \; cnv.header label topos;
#X restore 258 832 pd guts;
#X text 349 -47 Topos Library;
#X text 456 -45 http://naveda.info;
#X text 518 -66 [topos];
#X text 30 -46 Creates \, processes and controls point clouds;
#N canvas 360 439 450 300 place 0;
#X text 24 217 See also:;
#X obj 23 43 cnv 15 160 160 empty empty empty 20 12 0 14 -24198 -66577
0;
#X obj 26 80 gemhead;
#X obj 85 81 bng 15 250 50 0 empty empty pix_load 20 8 0 8 -262144
-1 -1;
#N canvas 0 22 587 366 image 0;
#X obj 77 48 inlet;
#X obj 77 344 outlet;
#X obj 77 205 pix_image examples/data/fractal.JPG;
#X obj 223 55 inlet;
#X msg 223 123 open \$1;
#X obj 223 100 openpanel;
#X text 312 85 re-send the image to the [pix_]-object;
#X text 231 37 open;
#X text 79 30 gemlist;
#X connect 0 0 2 0;
#X connect 2 0 1 0;
#X connect 3 0 5 0;
#X connect 4 0 2 0;
#X connect 5 0 4 0;
#X restore 26 109 pd image;
#X obj 26 134 pix_texture;
#X text 91 101 open an image;
#X text 84 114 (JPEG \, TIFF \, ..);
#X text 24 57 Place an image texture:;
#X obj 24 158 topos symbol data 100 10;
#X connect 2 0 4 0;
#X connect 3 0 4 1;
#X connect 4 0 5 0;
#X connect 5 0 9 0;
#X restore 378 831 pd place an image on the texture;
#X text 42 643 LIST - gemlist;
#X text 42 661 FLOAT - cyclic counter (actual point in the point cloud)
;
#X text 44 677 FLOAT - ID to access local stuff (\$0 or local variable)
;
#X obj 319 -21 topos.gemwin;
#N canvas 498 84 450 300 random 0;
#X obj 126 64 metro 1000;
#X obj 126 38 ii 1;
#X obj 159 40 tgl 15 0 empty empty empty 17 7 0 10 -262144 -1 -1 0
1;
#X obj 127 140 line;
#X msg 127 119 \$1 1000;
#X obj 137 150 line;
#X msg 137 129 \$1 1000;
#X obj 147 160 line;
#X msg 147 139 \$1 1000;
#X obj 128 245 pack f f f;
#X obj 132 273 outlet;
#X obj 130 197 - 3;
#X obj 140 207 - 3;
#X obj 150 217 - 3;
#X obj 127 94 random 6;
#X obj 138 105 random 6;
#X obj 147 114 random 6;
#X floatatom 222 86 5 0 0 0 - - -;
#X obj 217 131 / 2;
#X obj 261 70 ii 10;
#X connect 0 0 14 0;
#X connect 0 0 15 0;
#X connect 0 0 16 0;
#X connect 1 0 0 0;
#X connect 2 0 0 0;
#X connect 3 0 11 0;
#X connect 4 0 3 0;
#X connect 5 0 12 0;
#X connect 6 0 5 0;
#X connect 7 0 13 0;
#X connect 8 0 7 0;
#X connect 9 0 10 0;
#X connect 11 0 9 0;
#X connect 12 0 9 1;
#X connect 13 0 9 2;
#X connect 14 0 4 0;
#X connect 15 0 6 0;
#X connect 16 0 8 0;
#X connect 17 0 16 1;
#X connect 17 0 15 1;
#X connect 17 0 14 1;
#X connect 17 0 18 0;
#X connect 18 0 13 1;
#X connect 18 0 12 1;
#X connect 18 0 11 1;
#X connect 19 0 17 0;
#X restore 88 23 pd random movement generator;
#X msg 197 413 draw line;
#X msg 198 389 draw fill;
#N canvas 422 256 438 311 more 0;
#X msg 93 -23 width 1;
#X msg 92 1 width 4;
#X text 184 -27 draw style;
#X msg 188 47 draw line;
#X msg 188 2 draw fill;
#X msg 187 24 draw point;
#X msg 188 67 draw linestrip;
#X msg 188 87 draw tri;
#X msg 188 109 draw tristrip;
#X msg 187 132 draw trifan;
#X msg 187 153 draw quad;
#X msg 187 175 draw quadstrip;
#X obj 56 216 outlet;
#X connect 0 0 12 0;
#X connect 1 0 12 0;
#X connect 3 0 12 0;
#X connect 4 0 12 0;
#X connect 5 0 12 0;
#X connect 6 0 12 0;
#X connect 7 0 12 0;
#X connect 8 0 12 0;
#X connect 9 0 12 0;
#X connect 10 0 12 0;
#X connect 11 0 12 0;
#X restore 195 439 pd more drawing styles;
#X text 78 557 1 - gemlist (e.g.: from a [gemhead] object );
#X text 78 576 2 - LIST - 3 x FLOATS - X Y Z floats representing movements
;
#X text 77 595 3 - LIST - Control messages (see above);
#X obj 88 48 unpack f f f;
#X floatatom 87 74 5 0 0 0 - - -;
#X floatatom 124 74 5 0 0 0 - - -;
#X floatatom 168 73 5 0 0 0 - - -;
#N canvas 954 157 410 265 topos 0;
#X text 18 10 the [topos] object creates the point cloud: a collection
of n 3d points from past movements that defines a region in space.
;
#X text 16 55 The first argument [ex:lh] is a symbolic link. The [topos]
object will broadcast information using this link;
#X text 18 95 The second argument [ex:lefthand] is a receive. Instead
of using the second inlet for the 3d points the object can receive
it by this link as a receive.;
#X text 17 147 The third argument [ex:100] is the sampling period in
ms. In the example the point cloud will be constructed from points
sampled at every 100 ms;
#X text 15 192 The fourth argument [ex:10] is the number of points
of the point cloud. 10 points * 100 ms will generate a point cloud
of 10 points refering to the last 1 s of movement (10 * 100 ms).;
#X restore 322 41 pd topos explained;
#X text 318 653 comment;
#X text 238 77 USAGE;
#X obj 24 462 topos symb data 100 10;
#X text 127 733 1 - symbolic link. Used to communicate with other objects
;
#X text 272 79 [topos symbolicLink xyz.points samplingPeriod samples]
;
#X text 127 752 2 - receive symbol. Collects daa comming from a [send]
objec;
#X text 126 769 3 - period of the sampling process. Ex: 100 ms means
10hz sampling reauency;
#X text 125 798 4 - Number of sample points in the point cloud;
#X connect 1 0 66 0;
#X connect 3 0 66 1;
#X connect 4 0 66 2;
#X connect 5 0 66 2;
#X connect 7 0 66 2;
#X connect 8 0 66 2;
#X connect 11 0 66 2;
#X connect 12 0 66 2;
#X connect 14 0 66 2;
#X connect 16 0 66 2;
#X connect 20 0 66 2;
#X connect 52 0 59 0;
#X connect 53 0 66 2;
#X connect 54 0 66 2;
#X connect 55 0 66 2;
#X connect 59 0 60 0;
#X connect 59 1 61 0;
#X connect 59 2 62 0;
#X connect 60 0 3 0;
#X connect 61 0 3 1;
#X connect 62 0 3 2;
#X connect 66 1 33 0;
#X connect 66 2 0 0;
