#N canvas 294 22 1477 867 10;
#X obj 170 -147 inlet;
#X obj 165 -83 unpack f f;
#X obj 165 -58 change;
#X obj -13 176 translateXYZ;
#X obj 122 291 line;
#X obj 51 119 line;
#X obj -9 -148 inlet;
#X obj 131 48 bng 15 250 50 0 empty empty empty 17 7 0 10 -262144 -1
-1;
#X floatatom 132 316 5 0 0 0 - - -;
#X floatatom 55 140 5 0 0 0 - - -;
#X obj -15 65 spigot 0;
#X obj 56 24 select 1 0;
#X msg 112 227 0 300;
#X obj 306 410 mtl/3dDistance;
#X obj 302 175 bng 15 250 50 0 empty empty empty 17 7 0 10 -262144
-1 -1;
#X obj 459 141 t b a;
#X text 584 339 min;
#X text 515 338 min_index;
#X obj 876 141 loadbang;
#X obj 920 185 \$0;
#X obj 903 474 outlet IDnumber;
#X obj 580 -99 inlet;
#X obj 173 313 list-len;
#X floatatom 180 357 5 0 0 0 - - -;
#X obj 175 376 pack f \$0;
#X msg 174 396 \; \$2-dist resize \$1 \;;
#X obj 180 335 change;
#X obj -15 25 separator;
#X obj 271 555 pp distanceFrom;
#X msg 63 419 draw line;
#X msg 51 465 draw point;
#X floatatom 76 539 5 0 0 0 - - -;
#X floatatom 110 539 5 0 0 0 - - -;
#X msg 53 494 draw fill;
#X obj -15 270 rotateXYZ;
#X obj 4 226 random 180;
#X obj 14 236 random 180;
#X obj 38 244 random 180;
#X obj 168 -36 t b f b;
#X obj 230 -50 bng 15 250 50 0 empty empty empty 17 7 0 10 -262144
-1 -1;
#X obj -9 572 sphere 1 50;
#X obj 64 441 loadbang;
#X obj 954 244 s interact/\$1/ID;
#X symbolatom 630 -92 72 0 0 0 - - -;
#X obj 630 -73 _documentation changeLog/topos.rel.pointRegion;
#X obj 850 667 s topos.rel/\$1/bang;
#X obj 551 627 s topos.rel/\$1/features;
#X obj 553 600 any;
#X obj 502 674 outlet features;
#X obj 449 -123 r \$2;
#X obj 101 -29 tgl 15 0 empty empty empty 17 7 0 10 -262144 -1 -1 0
1;
#X obj -13 382 scaleXYZ 1 1 1;
#X obj -13 111 alpha;
#X obj 59 -4 route float symbol;
#X obj -8 -79 route distanceFrom;
#X obj 7 -56 route size color;
#X obj 517 -137 inlet point;
#X obj 835 292 bng 15 250 50 0 empty empty empty 17 7 0 10 -262144
-1 -1;
#X obj 840 160 > 0;
#X obj 812 125 t f f;
#X obj 812 187 spigot;
#X obj 787 150 <= 0;
#X obj 753 174 spigot 1;
#X obj 478 381 private/_displacement;
#X obj 710 368 delta;
#X obj 695 391 f;
#X floatatom 703 429 5 0 0 0 - - -;
#X obj 694 410 abs;
#X obj 520 561 pp pointVelocity;
#X msg 949 636 point \$1 \$2;
#X msg 872 635 region \$1;
#X obj 169 53 spigot 1;
#X obj -10 335 colorRGB 0 1 0.5 1;
#X msg 55 88 0.6 \, 0 1200;
#X obj 15 303 unpack f f f;
#X obj 164 191 f 0.2;
#X msg 160 231 \$1 \, 0 400;
#X obj 205 155 loadbang;
#X obj 352 -131 r \$3;
#X obj 386 -143 inlet point;
#X obj 316 26 any;
#X obj 795 97 init \$4;
#X obj 201 100 unpack f f f;
#X obj 444 561 pp hitPoint;
#X obj 455 460 lister;
#X obj 768 373 delta;
#X obj 753 396 f;
#X floatatom 761 434 5 0 0 0 - - -;
#X obj 752 415 abs;
#X obj 511 413 private/_displacement;
#X obj 670 488 pack f f;
#X obj 759 333 change;
#X obj 925 349 sel 0 1;
#X obj 819 567 pp state;
#X obj 955 446 bng 15 250 50 0 empty empty empty 17 7 0 10 -262144
-1 -1;
#X obj 759 313 < 0.2;
#X obj 947 403 debounce 100;
#X obj -3 -125 route get debug debugThreshold regionThreshold pointThreshold
debounce;
#X connect 0 0 1 0;
#X connect 1 0 2 0;
#X connect 2 0 38 0;
#X connect 3 0 34 0;
#X connect 4 0 8 0;
#X connect 4 0 51 1;
#X connect 4 0 51 2;
#X connect 4 0 51 3;
#X connect 5 0 9 0;
#X connect 6 0 97 0;
#X connect 7 0 73 0;
#X connect 7 0 75 0;
#X connect 9 0 72 4;
#X connect 10 0 52 0;
#X connect 11 0 73 0;
#X connect 11 1 12 0;
#X connect 12 0 4 0;
#X connect 13 0 28 0;
#X connect 13 0 95 0;
#X connect 15 1 13 1;
#X connect 15 1 63 0;
#X connect 18 0 19 0;
#X connect 19 0 20 0;
#X connect 19 0 42 0;
#X connect 21 0 59 0;
#X connect 22 0 26 0;
#X connect 23 0 24 0;
#X connect 24 0 25 0;
#X connect 26 0 23 0;
#X connect 27 0 10 0;
#X connect 28 0 47 0;
#X connect 29 0 40 0;
#X connect 30 0 40 0;
#X connect 31 0 40 1;
#X connect 32 0 40 2;
#X connect 33 0 40 0;
#X connect 34 0 72 0;
#X connect 35 0 34 1;
#X connect 36 0 34 2;
#X connect 37 0 34 3;
#X connect 38 0 71 0;
#X connect 38 2 35 0;
#X connect 38 2 36 0;
#X connect 38 2 37 0;
#X connect 39 0 38 0;
#X connect 41 0 33 0;
#X connect 43 0 44 0;
#X connect 47 0 46 0;
#X connect 47 0 48 0;
#X connect 49 0 15 0;
#X connect 50 0 53 0;
#X connect 51 0 40 0;
#X connect 52 0 3 0;
#X connect 53 0 10 1;
#X connect 53 0 11 0;
#X connect 55 0 75 1;
#X connect 55 1 74 0;
#X connect 55 2 40 0;
#X connect 56 0 15 0;
#X connect 58 0 60 1;
#X connect 59 0 60 0;
#X connect 59 1 58 0;
#X connect 59 1 61 0;
#X connect 60 0 95 1;
#X connect 61 0 62 1;
#X connect 62 0 95 1;
#X connect 63 0 64 0;
#X connect 64 0 65 1;
#X connect 65 0 67 0;
#X connect 66 0 90 0;
#X connect 67 0 66 0;
#X connect 68 0 47 0;
#X connect 69 0 45 0;
#X connect 70 0 45 0;
#X connect 71 0 7 0;
#X connect 72 0 51 0;
#X connect 73 0 5 0;
#X connect 74 0 72 1;
#X connect 74 1 72 2;
#X connect 74 2 72 3;
#X connect 75 0 76 0;
#X connect 76 0 4 0;
#X connect 77 0 75 0;
#X connect 78 0 80 0;
#X connect 79 0 80 0;
#X connect 80 0 13 0;
#X connect 80 0 82 0;
#X connect 80 0 84 1;
#X connect 80 0 89 0;
#X connect 81 0 59 0;
#X connect 82 0 3 1;
#X connect 82 1 3 2;
#X connect 82 2 3 3;
#X connect 83 0 47 0;
#X connect 84 0 83 0;
#X connect 85 0 86 1;
#X connect 86 0 88 0;
#X connect 87 0 90 1;
#X connect 88 0 87 0;
#X connect 89 0 85 0;
#X connect 90 0 68 0;
#X connect 91 0 92 0;
#X connect 91 0 93 0;
#X connect 92 1 71 0;
#X connect 92 1 96 0;
#X connect 93 0 47 0;
#X connect 95 0 91 0;
#X connect 96 0 84 0;
#X connect 96 0 65 0;
#X connect 96 0 86 0;
#X connect 96 0 94 0;
#X connect 97 0 54 0;
#X connect 97 1 55 0;
#X connect 97 4 59 0;
#X connect 97 5 96 1;
#X connect 97 6 27 0;
