#N canvas 505 109 1079 675 10;
#X obj -33 51 inlet;
#X obj -36 591 qlist;
#X obj -36 550 list trim;
#X obj 179 415 timer;
#X obj -35 501 list prepend;
#X obj -31 331 trigger bang anything bang;
#X obj 389 16 loadbang;
#X obj -35 478 list prepend;
#X obj 67 168 tgl 15 0 empty empty empty 17 7 0 10 -262144 -1 -1 0
1;
#X obj 44 192 select 0 1;
#X obj 492 535 symbol \$2;
#X msg 349 255 clear;
#X msg 287 253 1;
#X msg 21 245 0;
#X obj -27 289 spigot;
#X msg 38 40 play;
#X obj 496 397 symbol \$2;
#X obj 508 190 openpanel;
#X obj 512 145 route bang;
#X msg 35 129 1;
#X obj 388 130 route bang f;
#X msg 423 159 0;
#X obj 33 106 route bang float;
#X obj 181 609 outlet;
#X obj 182 533 accum;
#X obj 179 492 t b f;
#X msg 134 493 set 0;
#X obj 380 588 s recLabel;
#X obj 380 418 symbol \$2;
#X obj 352 450 s recCommand;
#X obj 353 395 t f b;
#X obj 178 558 s recTimer;
#X obj 13 634 bng 15 250 50 0 empty empty empty 17 7 0 10 -262144 -1
-1;
#X obj 659 249 spigot 0;
#X msg 478 559 write \$1;
#X msg 422 250 rewind;
#X obj 719 214 loadbang;
#X obj 415 282 route symbol;
#X obj 777 269 bng 15 250 50 0 empty empty empty 17 7 0 10 -262144
-1 -1;
#X obj 768 303 getdir 1;
#X obj 718 434 makesymbol %s/%s;
#X obj 718 411 prepend;
#X obj 720 249 t b b;
#X symbolatom 573 46 72 0 0 0 - - -;
#X msg 46 558 print;
#X obj 338 337 print;
#X obj 577 184 symbol;
#X floatatom 744 527 5 0 0 0 - - -;
#X floatatom 778 528 5 0 0 0 - - -;
#X floatatom 817 530 5 0 0 0 - - -;
#X floatatom 868 525 5 0 0 0 - - -;
#X obj 688 470 r recording;
#X obj 392 42 symbol recording;
#X obj -32 526 list prepend add;
#X obj 695 555 pack s f f f;
#X obj 708 607 outlet;
#X obj 154 45 speedlim;
#X obj 151 11 bng 8 100 50 0 empty empty empty 17 7 0 10 -261234 -1
-1;
#X obj 690 494 unpack s f f f;
#X obj 577 275 cyclone/gate 2;
#X obj 113 194 t b a b b b b b b b;
#X obj 579 229 init 0;
#X msg 624 227 1;
#X msg 663 227 2;
#X obj 512 118 t a b;
#X msg 640 635 \; skeleton/\$1/\$2/messages data \$3 \$4 \$5;
#X obj 38 73 route record play pause stop load loop write skeleton
;
#X obj 642 584 pp \$1;
#X obj 279 45 bang;
#X obj 284 24 speedlim 300;
#X obj 714 585 list trim;
#X obj 590 299 bng 15 250 50 0 empty empty empty 17 7 0 10 -262144
-1 -1;
#X obj 658 304 bng 15 250 50 0 empty empty empty 17 7 0 10 -262144
-1 -1;
#X obj 480 368 bng 15 250 50 0 empty empty empty 17 7 0 10 -262144
-1 -1;
#X obj 572 71 private/_documentation changeLog/topos.rec;
#X obj 428 629 outlet;
#X obj 181 3 r topos.rec/all/messages;
#X msg 275 631 0;
#X msg 246 627 1;
#X obj 314 599 pipe 200;
#X msg 91 646 bang;
#X msg 499 478 read \$1 \, bang;
#X obj 498 452 makesymbol %s/%s;
#X obj 502 426 pack s s;
#X obj 648 327 t b b b;
#X obj 245 659 tgl 15 0 empty empty empty 17 7 0 10 -262144 -1 -1 1
1;
#X obj 583 162 t a b;
#X obj 515 166 t b b;
#X obj 555 562 pddp/print;
#X obj 584 324 t b b b;
#X msg 606 480 read \$1 \, bang;
#X obj 608 448 symbol;
#X obj 147 652 spigot 1;
#X msg 673 198 2;
#X connect 0 0 56 0;
#X connect 0 0 66 0;
#X connect 1 0 75 0;
#X connect 1 1 32 0;
#X connect 1 1 92 0;
#X connect 2 0 1 0;
#X connect 3 0 4 1;
#X connect 3 0 25 0;
#X connect 4 0 53 0;
#X connect 5 0 3 0;
#X connect 5 1 7 0;
#X connect 5 2 3 1;
#X connect 6 0 52 0;
#X connect 7 0 4 0;
#X connect 8 0 9 0;
#X connect 8 0 30 0;
#X connect 9 0 13 0;
#X connect 9 0 26 0;
#X connect 9 1 60 0;
#X connect 10 0 34 0;
#X connect 11 0 1 0;
#X connect 12 0 14 1;
#X connect 13 0 14 1;
#X connect 14 0 5 0;
#X connect 15 0 66 0;
#X connect 16 0 83 1;
#X connect 17 0 10 1;
#X connect 17 0 91 1;
#X connect 18 0 87 0;
#X connect 18 1 86 0;
#X connect 19 0 8 0;
#X connect 20 0 21 0;
#X connect 20 0 35 0;
#X connect 20 0 11 0;
#X connect 21 0 8 0;
#X connect 22 0 19 0;
#X connect 22 1 8 0;
#X connect 24 0 23 0;
#X connect 24 0 31 0;
#X connect 25 0 24 0;
#X connect 25 1 24 1;
#X connect 26 0 24 0;
#X connect 28 0 27 0;
#X connect 30 0 29 0;
#X connect 30 1 28 0;
#X connect 33 0 59 1;
#X connect 34 0 1 0;
#X connect 35 0 1 0;
#X connect 36 0 42 0;
#X connect 36 0 93 0;
#X connect 37 0 34 0;
#X connect 37 1 41 0;
#X connect 38 0 39 0;
#X connect 39 0 41 1;
#X connect 39 0 83 0;
#X connect 40 0 10 0;
#X connect 41 0 40 0;
#X connect 42 1 39 0;
#X connect 43 0 74 0;
#X connect 44 0 1 0;
#X connect 46 0 16 1;
#X connect 46 0 10 1;
#X connect 47 0 54 1;
#X connect 48 0 54 2;
#X connect 49 0 54 3;
#X connect 51 0 58 0;
#X connect 52 0 7 1;
#X connect 53 0 2 0;
#X connect 54 0 67 0;
#X connect 54 0 70 0;
#X connect 58 0 54 0;
#X connect 58 1 47 0;
#X connect 58 2 48 0;
#X connect 58 3 49 0;
#X connect 58 3 69 0;
#X connect 59 0 71 0;
#X connect 59 1 72 0;
#X connect 60 4 12 0;
#X connect 60 5 3 0;
#X connect 60 6 3 0;
#X connect 60 7 11 0;
#X connect 60 8 62 0;
#X connect 61 0 59 0;
#X connect 62 0 59 0;
#X connect 63 0 59 0;
#X connect 64 0 18 0;
#X connect 66 0 22 0;
#X connect 66 1 59 1;
#X connect 66 3 20 0;
#X connect 66 4 64 0;
#X connect 66 5 33 1;
#X connect 66 6 37 0;
#X connect 66 7 67 1;
#X connect 66 8 14 0;
#X connect 67 0 65 0;
#X connect 68 0 57 0;
#X connect 69 0 68 0;
#X connect 70 0 55 0;
#X connect 71 0 89 0;
#X connect 72 0 84 0;
#X connect 73 0 16 0;
#X connect 76 0 66 0;
#X connect 77 0 85 0;
#X connect 77 0 92 1;
#X connect 78 0 85 0;
#X connect 78 0 92 1;
#X connect 79 0 78 0;
#X connect 81 0 1 0;
#X connect 81 0 88 0;
#X connect 82 0 81 0;
#X connect 83 0 82 0;
#X connect 84 0 38 0;
#X connect 84 1 16 0;
#X connect 84 2 77 0;
#X connect 84 2 79 0;
#X connect 86 0 46 0;
#X connect 86 1 63 0;
#X connect 87 0 17 0;
#X connect 87 1 62 0;
#X connect 89 1 91 0;
#X connect 89 2 77 0;
#X connect 89 2 79 0;
#X connect 90 0 1 0;
#X connect 91 0 90 0;
#X connect 92 0 33 0;
#X connect 93 0 59 0;
#X coords 0 -1 1 1 150 18 1 10 10;
