#N canvas 600 53 1046 722 10;
#X obj 470 -42 inlet;
#X obj 268 147 unpack f f f;
#X obj 103 265 tgl 15 0 empty empty empty 17 7 0 10 -262144 -1 -1 1
1;
#X obj 276 216 pack f f f;
#X obj 302 247 outlet;
#X obj 26 -55 inlet;
#X obj 118 48 loadbang;
#X obj 128 618 outlet;
#X obj 53 322 separator;
#X obj 248 -45 inlet;
#X obj 53 289 spigot 0;
#X obj 483 150 unpack f f f;
#X obj 486 218 pack f f f;
#X obj 486 241 outlet;
#X obj 423 552 pp instability;
#X obj 118 74 \$6;
#X obj 636 139 unpack f f f;
#X obj 644 218 pack f f f;
#X obj 648 248 outlet;
#X obj 868 156 unpack f f f;
#X obj 875 216 pack f f f;
#X obj 875 239 outlet;
#X obj 731 373 list-minmax;
#X obj 729 343 pack f f f f;
#X obj 826 373 list-minmax;
#X obj 828 344 pack f f f f;
#X obj 921 368 list-minmax;
#X obj 923 339 pack f f f f;
#X obj 791 464 -;
#X obj 843 464 -;
#X obj 895 465 -;
#X obj 791 492 expr $f1*($f2*$f3);
#X floatatom 791 514 5 0 0 0 - - -;
#X obj 791 536 pp boundCubeVolume;
#X obj 636 475 list-mean;
#X obj 666 453 list-mean;
#X obj 701 429 list-mean;
#X obj 637 528 pp meanCubePos;
#X obj 637 501 pack f f f;
#X obj 818 39 r \$5;
#X obj 621 37 r \$4;
#X obj 450 47 r \$3;
#X obj 280 -5 r \$2;
#X obj 844 -43 inlet;
#X obj 642 -40 inlet;
#X obj 862 133 list-math * 1;
#X obj 635 118 list-math * 1;
#X obj 479 122 list-math * 1;
#X obj 267 126 list-math * 1;
#N canvas 1376 368 450 300 connection 0;
#X obj 208 20 inlet;
#X obj 264 16 inlet;
#X obj 168 218 curve 2;
#X obj 35 161 loadbang;
#X msg 35 190 draw line \, width 2;
#X obj 318 129 route color;
#X obj 313 153 unpack f f f;
#X obj 168 129 separator;
#X obj 292 97 route lineParameters alpha lineOnOff;
#X obj 166 104 spigot 1;
#X obj 344 20 inlet;
#X obj 168 171 colorRGB 0 1 0;
#X obj 176 75 alpha;
#X obj 166 44 inlet;
#X connect 0 0 2 1;
#X connect 1 0 2 2;
#X connect 3 0 4 0;
#X connect 4 0 2 0;
#X connect 5 0 6 0;
#X connect 6 0 11 1;
#X connect 6 1 11 2;
#X connect 6 2 11 3;
#X connect 7 0 11 0;
#X connect 8 0 2 0;
#X connect 8 0 5 0;
#X connect 8 1 11 4;
#X connect 8 2 9 1;
#X connect 9 0 7 0;
#X connect 10 0 8 0;
#X connect 11 0 2 0;
#X connect 12 0 9 0;
#X connect 13 0 12 0;
#X restore 159 499 pd connection;
#N canvas 1376 368 450 300 connection 0;
#X obj 208 20 inlet;
#X obj 264 16 inlet;
#X obj 168 218 curve 2;
#X obj 35 161 loadbang;
#X msg 35 190 draw line \, width 2;
#X obj 313 125 route color;
#X obj 308 149 unpack f f f;
#X obj 168 129 separator;
#X obj 292 97 route lineParameters alpha lineOnOff;
#X obj 166 104 spigot 1;
#X obj 344 20 inlet;
#X obj 168 171 colorRGB 0 1 0;
#X obj 176 75 alpha;
#X obj 166 44 inlet;
#X connect 0 0 2 1;
#X connect 1 0 2 2;
#X connect 3 0 4 0;
#X connect 4 0 2 0;
#X connect 5 0 6 0;
#X connect 6 0 11 1;
#X connect 6 1 11 2;
#X connect 6 2 11 3;
#X connect 7 0 11 0;
#X connect 8 0 2 0;
#X connect 8 0 5 0;
#X connect 8 1 11 4;
#X connect 8 2 9 1;
#X connect 9 0 7 0;
#X connect 10 0 8 0;
#X connect 11 0 2 0;
#X connect 12 0 9 0;
#X connect 13 0 12 0;
#X restore 91 532 pd connection;
#N canvas 1376 368 450 300 connection 0;
#X obj 208 20 inlet;
#X obj 264 16 inlet;
#X obj 168 218 curve 2;
#X obj 35 161 loadbang;
#X msg 35 190 draw line \, width 2;
#X obj 318 129 route color;
#X obj 313 153 unpack f f f;
#X obj 168 129 separator;
#X obj 292 97 route lineParameters alpha lineOnOff;
#X obj 166 104 spigot 1;
#X obj 344 20 inlet;
#X obj 168 171 colorRGB 0 1 0;
#X obj 176 75 alpha;
#X obj 166 44 inlet;
#X connect 0 0 2 1;
#X connect 1 0 2 2;
#X connect 3 0 4 0;
#X connect 4 0 2 0;
#X connect 5 0 6 0;
#X connect 6 0 11 1;
#X connect 6 1 11 2;
#X connect 6 2 11 3;
#X connect 7 0 11 0;
#X connect 8 0 2 0;
#X connect 8 0 5 0;
#X connect 8 1 11 4;
#X connect 8 2 9 1;
#X connect 9 0 7 0;
#X connect 10 0 8 0;
#X connect 11 0 2 0;
#X connect 12 0 9 0;
#X connect 13 0 12 0;
#X restore 159 566 pd connection;
#N canvas 1376 368 450 300 connection 0;
#X obj 208 20 inlet;
#X obj 264 16 inlet;
#X obj 168 218 curve 2;
#X obj 35 161 loadbang;
#X msg 35 190 draw line \, width 2;
#X obj 318 129 route color;
#X obj 313 153 unpack f f f;
#X obj 168 129 separator;
#X obj 292 97 route lineParameters alpha lineOnOff;
#X obj 166 104 spigot 1;
#X obj 344 20 inlet;
#X obj 168 171 colorRGB 0 1 0;
#X obj 176 75 alpha;
#X obj 166 44 inlet;
#X connect 0 0 2 1;
#X connect 1 0 2 2;
#X connect 3 0 4 0;
#X connect 4 0 2 0;
#X connect 5 0 6 0;
#X connect 6 0 11 1;
#X connect 6 1 11 2;
#X connect 6 2 11 3;
#X connect 7 0 11 0;
#X connect 8 0 2 0;
#X connect 8 0 5 0;
#X connect 8 1 11 4;
#X connect 8 2 9 1;
#X connect 9 0 7 0;
#X connect 10 0 8 0;
#X connect 11 0 2 0;
#X connect 12 0 9 0;
#X connect 13 0 12 0;
#X restore 252 528 pd connection;
#X obj 197 292 any;
#X obj 45 -18 route color reference size;
#N canvas 1406 414 450 300 instability 0;
#X obj 395 -38 inlet;
#X obj 258 -35 inlet;
#X obj 327 -36 inlet;
#X obj 190 -33 inlet;
#X obj 326 30 s.instability;
#X obj 226 138 mean;
#X obj 226 100 pack f f;
#X obj 226 165 outlet;
#X obj 214 26 s.instability;
#X obj 329 79 *;
#X obj 249 60 *;
#X floatatom 321 106 5 0 0 0 - - -;
#X floatatom 283 82 5 0 0 0 - - -;
#X floatatom 287 161 5 0 0 0 - - -;
#X connect 0 0 4 1;
#X connect 1 0 4 0;
#X connect 2 0 8 1;
#X connect 3 0 8 0;
#X connect 4 0 9 0;
#X connect 4 1 9 1;
#X connect 5 0 7 0;
#X connect 5 0 13 0;
#X connect 6 0 5 0;
#X connect 8 0 10 0;
#X connect 8 1 10 1;
#X connect 9 0 6 1;
#X connect 9 0 11 0;
#X connect 10 0 6 0;
#X connect 10 0 12 0;
#X restore 423 529 pd instability;
#X obj 34 623 outlet;
#X obj 433 628 s quad/\$1/features;
#X obj 432 604 any;
#X symbolatom 606 611 72 0 0 0 - - -;
#X obj 606 630 _documentation changeLog/toposInteract;
#X connect 0 0 47 0;
#X connect 1 0 3 0;
#X connect 1 0 23 0;
#X connect 1 1 3 1;
#X connect 1 1 25 0;
#X connect 1 2 3 2;
#X connect 1 2 27 0;
#X connect 2 0 10 1;
#X connect 3 0 4 0;
#X connect 3 0 49 1;
#X connect 3 0 50 2;
#X connect 3 0 55 0;
#X connect 5 0 54 0;
#X connect 5 0 7 0;
#X connect 5 0 10 0;
#X connect 6 0 15 0;
#X connect 8 0 49 0;
#X connect 8 0 50 0;
#X connect 8 0 51 0;
#X connect 8 0 52 0;
#X connect 9 0 48 0;
#X connect 10 0 8 0;
#X connect 11 0 12 0;
#X connect 11 0 23 1;
#X connect 11 1 12 1;
#X connect 11 1 25 1;
#X connect 11 2 12 2;
#X connect 11 2 27 1;
#X connect 12 0 13 0;
#X connect 12 0 49 2;
#X connect 12 0 52 1;
#X connect 12 0 55 1;
#X connect 14 0 58 0;
#X connect 15 0 2 0;
#X connect 16 0 17 0;
#X connect 16 0 23 2;
#X connect 16 1 17 1;
#X connect 16 1 25 2;
#X connect 16 2 17 2;
#X connect 16 2 27 2;
#X connect 17 0 18 0;
#X connect 17 0 50 1;
#X connect 17 0 51 1;
#X connect 17 0 55 2;
#X connect 19 0 20 0;
#X connect 19 0 23 3;
#X connect 19 1 20 1;
#X connect 19 1 25 3;
#X connect 19 2 20 2;
#X connect 19 2 27 3;
#X connect 20 0 21 0;
#X connect 20 0 52 2;
#X connect 20 0 51 2;
#X connect 20 0 55 3;
#X connect 22 0 28 1;
#X connect 22 1 28 0;
#X connect 23 0 22 0;
#X connect 23 0 34 0;
#X connect 24 0 29 1;
#X connect 24 1 29 0;
#X connect 25 0 24 0;
#X connect 25 0 35 0;
#X connect 26 0 30 1;
#X connect 26 1 30 0;
#X connect 27 0 26 0;
#X connect 27 0 36 0;
#X connect 28 0 31 0;
#X connect 29 0 31 1;
#X connect 30 0 31 2;
#X connect 31 0 32 0;
#X connect 32 0 33 0;
#X connect 33 0 58 0;
#X connect 34 0 38 0;
#X connect 35 0 38 1;
#X connect 36 0 38 2;
#X connect 37 0 58 0;
#X connect 38 0 37 0;
#X connect 39 0 45 0;
#X connect 40 0 46 0;
#X connect 41 0 47 0;
#X connect 42 0 48 0;
#X connect 43 0 45 0;
#X connect 44 0 46 0;
#X connect 45 0 19 0;
#X connect 46 0 16 0;
#X connect 47 0 11 0;
#X connect 48 0 1 0;
#X connect 53 0 52 3;
#X connect 53 0 51 3;
#X connect 53 0 49 3;
#X connect 53 0 50 3;
#X connect 54 1 2 0;
#X connect 54 3 53 0;
#X connect 55 0 14 0;
#X connect 58 0 57 0;
#X connect 58 0 56 0;
#X connect 59 0 60 0;
