#N canvas 111 159 1260 656 10;
#X msg 300 326 destroy \, 0;
#X obj 130 232 select 1 0;
#X msg 881 277 reset;
#X obj 364 374 loadbang;
#X floatatom 502 331 5 0 0 0 x - -;
#X floatatom 548 331 5 0 0 0 y - -;
#X obj 496 596 pack f f;
#X obj 500 558 t b f;
#X obj 395 167 tgl 10 0 empty empty light 21 7 0 10 -262144 -1 -1 0
1;
#X msg 779 458 lighting \$1;
#X obj 452 294 unpack f f;
#X msg 275 202 dimen \$1 \$2;
#X obj 289 157 t b f;
#X obj 275 180 pack 500 400;
#X msg 406 403 4;
#X msg 441 403 30;
#X msg 713 503 frame \$1;
#X floatatom 713 479 5 0 0 0 - - -;
#X text 710 462 FPS;
#X msg 702 197 color \$1 \$2 \$3;
#X obj 702 178 pack f f f;
#X obj 742 152 t b f;
#X obj 782 152 t b f;
#X obj 687 129 r \$0-red;
#X obj 742 129 r \$0-green;
#X obj 809 129 r \$0-blue;
#X obj 1073 181 hsl 50 10 0 127 0 0 empty empty empty -2 -6 0 8 -262144
-1 -1 0 1;
#X obj 1017 171 hsl 50 10 0 127 0 0 empty empty empty -2 -6 0 8 -262144
-1 -1 0 1;
#X obj 1012 155 hsl 50 10 0 127 0 0 empty empty empty -2 -6 0 8 -262144
-1 -1 0 1;
#N canvas 707 89 820 493 ch_gemwin 0;
#X obj 295 181 f;
#X obj 216 162 spigot;
#X obj 277 153 sel 0 1;
#X obj 247 134 t f f;
#X obj 216 210 -;
#X obj 216 259 +;
#X obj 277 223 f;
#X obj 169 178 f;
#X obj 90 159 spigot;
#X obj 151 150 sel 0 1;
#X obj 121 131 t f f;
#X obj 90 210 -;
#X obj 90 259 +;
#X obj 151 220 f;
#X obj 416 172 f;
#X obj 337 156 spigot;
#X obj 398 147 sel 0 1;
#X obj 368 128 t f f;
#X obj 337 207 -;
#X obj 398 217 f;
#X obj 90 475 * 4;
#X obj 145 477 * 4;
#X obj 166 318 t b f;
#X obj 104 382 cos;
#X obj 116 440 * 1;
#X obj 90 440 * 1;
#X obj 142 383 sin;
#X obj 117 476 * 4;
#X obj 104 404 t b f;
#X obj 104 358 / 200;
#X obj 90 501 pack f f f;
#X obj 468 59 gemmouse;
#X obj 525 145 t b f;
#X obj 525 174 |;
#X obj 497 250 gemhead;
#X obj 501 203 loadbang;
#X msg 497 225 0;
#X obj 497 325 curve 2;
#X obj 497 276 color 1 0 0;
#X obj 581 250 gemhead;
#X obj 581 325 curve 2;
#X obj 661 252 gemhead;
#X obj 661 327 curve 2;
#X msg 534 299 3 0 0;
#X msg 618 299 0 3 0;
#X msg 698 301 0 0 3;
#X msg 90 526 view \$1 \$2 \$3 0 0 0 0 1 0;
#X obj 581 276 color 0 1 0;
#X obj 661 278 color 0 0 1;
#X obj 90 318 sin;
#X obj 116 319 cos;
#X obj 337 256 + 200;
#X obj 167 292 / 50;
#X obj 90 293 / -200;
#X obj 28 22 inlet;
#X obj 30 589 outlet;
#X obj 70 24 inlet;
#X obj 225 29 inlet;
#X obj 142 25 inlet;
#X obj 223 54 * 5;
#X obj 69 92 / 127;
#X obj 70 71 * 400;
#X obj 141 92 / 127;
#X obj 141 68 * 200;
#X obj 141 46 * -3.14;
#X obj 70 47 * 3.14;
#X obj 142 551 r \$0-gemwin-in;
#X obj 31 561 gemwin 30;
#X obj 588 99 spigot;
#X obj 607 62 gemmouse 1 1;
#X obj 572 126 * 127;
#X floatatom 617 131 5 0 0 0 - - -;
#X obj 551 42 bng 15 250 50 0 empty empty empty 17 7 0 10 -262144 -1
-1;
#X obj 554 67 ii 0.8;
#X obj 532 96 pipe 500;
#X obj 305 524 pddp/print;
#X connect 0 0 4 1;
#X connect 1 0 4 0;
#X connect 2 0 6 0;
#X connect 2 1 0 0;
#X connect 3 0 1 1;
#X connect 3 1 2 0;
#X connect 4 0 5 0;
#X connect 5 0 6 1;
#X connect 5 0 29 0;
#X connect 6 0 5 1;
#X connect 7 0 11 1;
#X connect 8 0 11 0;
#X connect 9 0 13 0;
#X connect 9 1 7 0;
#X connect 10 0 8 1;
#X connect 10 1 9 0;
#X connect 11 0 12 0;
#X connect 12 0 13 1;
#X connect 12 0 53 0;
#X connect 13 0 12 1;
#X connect 14 0 18 1;
#X connect 15 0 18 0;
#X connect 16 0 19 0;
#X connect 16 1 14 0;
#X connect 17 0 15 1;
#X connect 17 1 16 0;
#X connect 18 0 51 0;
#X connect 19 0 51 1;
#X connect 20 0 30 0;
#X connect 21 0 30 2;
#X connect 22 0 21 0;
#X connect 22 0 20 0;
#X connect 22 0 27 0;
#X connect 22 1 21 1;
#X connect 22 1 20 1;
#X connect 22 1 27 1;
#X connect 23 0 28 0;
#X connect 24 0 21 0;
#X connect 25 0 20 0;
#X connect 26 0 27 0;
#X connect 27 0 30 1;
#X connect 28 0 24 0;
#X connect 28 0 25 0;
#X connect 28 1 24 1;
#X connect 28 1 25 1;
#X connect 29 0 23 0;
#X connect 29 0 26 0;
#X connect 30 0 46 0;
#X connect 30 0 75 0;
#X connect 31 0 8 0;
#X connect 31 0 7 1;
#X connect 31 1 1 0;
#X connect 31 1 0 1;
#X connect 31 1 14 1;
#X connect 31 1 15 0;
#X connect 31 2 3 0;
#X connect 31 2 10 0;
#X connect 31 2 33 0;
#X connect 31 3 17 0;
#X connect 31 3 32 0;
#X connect 32 0 33 0;
#X connect 32 1 33 1;
#X connect 33 0 34 0;
#X connect 33 0 39 0;
#X connect 33 0 41 0;
#X connect 34 0 38 0;
#X connect 35 0 36 0;
#X connect 35 0 43 0;
#X connect 35 0 44 0;
#X connect 35 0 45 0;
#X connect 35 0 53 0;
#X connect 35 0 51 0;
#X connect 36 0 34 0;
#X connect 36 0 39 0;
#X connect 36 0 41 0;
#X connect 38 0 37 0;
#X connect 39 0 47 0;
#X connect 41 0 48 0;
#X connect 43 0 37 2;
#X connect 44 0 40 2;
#X connect 45 0 42 2;
#X connect 46 0 67 0;
#X connect 47 0 40 0;
#X connect 48 0 42 0;
#X connect 49 0 25 0;
#X connect 50 0 24 0;
#X connect 51 0 19 1;
#X connect 51 0 52 0;
#X connect 52 0 22 0;
#X connect 53 0 49 0;
#X connect 53 0 50 0;
#X connect 54 0 67 0;
#X connect 56 0 65 0;
#X connect 57 0 59 0;
#X connect 58 0 64 0;
#X connect 59 0 52 0;
#X connect 60 0 53 0;
#X connect 61 0 60 0;
#X connect 62 0 29 0;
#X connect 63 0 62 0;
#X connect 64 0 63 0;
#X connect 65 0 61 0;
#X connect 66 0 67 0;
#X connect 67 0 55 0;
#X connect 68 0 70 0;
#X connect 68 0 71 0;
#X connect 69 1 68 0;
#X connect 69 4 68 1;
#X connect 70 0 59 0;
#X connect 72 0 73 0;
#X connect 73 0 74 0;
#X restore 977 222 pd ch_gemwin;
#X obj 788 617 s \$0-gemwin-in;
#X obj 108 121 bng 10 250 50 0 empty empty empty 17 7 0 10 -258113
-1 -1;
#X obj 702 248 s \$0-gemwin-in;
#X obj 284 292 s \$0-gemwin-in;
#X text 719 303 dsp ON/OFF;
#X floatatom 713 448 5 0 0 0 - - -;
#X obj 702 323 dsp;
#X obj 702 303 tgl 15 1 empty dsp_tgl empty 8 -8 0 10 -262144 -1 -1
1 1;
#X text 712 433 mean;
#X obj 104 104 tgl 13 0 empty empty GemWin 17 7 0 10 -258113 -1 -1
1 1;
#X msg 395 261 100 100;
#X obj 101 153 t f b b;
#X obj 858 171 r colorGemWin;
#X msg 517 268 dimen 1320 1000;
#X msg 820 212 1 1 1;
#X obj 874 195 loadbang;
#X obj 108 47 inlet;
#X msg 241 45 400 300;
#X obj 242 68 unpack f f;
#X obj 240 23 loadbang;
#X obj 253 264 any;
#X msg 451 206 offset \$1 \$2;
#X obj 212 105 nbx 5 12 0 2400 0 0 empty empty x -8 6 0 10 -262144
-1 -1 800 256;
#X obj 212 119 nbx 5 12 0 2400 0 0 empty empty y -8 6 0 10 -262144
-1 -1 600 256;
#X obj 283 106 tgl 10 0 empty empty wt/blk 17 7 0 10 -262144 -1 -1
0 1;
#X obj 882 114 sel 0 1;
#X msg 899 134 0 0 0;
#X obj 375 76 unpack f f;
#X msg 156 320 create \, FSAA \$1 \, 1;
#X obj 148 292 f 4;
#X obj 165 119 nbx 2 12 0 2400 0 0 empty empty empty -19 6 0 10 -262144
-1 -1 34 256;
#X obj 306 121 nbx 2 12 0 2400 0 0 empty empty FPS -20 6 0 10 -262144
-1 -1 30 256;
#X text 442 103 Dsp:;
#X obj 971 281 gemhead;
#X obj 970 260 tgl 15 0 empty empty empty 17 7 0 10 -262144 -1 -1 0
1;
#X floatatom 1021 485 5 0 0 0 - - -;
#X obj 971 361 translateXYZ;
#X obj 972 434 rotateXYZ;
#X floatatom 990 397 5 0 0 0 - - -;
#X floatatom 1025 396 5 0 0 0 - - -;
#X floatatom 1052 397 5 0 0 0 - - -;
#X floatatom 1051 338 5 0 0 0 - - -;
#X floatatom 1045 434 5 0 0 0 - - -;
#X obj 976 459 colorRGB 0 0 0 0.2;
#X obj 980 514 square 4;
#X floatatom 1021 335 5 0 0 0 - - -;
#X obj 969 335 alpha;
#X obj 615 77 tgl 12 0 empty empty Ground 17 7 0 10 -262144 -1 -1 0
1;
#N canvas 1211 358 523 585 grid 0;
#X obj -18 -257 inlet;
#X msg 122 -230 draw line;
#X msg 122 -211 draw point;
#X floatatom 322 29 5 0 0 0 - - -;
#X text 322 13 size;
#X msg 122 -249 draw default;
#X msg 124 -134 grid \$1;
#X floatatom 124 -152 5 0 0 0 - - -;
#X floatatom 129 -110 5 0 0 0 - - -;
#X msg 129 -92 gridX \$1;
#X floatatom 198 -110 5 0 0 0 - - -;
#X msg 198 -92 gridY \$1;
#X obj 124 -65 t a;
#X obj 122 -190 t a;
#X obj 35 120 mesh_square 3 3;
#X obj 34 95 rotateXYZ;
#X obj 34 47 translateXYZ;
#X floatatom 113 68 5 0 0 0 - - -;
#X obj -14 -227 alpha;
#X obj -20 -167 rotateXYZ;
#X obj -20 -192 translateXYZ;
#X floatatom 67 -203 5 0 0 0 - - -;
#X obj 6 -121 separator;
#X obj 98 94 r \$0-meshopt;
#X obj 60 -12 s \$0-meshopt;
#X obj 191 -15 s \$0-meshopt;
#X floatatom 71 67 5 0 0 0 - - -;
#X floatatom 35 66 5 0 0 0 - - -;
#X obj 183 117 mesh_square 3 3;
#X obj 182 92 rotateXYZ 0 0 90;
#X obj 187 62 separator;
#X floatatom 56 16 5 0 0 0 - - -;
#X obj 357 -84 gemhead;
#X obj 364 106 rotateXYZ;
#X obj 363 36 scaleXYZ;
#X obj 352 259 surface3d 6 6;
#X floatatom 396 5 5 0 0 0 - - -;
#X msg 398 186 grid 10 10;
#X msg 405 165 draw line;
#X floatatom 418 63 5 0 0 0 - - -;
#X obj 362 133 translateXYZ 0 0 0;
#X connect 1 0 13 0;
#X connect 2 0 13 0;
#X connect 3 0 14 1;
#X connect 3 0 28 1;
#X connect 5 0 13 0;
#X connect 6 0 12 0;
#X connect 7 0 6 0;
#X connect 8 0 9 0;
#X connect 9 0 12 0;
#X connect 10 0 11 0;
#X connect 11 0 12 0;
#X connect 12 0 25 0;
#X connect 13 0 25 0;
#X connect 15 0 14 0;
#X connect 16 0 15 0;
#X connect 16 0 30 0;
#X connect 17 0 15 3;
#X connect 18 0 20 0;
#X connect 19 0 22 0;
#X connect 20 0 19 0;
#X connect 21 0 19 3;
#X connect 22 0 16 0;
#X connect 23 0 14 0;
#X connect 23 0 28 0;
#X connect 26 0 15 2;
#X connect 27 0 15 1;
#X connect 29 0 28 0;
#X connect 30 0 29 0;
#X connect 31 0 16 3;
#X connect 33 0 35 0;
#X connect 36 0 34 1;
#X connect 36 0 34 2;
#X connect 36 0 34 3;
#X connect 37 0 35 0;
#X connect 38 0 35 0;
#X connect 39 0 33 3;
#X restore 1154 415 pd grid;
#X obj 970 317 separator;
#X obj 1151 304 separator;
#X obj 1029 297 spigot 0;
#X obj 1148 277 spigot 0;
#X obj 1203 265 tgl 15 0 empty empty empty 17 7 0 10 -262144 -1 -1
0 1;
#X obj 1082 270 tgl 15 0 empty empty empty 17 7 0 10 -262144 -1 -1
0 1;
#X obj 895 509 gemhead;
#X obj 896 606 square 0.2;
#X obj 903 482 ii 0;
#X obj 891 470 tgl 15 0 empty empty empty 17 7 0 10 -262144 -1 -1 0
1;
#X obj 919 32 gemhead;
#X obj 919 54 world_light;
#X msg 329 405 0;
#X floatatom 1049 197 5 0 0 0 - - -;
#X obj 1067 143 * 127;
#X text 120 117 Reset;
#X text 162 101 DSP;
#X obj 90 261;
#X msg 83 340 \; pd dsp \$1;
#X obj 183 105 tgl 10 0 empty empty empty 17 7 0 10 -4034 -1 -1 1 1
;
#X obj 183 71 ii 1;
#X obj 135 16 r topos.gemwin/all/messages;
#X obj 365 23 route dimen FSAA FPS ground groundSize groundY grid gridDiv
debugSquare zoom onOff;
#X obj 29 67 loadbang;
#X msg 284 262 view 0 0 10;
#X connect 0 0 30 0;
#X connect 1 0 59 0;
#X connect 1 1 0 0;
#X connect 2 0 30 0;
#X connect 3 0 91 0;
#X connect 3 0 14 0;
#X connect 3 0 15 0;
#X connect 4 0 6 0;
#X connect 5 0 7 0;
#X connect 6 0 30 0;
#X connect 7 0 6 0;
#X connect 7 1 6 1;
#X connect 8 0 9 0;
#X connect 9 0 30 0;
#X connect 10 0 4 0;
#X connect 10 1 5 0;
#X connect 11 0 50 1;
#X connect 12 0 13 0;
#X connect 12 1 13 1;
#X connect 13 0 11 0;
#X connect 15 0 17 0;
#X connect 16 0 30 0;
#X connect 17 0 16 0;
#X connect 17 0 61 0;
#X connect 19 0 32 0;
#X connect 20 0 19 0;
#X connect 21 0 20 0;
#X connect 21 1 20 1;
#X connect 22 0 20 0;
#X connect 22 1 20 2;
#X connect 23 0 20 0;
#X connect 24 0 21 0;
#X connect 25 0 22 0;
#X connect 26 0 29 3;
#X connect 26 0 92 0;
#X connect 27 0 29 2;
#X connect 28 0 29 1;
#X connect 31 0 103 0;
#X connect 36 0 35 0;
#X connect 36 1 60 0;
#X connect 37 0 36 0;
#X connect 39 0 41 0;
#X connect 40 0 10 0;
#X connect 41 0 1 0;
#X connect 41 1 50 0;
#X connect 41 2 40 0;
#X connect 42 0 19 0;
#X connect 43 0 30 0;
#X connect 44 0 19 0;
#X connect 45 0 44 0;
#X connect 46 0 101 0;
#X connect 47 0 48 0;
#X connect 48 0 52 0;
#X connect 48 1 53 0;
#X connect 49 0 47 0;
#X connect 50 0 33 0;
#X connect 52 0 13 0;
#X connect 53 0 12 0;
#X connect 54 0 55 0;
#X connect 55 0 44 0;
#X connect 55 1 56 0;
#X connect 56 0 19 0;
#X connect 57 0 52 0;
#X connect 57 1 53 0;
#X connect 58 0 30 0;
#X connect 59 0 58 0;
#X connect 63 0 81 0;
#X connect 63 0 82 0;
#X connect 64 0 63 0;
#X connect 65 0 74 1;
#X connect 66 0 67 0;
#X connect 67 0 73 0;
#X connect 68 0 67 1;
#X connect 69 0 67 2;
#X connect 70 0 67 3;
#X connect 71 0 66 3;
#X connect 72 0 73 4;
#X connect 73 0 74 0;
#X connect 75 0 66 2;
#X connect 76 0 66 0;
#X connect 79 0 76 0;
#X connect 80 0 78 0;
#X connect 81 0 79 0;
#X connect 82 0 80 0;
#X connect 83 0 82 1;
#X connect 84 0 81 1;
#X connect 85 0 86 0;
#X connect 87 0 85 0;
#X connect 88 0 85 0;
#X connect 89 0 90 0;
#X connect 91 0 8 0;
#X connect 93 0 26 0;
#X connect 98 0 97 0;
#X connect 99 0 98 0;
#X connect 100 0 101 0;
#X connect 101 0 57 0;
#X connect 101 1 59 1;
#X connect 101 2 17 0;
#X connect 101 3 81 1;
#X connect 101 4 65 0;
#X connect 101 5 83 0;
#X connect 101 6 75 0;
#X connect 101 8 88 0;
#X connect 101 9 93 0;
#X connect 101 10 39 0;
#X connect 101 11 32 0;
#X connect 102 0 31 0;
#X connect 103 0 33 0;
#X coords 0 -1 1 1 250 35 2 100 100;
