#N canvas 0 22 652 408 10;
#X obj 94 10 inlet;
#X obj 190 239 +;
#X obj 194 296 sqrt;
#X obj 199 389 outlet;
#X obj 110 101 unpack f f f;
#X obj 223 267 +;
#X obj 141 169 t f f;
#X obj 226 168 t f f;
#X obj 311 174 t f f;
#X obj 141 207 *;
#X obj 213 199 *;
#X obj 295 212 *;
#X obj 262 75 lister;
#X obj 270 49 t a a b b;
#X obj 365 30 loadbang;
#X msg 359 50 0 0 0;
#X obj 198 347 accum;
#X obj 199 316 t b f;
#X msg 395 161 set 0;
#X obj 381 127 t b b b;
#X obj 165 16 route reset smooth;
#X obj 226 98 unpack f f f;
#X obj 139 141 - 0;
#X obj 227 136 - 0;
#X obj 319 136 - 0;
#X msg 366 161 0;
#X connect 0 0 20 0;
#X connect 1 0 5 0;
#X connect 2 0 17 0;
#X connect 4 0 22 0;
#X connect 4 1 23 0;
#X connect 4 2 24 0;
#X connect 5 0 2 0;
#X connect 6 0 9 0;
#X connect 6 1 9 1;
#X connect 7 0 10 0;
#X connect 7 1 10 1;
#X connect 8 0 11 0;
#X connect 8 1 11 1;
#X connect 9 0 1 0;
#X connect 10 0 1 1;
#X connect 11 0 5 1;
#X connect 12 0 21 0;
#X connect 13 0 12 1;
#X connect 13 1 4 0;
#X connect 13 3 12 0;
#X connect 14 0 15 0;
#X connect 15 0 12 0;
#X connect 15 0 12 1;
#X connect 15 0 4 0;
#X connect 15 0 21 0;
#X connect 16 0 3 0;
#X connect 17 0 16 0;
#X connect 17 1 16 1;
#X connect 18 0 16 0;
#X connect 19 0 25 0;
#X connect 19 1 15 0;
#X connect 19 2 18 0;
#X connect 20 0 19 0;
#X connect 20 2 13 0;
#X connect 21 0 22 1;
#X connect 21 1 23 1;
#X connect 21 2 24 1;
#X connect 22 0 6 0;
#X connect 23 0 7 0;
#X connect 24 0 8 0;
#X connect 25 0 2 0;
#X connect 25 0 8 0;
#X connect 25 0 7 0;
#X connect 25 0 6 0;
