#N canvas 604 110 918 593 10;
#X obj 278 141 inlet;
#X obj 34 165 route /joint /new_skel;
#X obj 638 238 init;
#X obj 652 304 route 0;
#X msg 674 378 1;
#X obj 584 451 pp;
#X obj 651 357 t a b;
#X msg 608 350 0;
#X obj 584 422 spigot;
#X obj 140 94 inlet;
#X obj 409 130 loadbang;
#X obj 331 131 bng 15 250 50 0 empty empty empty 17 7 0 10 -262144
-1 -1;
#X obj 340 151 any \$1;
#X obj 162 256 route torso;
#X msg 274 287 1;
#X msg 306 287 0;
#X obj 282 252 t b b;
#X obj 205 291 spigot;
#X obj 279 232 loadbang;
#X obj 48 331 list-sub;
#X msg 605 476 \; skeleton/\$1/\$2/messages data \$3 \$4 \$5 \;;
#X obj 126 206 t a a a b;
#X symbolatom 297 563 72 0 0 0 - - -;
#X obj 432 487 smooth;
#X obj 477 486 smooth;
#X obj 521 485 smooth;
#X obj 449 366 hsl 128 15 0 1 0 0 empty empty empty -2 -8 0 10 -262144
-1 -1 12700 1;
#X obj 446 335 ii 1;
#X obj 239 509 pack s f f f;
#X obj 65 552 spigot 1;
#X obj 539 213 print topos.osceleton2skeleto;
#X obj 171 174 route body world screen smooth onOff commands;
#X obj 48 364 list-math * -1;
#X obj 51 388 list-math * 1;
#X obj 233 458 unpack s f f f f;
#X text 434 511 smooth causes desynch;
#X obj 187 232 route list;
#X obj 48 300 list;
#X obj 198 325 pp torso;
#X msg 163 290 symbol 0 0 0 0;
#X msg 537 189 commands: \, body world screen smooth onOff methods
;
#X obj 78 579 outlet results;
#X obj 190 582 outlet new ske;
#X obj 175 347 init;
#X obj 176 371 \$2;
#X obj 681 277 symbol 3;
#X obj 653 275 \$3;
#X obj 244 53 tgl 12 0 empty empty empty 17 7 0 10 -262144 -1 -1 1
1;
#X obj 245 29 ii 1;
#X obj 260 52 bng 8 100 50 0 empty empty empty 17 7 0 10 -4034 -1 -1
;
#X obj 182 114 speedlim 300;
#X obj 297 588 private/_documentation changeLog/topos-osc2ske;
#X connect 0 0 33 1;
#X connect 1 0 21 0;
#X connect 1 1 42 0;
#X connect 2 0 45 0;
#X connect 2 0 46 0;
#X connect 3 0 7 0;
#X connect 3 1 6 0;
#X connect 4 0 8 1;
#X connect 5 0 20 0;
#X connect 6 0 5 1;
#X connect 6 1 4 0;
#X connect 7 0 8 1;
#X connect 8 0 5 0;
#X connect 9 0 1 0;
#X connect 9 0 31 0;
#X connect 10 0 12 0;
#X connect 11 0 12 0;
#X connect 12 0 31 0;
#X connect 13 0 17 0;
#X connect 14 0 17 1;
#X connect 15 0 17 1;
#X connect 16 0 39 0;
#X connect 16 1 15 0;
#X connect 17 0 38 0;
#X connect 18 0 16 0;
#X connect 19 0 32 0;
#X connect 21 1 37 0;
#X connect 21 2 36 0;
#X connect 21 2 13 0;
#X connect 22 0 51 0;
#X connect 23 0 28 1;
#X connect 24 0 28 2;
#X connect 25 0 28 3;
#X connect 26 0 25 1;
#X connect 26 0 24 1;
#X connect 26 0 23 1;
#X connect 27 0 26 0;
#X connect 28 0 8 0;
#X connect 28 0 41 0;
#X connect 29 0 34 0;
#X connect 29 0 50 0;
#X connect 31 0 14 0;
#X connect 31 1 16 0;
#X connect 31 3 26 0;
#X connect 31 4 29 1;
#X connect 31 5 40 0;
#X connect 32 0 33 0;
#X connect 33 0 29 0;
#X connect 34 0 28 0;
#X connect 34 2 28 1;
#X connect 34 3 28 2;
#X connect 34 4 28 3;
#X connect 37 0 19 0;
#X connect 38 0 19 1;
#X connect 39 0 19 1;
#X connect 40 0 30 0;
#X connect 43 0 44 0;
#X connect 44 0 33 1;
#X connect 46 0 3 0;
#X connect 47 0 29 1;
#X connect 48 0 47 0;
#X connect 50 0 49 0;
#X coords 0 -1 1 1 220 18 1 50 50;
