#N canvas 162 70 1362 878 10;
#X declare -lib iem_tab;
#X declare -lib iem_tab;
#X obj -9 -148 inlet;
#X text 584 339 min;
#X text 515 338 min_index;
#X obj 1202 59 loadbang;
#X obj 1228 85 \$0;
#X obj 1237 628 outlet IDnumber;
#X obj 571 546 pp distanceFrom;
#X text 720 -95 comment;
#X obj 632 34 > 0.1;
#X obj 548 94 pp gateExplosion;
#X obj 1194 176 s interact/\$1/ID;
#X obj 979 96 \$4;
#X symbolatom 693 664 72 0 0 0 - - -;
#X obj 878 398 bng 15 250 50 0 empty empty empty 17 7 0 10 -262144
-1 -1;
#X obj 551 627 s topos.rel/\$1/features;
#X obj 553 600 any;
#X obj 442 622 outlet features;
#X obj -8 -79 route distanceFrom;
#X obj -3 -124 route get debug debugThreshold regionThreshold pointThreshold
;
#X obj 910 177 spigot;
#X obj 944 153 == 0;
#X obj 1016 151 > 0;
#X obj 974 120 t f f;
#X obj 982 176 spigot;
#X obj 910 152 / 1;
#X text 1098 -113 comment;
#X obj 600 -121 topos.features \$2;
#X obj 1084 89 mtl/3dDistance;
#X floatatom 1090 114 5 0 0 0 - - -;
#X obj 981 69 loadbang;
#X obj 775 177 spigot;
#X obj 809 153 == 0;
#X obj 881 151 > 0;
#X obj 839 120 t f f;
#X obj 847 176 spigot;
#X obj 775 152 / 1;
#X obj 849 238 +;
#X floatatom 853 265 5 0 0 0 - - -;
#X obj 1089 156 -;
#X floatatom 1092 185 5 0 0 0 - - -;
#X obj 1091 217 < 0;
#X obj 1092 274 sel 1;
#X obj 1091 243 change;
#X obj 946 -77 route volume xyzRange meanPosition speed getPosPoint
centerPointsAvr centerPointsStd;
#X obj 590 -92 route volume xyzRange meanPosition speed getPosPoint
centerPointsAvr centerPointsStd;
#X obj 1139 149 +;
#X floatatom 1139 171 5 0 0 0 - - -;
#X obj 1137 216 < 0;
#X obj 1140 191 * -1;
#X obj 1140 274 sel 1;
#X obj 1139 243 change;
#X obj 1139 298 bng 15 250 50 0 empty empty empty 17 7 0 10 -262144
-1 -1;
#N canvas 1068 369 450 300 vels 0;
#X obj 89 92 delta;
#X obj 74 154 f;
#X floatatom 82 192 5 0 0 0 - - -;
#X obj 73 173 abs;
#X obj 103 57 private/_displacement;
#X obj 148 85 private/_displacement;
#X obj 137 109 delta;
#X obj 150 154 f;
#X floatatom 158 192 5 0 0 0 - - -;
#X obj 149 173 abs;
#X obj 100 26 inlet;
#X obj 143 23 inlet;
#X obj 41 28 inlet;
#X obj 83 229 outlet;
#X obj 135 228 outlet;
#X connect 0 0 1 1;
#X connect 1 0 3 0;
#X connect 2 0 13 0;
#X connect 3 0 2 0;
#X connect 4 0 0 0;
#X connect 5 0 6 0;
#X connect 6 0 7 1;
#X connect 7 0 9 0;
#X connect 8 0 14 0;
#X connect 9 0 8 0;
#X connect 10 0 4 0;
#X connect 11 0 5 0;
#X connect 12 0 1 0;
#X connect 12 0 7 0;
#X restore 1058 458 pd vels;
#N canvas 1068 369 450 300 vels 0;
#X obj 89 92 delta;
#X obj 74 154 f;
#X floatatom 82 192 5 0 0 0 - - -;
#X obj 73 173 abs;
#X obj 103 57 private/_displacement;
#X obj 148 85 private/_displacement;
#X obj 137 109 delta;
#X obj 150 154 f;
#X floatatom 158 192 5 0 0 0 - - -;
#X obj 149 173 abs;
#X obj 100 26 inlet;
#X obj 143 23 inlet;
#X obj 41 28 inlet;
#X obj 83 229 outlet;
#X obj 135 228 outlet;
#X connect 0 0 1 1;
#X connect 1 0 3 0;
#X connect 2 0 13 0;
#X connect 3 0 2 0;
#X connect 4 0 0 0;
#X connect 5 0 6 0;
#X connect 6 0 7 1;
#X connect 7 0 9 0;
#X connect 8 0 14 0;
#X connect 9 0 8 0;
#X connect 10 0 4 0;
#X connect 11 0 5 0;
#X connect 12 0 1 0;
#X connect 12 0 7 0;
#X restore 852 458 pd vels;
#X obj 930 559 pp envelopmentVels;
#X obj 768 557 pp touchVels;
#X obj 1088 584 pp toposState;
#X msg 1144 520 touch;
#X msg 1193 519 in;
#X msg 1251 519 out;
#X floatatom 1205 286 5 0 0 0 - - -;
#X floatatom 1200 216 5 0 0 0 - - -;
#X floatatom 1170 218 5 0 0 0 - - -;
#X obj 1204 250 ||;
#X obj 1198 322 sel 0;
#X obj 1142 329 sel 1;
#X obj 1164 379 &;
#X obj 1161 425 sel 1;
#X obj -10 141 spigot 0;
#X obj -11 201 separator;
#X msg 68 495 draw line;
#X msg 56 541 draw point;
#X floatatom 81 615 5 0 0 0 - - -;
#X floatatom 115 615 5 0 0 0 - - -;
#X msg 58 570 draw fill;
#X obj -4 648 sphere 1 50;
#X obj 69 517 loadbang;
#X obj -8 458 scaleXYZ 1 1 1;
#X obj 20 379 unpack f f f;
#X obj 40 670 sphere 1 50;
#X obj 663 135 s \$0-1;
#X obj 1077 3 s \$0-2;
#X obj 1138 63 r \$0-2;
#X obj 1102 419 r \$0-2;
#X obj 919 431 r \$0-2;
#X obj 825 357 r \$0-1;
#X obj 1072 66 r \$0-1;
#X obj 1083 347 r \$0-1;
#X obj 45 227 r \$0-1;
#X obj 809 -10 s \$0-av1;
#X obj 65 588 r \$0-av1;
#X obj 52 123 tgl 15 0 empty empty empty 17 7 0 10 -262144 -1 -1 1
1;
#X obj 40 275 unpack f f f;
#X obj -5 354 translateXYZ;
#X obj 99 643 r \$0-std1;
#X obj 875 4 +;
#X obj 860 31 s \$0-std1;
#X obj -5 411 colorRGB 0 1 0.5 0.1;
#X obj 23 -17 route size color alpha;
#X obj 193 142 spigot 0;
#X obj 192 202 separator;
#X msg 243 482 draw line;
#X floatatom 284 616 5 0 0 0 - - -;
#X floatatom 318 616 5 0 0 0 - - -;
#X msg 335 549 draw fill;
#X obj 199 649 sphere 1 50;
#X obj 322 499 loadbang;
#X obj 195 459 scaleXYZ 1 1 1;
#X obj 223 380 unpack f f f;
#X obj 243 671 sphere 1 50;
#X obj 255 124 tgl 15 0 empty empty empty 17 7 0 10 -262144 -1 -1 1
1;
#X obj 243 276 unpack f f f;
#X obj 198 355 translateXYZ;
#X obj 1197 9 +;
#X obj 1182 36 s \$0-std2;
#X obj 1156 -19 s \$0-av2;
#X obj 302 644 r \$0-std2;
#X obj 268 589 r \$0-av2;
#X obj 239 228 r \$0-2;
#X obj 177 48 alpha;
#X obj 198 412 colorRGB 0 1 0.5 0.1;
#X obj 975 -114 topos.features \$3;
#X obj 831 491 pack f f f;
#X obj 1023 528 pack f f f;
#X obj 835 199 * 1;
#X obj 970 199 * 1;
#X msg 258 544 =;
#X obj 693 683 private/_documentation changeLog/topos.rel.pointRegion
;
#X obj 210 -11 route size color alpha;
#X obj 363 40 pddp/print;
#X obj 48 -55 route float list;
#X connect 0 0 18 0;
#X connect 3 0 4 0;
#X connect 4 0 5 0;
#X connect 4 0 10 0;
#X connect 6 0 15 0;
#X connect 8 0 9 0;
#X connect 9 0 15 0;
#X connect 11 0 22 0;
#X connect 11 0 33 0;
#X connect 12 0 127 0;
#X connect 13 0 53 0;
#X connect 15 0 14 0;
#X connect 15 0 16 0;
#X connect 18 0 17 0;
#X connect 18 1 130 0;
#X connect 18 3 22 0;
#X connect 18 3 33 0;
#X connect 18 5 119 0;
#X connect 19 0 36 1;
#X connect 20 0 19 1;
#X connect 21 0 23 1;
#X connect 22 0 23 0;
#X connect 22 1 21 0;
#X connect 22 1 20 0;
#X connect 23 0 125 1;
#X connect 24 0 19 0;
#X connect 26 0 44 0;
#X connect 27 0 28 0;
#X connect 28 0 38 0;
#X connect 28 0 6 0;
#X connect 29 0 11 0;
#X connect 30 0 36 0;
#X connect 31 0 30 1;
#X connect 32 0 34 1;
#X connect 33 0 34 0;
#X connect 33 1 32 0;
#X connect 33 1 31 0;
#X connect 34 0 124 1;
#X connect 35 0 30 0;
#X connect 36 0 37 0;
#X connect 37 0 38 1;
#X connect 38 0 39 0;
#X connect 39 0 40 0;
#X connect 39 0 47 0;
#X connect 40 0 42 0;
#X connect 40 0 62 0;
#X connect 40 0 63 0;
#X connect 40 0 122 0;
#X connect 41 0 13 0;
#X connect 42 0 41 0;
#X connect 43 2 81 0;
#X connect 43 5 24 0;
#X connect 43 5 113 0;
#X connect 43 5 115 0;
#X connect 43 5 125 0;
#X connect 43 6 45 1;
#X connect 43 6 113 1;
#X connect 44 2 80 0;
#X connect 44 3 8 0;
#X connect 44 5 35 0;
#X connect 44 5 89 0;
#X connect 44 5 95 0;
#X connect 44 5 124 0;
#X connect 44 6 45 0;
#X connect 44 6 95 1;
#X connect 45 0 46 0;
#X connect 46 0 48 0;
#X connect 47 0 50 0;
#X connect 47 0 61 0;
#X connect 47 0 63 1;
#X connect 47 0 123 0;
#X connect 48 0 47 1;
#X connect 49 0 51 0;
#X connect 50 0 49 0;
#X connect 51 0 52 0;
#X connect 52 0 123 1;
#X connect 52 1 123 2;
#X connect 53 0 122 1;
#X connect 53 1 122 2;
#X connect 54 0 15 0;
#X connect 55 0 15 0;
#X connect 56 0 15 0;
#X connect 57 0 56 0;
#X connect 58 0 56 0;
#X connect 59 0 56 0;
#X connect 60 0 64 0;
#X connect 61 0 66 1;
#X connect 62 0 65 0;
#X connect 62 0 66 0;
#X connect 63 0 60 0;
#X connect 64 0 59 0;
#X connect 65 0 57 0;
#X connect 66 0 67 0;
#X connect 67 0 58 0;
#X connect 68 0 69 0;
#X connect 69 0 93 0;
#X connect 70 0 75 0;
#X connect 71 0 75 0;
#X connect 72 0 75 1;
#X connect 73 0 75 2;
#X connect 74 0 75 0;
#X connect 76 0 74 0;
#X connect 77 0 75 0;
#X connect 77 0 79 0;
#X connect 78 0 97 1;
#X connect 78 1 97 2;
#X connect 78 2 97 3;
#X connect 82 0 27 1;
#X connect 83 0 52 2;
#X connect 84 0 53 2;
#X connect 85 0 53 1;
#X connect 86 0 27 0;
#X connect 87 0 52 1;
#X connect 88 0 92 0;
#X connect 90 0 75 1;
#X connect 91 0 68 1;
#X connect 92 0 93 1;
#X connect 92 1 93 2;
#X connect 92 2 93 3;
#X connect 93 0 97 0;
#X connect 94 0 79 1;
#X connect 95 0 96 0;
#X connect 97 0 77 0;
#X connect 98 1 78 0;
#X connect 98 2 97 4;
#X connect 99 0 100 0;
#X connect 100 0 112 0;
#X connect 101 0 105 0;
#X connect 101 0 79 0;
#X connect 101 0 109 0;
#X connect 101 0 75 0;
#X connect 102 0 105 1;
#X connect 103 0 105 2;
#X connect 104 0 105 0;
#X connect 106 0 101 0;
#X connect 107 0 105 0;
#X connect 107 0 109 0;
#X connect 108 0 120 1;
#X connect 108 1 120 2;
#X connect 108 2 120 3;
#X connect 110 0 99 1;
#X connect 111 0 112 1;
#X connect 111 1 112 2;
#X connect 111 2 112 3;
#X connect 112 0 120 0;
#X connect 113 0 114 0;
#X connect 116 0 109 1;
#X connect 117 0 105 1;
#X connect 118 0 111 0;
#X connect 119 0 99 0;
#X connect 119 0 68 0;
#X connect 120 0 107 0;
#X connect 121 0 43 0;
#X connect 122 0 55 0;
#X connect 123 0 54 0;
#X connect 124 0 36 0;
#X connect 125 0 36 1;
#X connect 126 0 105 0;
#X connect 126 0 75 0;
#X connect 128 1 108 0;
#X connect 128 2 120 4;
#X connect 128 3 75 0;
#X connect 128 3 79 0;
#X connect 128 3 109 0;
#X connect 128 3 105 0;
#X connect 130 0 91 0;
#X connect 130 0 110 0;
#X connect 130 2 98 0;
#X connect 130 2 128 0;
