#N canvas 890 166 811 753 10;
#X declare -lib mrpeach;
#X declare -lib mrpeach;
#X declare -lib mrpeach;
#X declare -lib mrpeach;
#X declare -lib mrpeach;
#X declare -lib mrpeach;
#X declare -lib mrpeach;
#X declare -lib mrpeach;
#X declare -lib mrpeach;
#X declare -lib mrpeach;
#X declare -lib mrpeach;
#X declare -lib mrpeach;
#X declare -lib mrpeach;
#X declare -lib mrpeach;
#X declare -lib mrpeach;
#X obj 50 78 inlet;
#N canvas 1018 559 450 300 synapse 0;
#X msg 42 162 disconnect;
#X obj 44 225 tgl 15 0 empty empty 1=connected 20 8 0 8 -258113 -4160
-1 1 1;
#X msg 15 141 connect 127.0.0.1 12346;
#X obj 44 190 mrpeach/udpsend;
#X obj 15 119 loadbang;
#X obj 44 89 mrpeach/packOSC;
#X obj 44 63 inlet;
#X obj 50 254 outlet;
#X obj 4 70 inlet;
#X obj 191 89 sel 0 1;
#X connect 0 0 3 0;
#X connect 1 0 7 0;
#X connect 2 0 3 0;
#X connect 3 0 1 0;
#X connect 4 0 2 0;
#X connect 5 0 3 0;
#X connect 6 0 5 0;
#X connect 8 0 9 0;
#X connect 9 0 0 0;
#X connect 9 1 2 0;
#X restore 749 203 pd synapse;
#X obj 379 411 s \$0-connSy;
#X obj 749 179 r \$0-connSy;
#X obj 393 366 r \$0-coord;
#X obj 496 254 s \$0-coord;
#X obj 327 366 r \$0-bang;
#X obj 646 233 tgl 15 0 empty empty empty 17 7 0 10 -262144 -1 -1 1
1;
#X obj 646 275 bng 15 250 50 0 empty empty empty 17 7 0 10 -262144
-1 -1;
#X obj 618 119 loadbang;
#X obj 646 253 metro 500;
#X obj 646 299 s \$0-bang;
#X msg 450 214 world;
#X msg 407 213 body;
#X msg 494 213 screen;
#X obj 377 504 s \$0-connSy;
#X obj 389 457 r \$0-coord;
#X obj 325 459 r \$0-bang;
#X obj 32 254 timer;
#X obj 32 232 t b b;
#X floatatom 32 278 5 0 0 0 - - -;
#X obj 131 212 s \$0-stream;
#X obj 317 345 r \$0-stream;
#X obj 318 440 r \$0-stream;
#X obj 379 593 s \$0-connSy;
#X obj 391 546 r \$0-coord;
#X obj 327 548 r \$0-bang;
#X obj 320 529 r \$0-stream;
#X obj 317 414 s \$0-out;
#X obj 319 503 s \$0-out;
#X obj 323 592 s \$0-out;
#X obj 526 507 s \$0-connSy;
#X obj 538 460 r \$0-coord;
#X obj 474 462 r \$0-bang;
#X obj 467 443 r \$0-stream;
#X obj 468 506 s \$0-out;
#X obj 221 504 s \$0-connSy;
#X obj 233 457 r \$0-coord;
#X obj 169 459 r \$0-bang;
#X obj 162 440 r \$0-stream;
#X obj 163 503 s \$0-out;
#X obj 706 556 s \$0-connSy;
#X obj 691 506 r \$0-coord;
#X obj 627 508 r \$0-bang;
#X obj 620 489 r \$0-stream;
#X obj 621 552 s \$0-out;
#X obj 76 213 r \$0-out;
#X obj 116 574 s \$0-connSy;
#X obj 128 527 r \$0-coord;
#X obj 64 529 r \$0-bang;
#X obj 57 510 r \$0-stream;
#X obj 58 573 s \$0-out;
#X obj 73 263 outlet;
#X obj 690 640 s \$0-connSy;
#X obj 702 593 r \$0-coord;
#X obj 638 595 r \$0-bang;
#X obj 631 576 r \$0-stream;
#X obj 632 639 s \$0-out;
#X obj 71 659 s \$0-connSy;
#X obj 83 612 r \$0-coord;
#X obj 19 614 r \$0-bang;
#X obj 12 595 r \$0-stream;
#X obj 13 658 s \$0-out;
#X obj 492 679 s \$0-connSy;
#X obj 504 632 r \$0-coord;
#X obj 440 634 r \$0-bang;
#X obj 433 615 r \$0-stream;
#X obj 434 678 s \$0-out;
#X obj 269 681 s \$0-connSy;
#X obj 281 634 r \$0-coord;
#X obj 217 636 r \$0-bang;
#X obj 210 617 r \$0-stream;
#X obj 211 680 s \$0-out;
#X obj 278 771 s \$0-connSy;
#X obj 290 724 r \$0-coord;
#X obj 226 726 r \$0-bang;
#X obj 219 707 r \$0-stream;
#X obj 220 770 s \$0-out;
#X obj 506 770 s \$0-connSy;
#X obj 518 723 r \$0-coord;
#X obj 454 725 r \$0-bang;
#X obj 447 706 r \$0-stream;
#X obj 448 769 s \$0-out;
#X obj 554 857 s \$0-connSy;
#X obj 566 810 r \$0-coord;
#X obj 502 812 r \$0-bang;
#X obj 495 793 r \$0-stream;
#X obj 496 856 s \$0-out;
#X obj 228 855 s \$0-connSy;
#X obj 240 808 r \$0-coord;
#X obj 176 810 r \$0-bang;
#X obj 169 791 r \$0-stream;
#X obj 170 854 s \$0-out;
#X obj 75 239 list;
#X obj 288 164 init;
#X obj 254 174 bng 15 250 50 0 empty empty empty 17 7 0 10 -262144
-1 -1;
#X obj 286 238 route 0;
#X msg 305 291 1;
#X obj 156 291 pp;
#X obj 282 270 t a b;
#X msg 242 256 0;
#X msg 153 321 \; skeleton/\$1/\$2/messages data \$3 \$4 \$5;
#X obj 540 120 bng 15 250 50 0 empty empty empty 17 7 0 10 -262144
-1 -1;
#X obj 549 140 any \$1;
#X obj 750 225 change;
#X msg 750 269 0;
#X msg 644 204 1;
#X msg 699 208 0;
#X text 583 326 doc connect disconnect;
#X msg 155 366 \; ske/\$1/\$2 \$3 \$4 \$5;
#X obj 28 476 outlet;
#X obj 618 142 pipe 10;
#X obj 396 178 route body world screen stop reconnect disconnect onOff
;
#X obj 101 148 spigot 1;
#X obj 752 247 sel 0 1;
#X msg 779 277 1;
#X obj 134 185 list-math * 1;
#X obj 208 92 init;
#X obj 209 116 \$2;
#X obj 315 211 symbol \$3;
#X obj 285 211 \$3;
#X obj 355 275 bng 15 250 50 0 empty empty empty 17 7 0 10 -262144
-1 -1;
#X obj 156 262 spigot 0;
#X obj 36 434 pack s f f f;
#X obj 24 401 unpack f s f f f;
#X obj 255 97 inlet;
#X obj 213 23 tgl 12 0 empty empty empty 17 7 0 10 -262144 -1 -1 1
1;
#X msg 515 70 1;
#X msg 597 55 0;
#X obj 569 25 t b b;
#X obj 461 61 spigot;
#X obj 567 -1 loadbang;
#X obj 304 101 list-sub;
#X obj 382 -24 t a a a b;
#X obj 304 70 list;
#X obj 454 95 pp torso;
#X msg 363 63 symbol 0 0 0 0;
#X obj 420 13 route /torso_pos_world;
#X obj 318 480 private/_synapse neck;
#X obj 317 388 private/_synapse head;
#X obj 320 569 private/_synapse torso;
#X obj 163 479 private/_synapse leftshoulder;
#X obj 468 482 private/_synapse rightshoulder;
#X obj 621 528 private/_synapse rightelbow;
#X obj 55 550 private/_synapse leftelbow;
#X obj 632 615 private/_synapse righthand;
#X obj 11 634 private/_synapse lefthand;
#X obj 434 654 private/_synapse righthip;
#X obj 212 657 private/_synapse lefthip;
#X obj 448 743 private/_synapse rightknee;
#X obj 220 746 private/_synapse leftknee;
#X obj 495 832 private/_synapse rightfoot;
#X obj 170 830 private/_synapse leftfoot;
#X obj 229 22 bng 8 100 50 0 empty empty empty 17 7 0 10 -4034 -1 -1
;
#X obj 355 36 speedlim 300;
#X connect 0 0 113 0;
#X connect 0 0 19 0;
#X connect 0 0 112 0;
#X connect 1 0 104 0;
#X connect 3 0 1 1;
#X connect 4 0 139 2;
#X connect 6 0 139 1;
#X connect 7 0 10 0;
#X connect 8 0 11 0;
#X connect 9 0 103 0;
#X connect 9 0 111 0;
#X connect 10 0 8 0;
#X connect 12 0 129 0;
#X connect 14 0 5 0;
#X connect 16 0 138 2;
#X connect 17 0 138 1;
#X connect 18 0 20 0;
#X connect 19 0 18 0;
#X connect 19 1 18 1;
#X connect 22 0 139 0;
#X connect 23 0 138 0;
#X connect 25 0 140 2;
#X connect 26 0 140 1;
#X connect 27 0 140 0;
#X connect 32 0 142 2;
#X connect 33 0 142 1;
#X connect 34 0 142 0;
#X connect 37 0 141 2;
#X connect 38 0 141 1;
#X connect 39 0 141 0;
#X connect 42 0 143 2;
#X connect 43 0 143 1;
#X connect 44 0 143 0;
#X connect 46 0 93 0;
#X connect 48 0 144 2;
#X connect 49 0 144 1;
#X connect 50 0 144 0;
#X connect 54 0 145 2;
#X connect 55 0 145 1;
#X connect 56 0 145 0;
#X connect 59 0 146 2;
#X connect 60 0 146 1;
#X connect 61 0 146 0;
#X connect 64 0 147 2;
#X connect 65 0 147 1;
#X connect 66 0 147 0;
#X connect 69 0 148 2;
#X connect 70 0 148 1;
#X connect 71 0 148 0;
#X connect 74 0 150 2;
#X connect 75 0 150 1;
#X connect 76 0 150 0;
#X connect 79 0 149 2;
#X connect 80 0 149 1;
#X connect 81 0 149 0;
#X connect 84 0 151 2;
#X connect 85 0 151 1;
#X connect 86 0 151 0;
#X connect 89 0 152 2;
#X connect 90 0 152 1;
#X connect 91 0 152 0;
#X connect 93 0 52 0;
#X connect 93 0 122 0;
#X connect 94 0 119 0;
#X connect 94 0 120 0;
#X connect 95 0 94 0;
#X connect 96 0 100 0;
#X connect 96 1 99 0;
#X connect 97 0 122 1;
#X connect 98 0 101 0;
#X connect 98 0 124 0;
#X connect 98 0 109 0;
#X connect 99 0 98 1;
#X connect 99 1 97 0;
#X connect 100 0 122 1;
#X connect 102 0 103 0;
#X connect 103 0 112 0;
#X connect 104 0 114 0;
#X connect 105 0 7 0;
#X connect 106 0 7 0;
#X connect 106 0 126 0;
#X connect 107 0 1 0;
#X connect 111 0 106 0;
#X connect 112 0 13 0;
#X connect 112 0 127 0;
#X connect 112 1 12 0;
#X connect 112 2 14 0;
#X connect 112 3 7 0;
#X connect 112 4 106 0;
#X connect 112 5 107 0;
#X connect 112 6 7 0;
#X connect 112 6 126 0;
#X connect 113 0 133 0;
#X connect 113 0 154 0;
#X connect 114 0 105 0;
#X connect 114 1 115 0;
#X connect 115 0 7 0;
#X connect 116 0 21 0;
#X connect 117 0 118 0;
#X connect 118 0 116 1;
#X connect 120 0 96 0;
#X connect 122 0 98 0;
#X connect 123 0 110 0;
#X connect 124 1 123 0;
#X connect 124 2 123 1;
#X connect 124 3 123 2;
#X connect 124 4 123 3;
#X connect 125 0 116 1;
#X connect 126 0 1 0;
#X connect 126 0 113 1;
#X connect 127 0 130 1;
#X connect 128 0 130 1;
#X connect 129 0 136 0;
#X connect 129 1 128 0;
#X connect 130 0 135 0;
#X connect 131 0 129 0;
#X connect 132 0 116 0;
#X connect 133 1 134 0;
#X connect 133 2 137 0;
#X connect 134 0 132 0;
#X connect 135 0 132 1;
#X connect 136 0 132 1;
#X connect 137 0 130 0;
#X connect 138 0 29 0;
#X connect 138 1 15 0;
#X connect 139 0 28 0;
#X connect 139 1 2 0;
#X connect 140 0 30 0;
#X connect 140 1 24 0;
#X connect 141 0 40 0;
#X connect 141 1 36 0;
#X connect 142 0 35 0;
#X connect 142 1 31 0;
#X connect 143 0 45 0;
#X connect 143 1 41 0;
#X connect 144 0 51 0;
#X connect 144 1 47 0;
#X connect 145 0 57 0;
#X connect 145 1 53 0;
#X connect 146 0 62 0;
#X connect 146 1 58 0;
#X connect 147 0 67 0;
#X connect 147 1 63 0;
#X connect 148 0 72 0;
#X connect 148 1 68 0;
#X connect 149 0 82 0;
#X connect 149 1 78 0;
#X connect 150 0 77 0;
#X connect 150 1 73 0;
#X connect 151 0 87 0;
#X connect 151 1 83 0;
#X connect 152 0 92 0;
#X connect 152 1 88 0;
#X connect 154 0 153 0;
#X coords 0 -1 1 1 220 18 1 20 20;
