#N canvas 372 22 918 766 10;
#X declare -path mtl;
#X obj 277 82 list-lastx 4;
#X obj 17 21 unpack f f f;
#X obj 280 58 f;
#X obj 158 -69 tgl 15 0 empty empty empty 17 7 0 10 -262144 -1 -1 1
1;
#X obj 136 89 list-lastx 4;
#X obj 139 65 f;
#X obj -1 94 list-lastx 4;
#X obj -6 70 f;
#X obj -47 142 list-mean;
#X obj 135 141 list-mean;
#X obj 299 142 list-mean;
#X obj 219 440 pack f f f;
#X obj 158 -19 t b b b;
#X obj -13 372 pp;
#X obj -18 396 pp;
#X obj 158 -48 metro 50;
#X obj 239 343 f;
#X obj 10 309 t l b;
#X obj 129 421 pack f f f;
#X obj 401 405 f+;
#X obj 415 429 select;
#X floatatom 375 428 5 0 0 0 - - -;
#X obj 377 407 bng 15 250 50 0 empty empty empty 17 7 0 10 -262144
-1 -1;
#X msg 430 404 1;
#X obj 550 283 table \$0-xlive;
#X obj 552 304 table \$0-ylive;
#X obj 552 326 table \$0-zlive;
#X obj 218 371 tabread \$0-xlive;
#X obj 242 392 tabread \$0-ylive;
#X obj 268 411 tabread \$0-zlive;
#X obj 347 308 tabset \$0-zlive;
#X obj 157 289 tabset \$0-ylive;
#X obj 11 330 tabset \$0-xlive;
#X obj 444 40 any;
#X text 407 122 sampling;
#X obj 563 -52 loadbang;
#X obj 489 303 \$0;
#X obj 689 503 outlet IDnumber;
#N canvas 656 241 450 300 how 0;
#X obj 134 63 tabread \$0-xlive;
#X obj 136 83 tabread \$0-ylive;
#X obj 137 104 tabread \$0-zlive;
#X obj 139 129 pack f f f;
#X obj 137 154 any;
#X obj 114 40 any;
#X msg 48 63 set \$1-xlive;
#X msg 54 83 set \$1-ylive;
#X msg 55 104 set \$1-zlive;
#X obj 46 38 f;
#X connect 0 0 3 0;
#X connect 1 0 3 1;
#X connect 2 0 3 2;
#X connect 3 0 4 0;
#X connect 5 0 0 0;
#X connect 5 0 1 0;
#X connect 5 0 2 0;
#X connect 6 0 0 0;
#X connect 7 0 1 0;
#X connect 8 0 2 0;
#X connect 9 0 6 0;
#X connect 9 0 7 0;
#X connect 9 0 8 0;
#X restore 600 58 pd how to get the arrays outside;
#X obj 374 475 outlet wheel;
#X obj 227 466 s topos/\$1/last;
#X obj 381 451 s topos/\$1/wheel;
#X obj 121 475 s topos/\$1/mean;
#X obj -17 515 s topos/\$1/outputList;
#X obj 489 361 s topos/\$1/ID;
#X obj 5 -149 inlet guide;
#X obj -6 280 list-math -;
#X obj 59 253 spigot;
#X obj 30 195 select 0 1;
#X msg 30 216 0;
#X msg 59 216 1;
#X obj 16 145 r topos/\$1/subMean;
#X obj 513 -94 s topos/\$1/subMean;
#X obj 515 -114 tgl 15 0 empty empty empty 17 7 0 10 -262144 -1 -1
0 1;
#X obj 156 265 t l b;
#X obj 154 243 list-math -;
#X obj 139 219 spigot;
#X obj 186 198 select 0 1;
#X msg 186 219 0;
#X msg 215 219 1;
#X obj 162 176 r topos/\$1/subMean;
#X obj 352 287 t l b;
#X obj 348 261 list-math -;
#X obj 328 241 spigot;
#X obj 354 198 select 0 1;
#X msg 354 219 0;
#X msg 383 219 1;
#X obj 341 165 r topos/\$1/subMean;
#X obj 481 288 bng 15 250 50 0 empty empty empty 17 7 0 10 -262144
-1 -1;
#X floatatom 620 381 5 0 0 0 - - -;
#X obj -63 -136 inlet;
#X obj 446 82 s \$0-pts;
#X obj 451 397 r \$0-pts;
#X obj 255 312 r \$0-pts;
#X obj 344 61 r \$0-pts;
#X obj 207 63 r \$0-pts;
#X obj 60 72 r \$0-pts;
#X obj -68 529 outlet;
#X msg 554 214 \; \$2-zlive resize \$1 \; \$2-ylive resize \$1 \; \$2-xlive
resize \$1 \;;
#X obj 551 161 change;
#X obj 553 184 pack f f;
#N canvas 419 611 1097 268 meanLastFirst 0;
#X obj 431 179 pack f f;
#X obj 430 208 list-mean;
#X obj 481 22 r \$0-pts;
#X obj 284 119 packel 1;
#X obj 284 151 pack f f;
#X obj 283 180 list-mean;
#X obj 64 120 packel 1;
#X obj 64 152 pack f f;
#X obj 63 181 list-mean;
#X obj 228 219 pack f f f;
#X text 64 -11 Creates a mid point btw first and last point;
#X obj 221 244 outlet;
#X obj 431 147 packel 1;
#X obj 496 146 list-nth;
#X obj 347 118 list-nth;
#X obj 128 118 list-nth;
#X obj 487 50 - 1;
#X obj 330 11 inlet;
#X obj 62 14 inlet;
#X obj 60 49 spigot;
#X obj 278 47 spigot;
#X obj 601 45 inlet;
#X obj 426 75 spigot;
#X obj 424 51 inlet;
#X connect 0 0 1 0;
#X connect 1 0 9 2;
#X connect 2 0 16 0;
#X connect 3 0 4 0;
#X connect 4 0 5 0;
#X connect 5 0 9 1;
#X connect 6 0 7 0;
#X connect 7 0 8 0;
#X connect 8 0 9 0;
#X connect 9 0 11 0;
#X connect 12 0 0 0;
#X connect 13 0 0 1;
#X connect 14 0 4 1;
#X connect 15 0 7 1;
#X connect 16 0 13 1;
#X connect 16 0 14 1;
#X connect 16 0 15 1;
#X connect 17 0 20 0;
#X connect 18 0 19 0;
#X connect 19 0 6 0;
#X connect 19 0 15 0;
#X connect 20 0 3 0;
#X connect 20 0 14 0;
#X connect 21 0 22 1;
#X connect 21 0 20 1;
#X connect 21 0 19 1;
#X connect 22 0 12 0;
#X connect 22 0 13 0;
#X connect 23 0 22 0;
#X restore 8 544 pd meanLastFirst;
#X obj 1 568 s topos/\$1/flmean;
#X obj 9 -18 spigot 1;
#X obj 108 -72 == 0;
#X obj 149 35 t b b b;
#X obj 278 -18 s \$0-metro;
#X obj 146 12 spigot 1;
#X obj -59 122 lister;
#X obj 115 116 lister;
#X obj 274 113 lister;
#X obj 172 -139 route points sampling mode metro freeze;
#X floatatom 231 -29 5 0 0 0 - - -;
#X obj 297 -160 r topos/\$1/messages;
#X obj 439 -163 r topos/all/messages;
#X obj 90 -152 r \$2;
#X obj 361 -77 \$3;
#X obj 430 -78 \$4;
#X obj 86 -28 t f f;
#X obj 19 410 list-len;
#X floatatom 17 433 5 0 0 0 - - -;
#X symbolatom 238 508 72 0 0 0 - - -;
#X obj -49 4 s topos/\$1/points;
#X msg 290 -90 metro \$1;
#X obj 421 -6 bng 15 250 50 0 empty empty empty 17 7 0 10 -262144 -1
-1;
#X obj 444 60 any;
#X msg 677 -3 10;
#X obj 620 -27 t b b b b b b b b b;
#X obj 467 168 f 0;
#X msg 614 -2 1;
#X obj -15 490 spigot;
#X obj 15 451 ==;
#X obj 89 387 r \$0-pts;
#X obj 94 417 * 3;
#X obj 168 -163 inlet messages;
#X obj 86 -127 route data;
#X obj -62 -90 private/_topos.view \$1 \$4;
#X obj 657 -98 declare -path mtl;
#X obj 238 533 private/_documentation changeLog/topos;
#X connect 0 0 90 1;
#X connect 1 0 7 1;
#X connect 1 1 5 1;
#X connect 1 2 2 1;
#X connect 2 0 0 0;
#X connect 3 0 15 0;
#X connect 4 0 89 1;
#X connect 5 0 4 0;
#X connect 6 0 88 1;
#X connect 7 0 6 0;
#X connect 8 0 18 0;
#X connect 8 0 47 0;
#X connect 9 0 18 1;
#X connect 9 0 56 0;
#X connect 10 0 18 2;
#X connect 10 0 63 0;
#X connect 11 0 40 0;
#X connect 12 0 88 0;
#X connect 12 0 89 0;
#X connect 12 0 90 0;
#X connect 12 1 87 0;
#X connect 12 2 19 0;
#X connect 12 2 36 0;
#X connect 13 0 14 1;
#X connect 14 0 99 0;
#X connect 14 0 110 0;
#X connect 15 0 12 0;
#X connect 15 0 86 0;
#X connect 16 0 27 0;
#X connect 16 0 28 0;
#X connect 16 0 29 0;
#X connect 17 0 32 0;
#X connect 17 1 16 0;
#X connect 18 0 42 0;
#X connect 19 0 20 0;
#X connect 19 0 21 0;
#X connect 20 0 23 0;
#X connect 21 0 39 0;
#X connect 21 0 41 0;
#X connect 22 0 19 1;
#X connect 23 0 19 1;
#X connect 27 0 11 0;
#X connect 28 0 11 1;
#X connect 29 0 11 2;
#X connect 33 0 105 0;
#X connect 35 0 36 0;
#X connect 35 0 107 0;
#X connect 36 0 37 0;
#X connect 36 0 44 0;
#X connect 36 0 69 0;
#X connect 36 0 80 1;
#X connect 45 0 83 0;
#X connect 46 0 17 0;
#X connect 46 0 13 1;
#X connect 47 0 46 1;
#X connect 48 0 49 0;
#X connect 48 1 50 0;
#X connect 49 0 46 1;
#X connect 49 0 47 1;
#X connect 50 0 47 1;
#X connect 51 0 48 0;
#X connect 53 0 52 0;
#X connect 54 0 31 0;
#X connect 55 0 54 0;
#X connect 55 0 13 0;
#X connect 56 0 55 1;
#X connect 57 0 58 0;
#X connect 57 1 59 0;
#X connect 58 0 55 1;
#X connect 58 0 56 1;
#X connect 59 0 56 1;
#X connect 60 0 57 0;
#X connect 61 0 30 0;
#X connect 62 0 61 0;
#X connect 62 0 14 0;
#X connect 63 0 62 1;
#X connect 64 0 65 0;
#X connect 64 1 66 0;
#X connect 65 0 62 1;
#X connect 65 0 63 1;
#X connect 66 0 63 1;
#X connect 67 0 64 0;
#X connect 68 0 36 0;
#X connect 70 0 116 0;
#X connect 72 0 20 1;
#X connect 73 0 16 1;
#X connect 74 0 0 1;
#X connect 75 0 4 1;
#X connect 76 0 6 1;
#X connect 79 0 80 0;
#X connect 80 0 78 0;
#X connect 81 0 82 0;
#X connect 83 0 1 0;
#X connect 83 0 102 0;
#X connect 84 0 98 0;
#X connect 85 0 2 0;
#X connect 85 1 5 0;
#X connect 85 2 7 0;
#X connect 87 0 85 0;
#X connect 88 0 8 0;
#X connect 88 0 46 0;
#X connect 88 0 81 0;
#X connect 89 0 55 0;
#X connect 89 0 9 0;
#X connect 89 0 81 1;
#X connect 90 0 62 0;
#X connect 90 0 10 0;
#X connect 90 0 81 2;
#X connect 91 0 33 0;
#X connect 91 1 15 1;
#X connect 91 1 92 0;
#X connect 91 1 116 2;
#X connect 91 3 3 0;
#X connect 91 3 103 0;
#X connect 91 4 84 0;
#X connect 91 5 116 3;
#X connect 93 0 91 0;
#X connect 94 0 91 0;
#X connect 95 0 115 0;
#X connect 96 0 15 1;
#X connect 97 0 33 0;
#X connect 98 0 87 1;
#X connect 98 1 83 1;
#X connect 99 0 100 0;
#X connect 100 0 111 0;
#X connect 101 0 118 0;
#X connect 103 0 116 3;
#X connect 104 0 33 0;
#X connect 105 0 71 0;
#X connect 105 0 79 0;
#X connect 105 0 116 1;
#X connect 106 0 33 0;
#X connect 106 0 33 1;
#X connect 107 0 109 0;
#X connect 107 2 96 0;
#X connect 107 3 97 0;
#X connect 107 4 106 0;
#X connect 107 5 108 0;
#X connect 108 0 64 0;
#X connect 108 0 57 0;
#X connect 108 0 48 0;
#X connect 109 0 3 0;
#X connect 110 0 43 0;
#X connect 111 0 110 1;
#X connect 111 0 81 3;
#X connect 112 0 113 0;
#X connect 113 0 111 1;
#X connect 114 0 91 0;
#X connect 115 0 83 0;
#X connect 115 1 83 0;
#X connect 116 0 77 0;
