#N canvas 257 22 640 813 10;
#X declare -path mtl;
#X declare -lib iem_tab;
#X obj 60 61 gemhead;
#X text 264 249 x y z;
#N canvas 496 267 494 344 META 0;
#X text 12 25 LICENSE LGPL v2.1;
#X text 12 5 KEYWORDS geometric points 3d movement;
#X text 14 99 INLET_1 floats (3);
#X text 14 119 INLET_2 floats (3);
#X text 17 142 OUTLET_0 features;
#X text 18 165 AUTHOR Luiz Naveda;
#X text 15 185 WEBSITE http://naveda.info;
#X text 15 204 HELP_PATCH_AUTHORS "pd meta" information added by Luiz
Naveda for 0.43.4-extended;
#X text 14 79 INLET_0 gemlist and control;
#X text 12 45 DESCRIPTION Extracts geometrical features between two
3d points;
#X restore 540 775 pd META;
#X obj 40 493 cnv 3 550 3 empty \$0-pddp.cnv.inlets inlets 8 12 0 13
-228856 -1 0;
#X obj 44 561 cnv 3 550 3 empty \$0-pddp.cnv.outlets outlets 8 12 0
13 -228856 -1 0;
#X obj 44 632 cnv 3 550 3 empty \$0-pddp.cnv.argument arguments 8 12
0 13 -228856 -1 0;
#X obj 44 748 cnv 3 550 3 empty \$0-pddp.cnv.more_info more_info 8
12 0 13 -228856 -1 0;
#N canvas 246 467 428 109 Related_objects 0;
#X obj 0 0 cnv 15 425 20 empty \$0-pddp.cnv.subheading empty 3 12 0
14 -204280 -1 0;
#X text 6 1 Related Objects;
#X restore 353 775 pd Related_objects;
#X obj 56 2 cnv 15 552 40 empty cnv.header topos.rel.pointRegion 3
12 0 18 -204280 -1 0;
#N canvas 398 460 504 212 guts 0;
#X msg 79 104 cnv.header vis_size 650 60;
#X msg 81 65 \; cnv.header label topos.rel.pointRegion;
#X restore 477 775 pd guts;
#X text 407 24 Topos Library;
#X text 496 25 http://naveda.info;
#N canvas 498 84 450 300 random 0;
#X obj 126 38 ii 1;
#X obj 159 40 tgl 15 0 empty empty empty 17 7 0 10 -262144 -1 -1 1
1;
#X obj 127 140 line;
#X msg 127 119 \$1 1000;
#X obj 137 150 line;
#X msg 137 129 \$1 1000;
#X obj 147 160 line;
#X msg 147 139 \$1 1000;
#X obj 132 273 outlet;
#X obj 130 197 - 3;
#X obj 140 207 - 3;
#X obj 150 217 - 3;
#X obj 127 94 random 6;
#X obj 138 105 random 6;
#X obj 147 114 random 6;
#X floatatom 222 86 5 0 0 0 - - -;
#X obj 217 131 / 2;
#X obj 257 236 color 0 0 0;
#X obj 131 245 pack f f 0;
#X obj 297 110 gemhead;
#X obj 369 115 tgl 15 0 empty empty empty 17 7 0 10 -262144 -1 -1 0
1;
#X obj 298 147 spigot 1;
#X obj 200 261 / 5;
#X obj 256 209 translateXYZ 0 0 0;
#X obj 261 69 ii 3;
#X obj 258 260 sphere 0.2;
#X obj 126 64 metro 200;
#X connect 0 0 26 0;
#X connect 1 0 26 0;
#X connect 2 0 9 0;
#X connect 3 0 2 0;
#X connect 4 0 10 0;
#X connect 5 0 4 0;
#X connect 6 0 11 0;
#X connect 7 0 6 0;
#X connect 9 0 18 0;
#X connect 9 0 23 1;
#X connect 10 0 22 0;
#X connect 10 0 23 2;
#X connect 12 0 3 0;
#X connect 13 0 5 0;
#X connect 14 0 7 0;
#X connect 15 0 14 1;
#X connect 15 0 13 1;
#X connect 15 0 12 1;
#X connect 15 0 16 0;
#X connect 16 0 11 1;
#X connect 16 0 10 1;
#X connect 16 0 9 1;
#X connect 17 0 25 0;
#X connect 18 0 8 0;
#X connect 19 0 21 0;
#X connect 20 0 21 1;
#X connect 21 0 23 0;
#X connect 22 0 18 1;
#X connect 23 0 17 0;
#X connect 24 0 15 0;
#X connect 26 0 12 0;
#X connect 26 0 13 0;
#X connect 26 0 14 0;
#X restore 272 219 pd random movement generator;
#N canvas 498 84 450 300 random 0;
#X obj 126 38 ii 1;
#X obj 159 40 tgl 15 0 empty empty empty 17 7 0 10 -262144 -1 -1 0
1;
#X obj 127 140 line;
#X msg 127 119 \$1 1000;
#X obj 141 151 line;
#X msg 137 129 \$1 1000;
#X obj 147 160 line;
#X msg 147 139 \$1 1000;
#X obj 132 273 outlet;
#X obj 130 197 - 3;
#X obj 146 201 - 3;
#X obj 202 182 - 3;
#X obj 127 94 random 6;
#X obj 138 105 random 6;
#X obj 147 114 random 6;
#X floatatom 222 86 5 0 0 0 - - -;
#X obj 217 131 / 2;
#X obj 264 154 gemhead;
#X obj 267 246 color 1 0 0;
#X obj 128 245 pack f f 0;
#X obj 126 64 metro 500;
#X obj 336 159 tgl 15 0 empty empty empty 17 7 0 10 -262144 -1 -1 0
1;
#X obj 262 70 ii 14;
#X obj 268 225 translateXYZ 0 0 0;
#X obj 265 191 spigot 0;
#X obj 268 271 sphere 0.2;
#X connect 0 0 20 0;
#X connect 1 0 20 0;
#X connect 2 0 9 0;
#X connect 3 0 2 0;
#X connect 4 0 10 0;
#X connect 5 0 4 0;
#X connect 6 0 11 0;
#X connect 7 0 6 0;
#X connect 9 0 19 0;
#X connect 9 0 23 1;
#X connect 10 0 23 2;
#X connect 10 0 19 1;
#X connect 12 0 3 0;
#X connect 13 0 5 0;
#X connect 14 0 7 0;
#X connect 15 0 14 1;
#X connect 15 0 13 1;
#X connect 15 0 12 1;
#X connect 15 0 16 0;
#X connect 16 0 11 1;
#X connect 16 0 10 1;
#X connect 16 0 9 1;
#X connect 17 0 24 0;
#X connect 18 0 25 0;
#X connect 19 0 8 0;
#X connect 20 0 12 0;
#X connect 20 0 13 0;
#X connect 20 0 14 0;
#X connect 21 0 24 1;
#X connect 22 0 15 0;
#X connect 23 0 18 0;
#X connect 24 0 23 0;
#X restore 395 157 pd random movement generator;
#X obj 358 49 topos.gemwin;
#X text 55 294 gemlist;
#X text 122 537 2 - LIST 3 x FLOATS: X Y Z coordinates;
#X text 122 518 1 - gemlist and control messages;
#X text 140 644 1 - symbolic link (used for broadcasting features;
#X floatatom 281 293 5 0 0 0 - - -;
#X obj 157 345 route distanceFrom;
#X obj 174 302 route state;
#X obj 156 365 pddp/print;
#X obj 112 417 pddp/print;
#X obj 67 460 pddp/print;
#X floatatom 173 326 5 0 0 0 - - -;
#X text 67 78 gemhead (optional) allows visual/debug inspection.;
#X text 261 367 actual distance between the 2 points;
#X obj 497 4 topos.rel.points;
#X obj 342 158 gemhead;
#X obj 343 188 topos RG d 100 10;
#X obj 62 271 topos.rel.pointRegion PR data RG 0.4;
#X text 349 131 REGION TOPOS;
#N canvas 1044 219 450 300 sending 0;
#X text 67 54 There are two ways to send the 3D data (x y z):;
#X text 82 71 -symbolic links (receives) that captures the lists internally
(ex: point2);
#X text 77 99 -lists sent to the 2nd (point1) and 3rd (point 2) inlets
;
#X restore 403 278 pd sending data;
#N canvas 680 301 450 300 debug 0;
#X msg -10 8 debug 1;
#X msg -3 29 debug 0;
#X msg 2 54 debug color 0 0 0;
#X msg 7 80 debug alpha 0.5;
#X msg 9 105 debug size 4;
#X obj -18 156 outlet;
#X obj 64 12 loadbang;
#X connect 0 0 5 0;
#X connect 1 0 5 0;
#X connect 2 0 5 0;
#X connect 3 0 5 0;
#X connect 4 0 5 0;
#X connect 6 0 0 0;
#X restore 75 242 pd debug control;
#X msg 75 169 regionThreshold 0.4;
#X msg 72 111 pointThreshold 0.2;
#X obj 849 446 pp hitRegion;
#X obj 941 449 pp regionVelocity;
#X obj 115 398 route collision;
#X obj 66 438 route pointVel;
#X obj 275 397 route minDistance;
#X floatatom 277 418 5 0 0 0 - - -;
#X text 140 664 2 - receive the X Y Z coordinates (as in the 2nd inlet)
;
#X text 139 685 3 - Symbolic link of the target [topos] region;
#X text 139 705 4 - Threshold for interaction between points and point
in the point cloud;
#X obj 274 447 route hitRegion;
#X obj 273 470 pddp/print;
#X text 57 25 Detects relationships between 3D points and point clouds
;
#X text 152 573 1 - gemlist and control messages;
#X text 152 592 2 - LIST : Features;
#X text 152 610 3 - INTEGER: ID;
#X connect 0 0 31 0;
#X connect 12 0 31 1;
#X connect 13 0 30 1;
#X connect 20 0 22 0;
#X connect 21 0 25 0;
#X connect 29 0 30 0;
#X connect 31 1 21 0;
#X connect 31 1 20 0;
#X connect 31 1 39 0;
#X connect 31 1 40 0;
#X connect 31 1 41 0;
#X connect 31 1 46 0;
#X connect 31 2 19 0;
#X connect 34 0 31 0;
#X connect 35 0 31 0;
#X connect 36 0 31 0;
#X connect 39 0 23 0;
#X connect 40 0 24 0;
#X connect 41 0 42 0;
#X connect 46 0 47 0;
