#N canvas 29 27 583 737 10;
#X obj 16 341 sphere 0.1;
#X obj 15 294 translateXYZ;
#X obj 13 268 gemhead;
#X obj 15 318 color 0 0 0;
#X obj 208 306 topos.geo.displacement;
#X floatatom 207 339 5 0 0 0 - - -;
#X obj 203 255 pack f f f;
#N canvas 498 84 450 300 random 0;
#X obj 126 64 metro 1000;
#X obj 126 38 ii 1;
#X obj 159 40 tgl 15 0 empty empty empty 17 7 0 10 -262144 -1 -1 0
1;
#X obj 127 140 line;
#X msg 127 119 \$1 1000;
#X obj 137 150 line;
#X msg 137 129 \$1 1000;
#X obj 147 160 line;
#X msg 147 139 \$1 1000;
#X obj 128 245 pack f f f;
#X obj 132 273 outlet;
#X obj 130 197 - 3;
#X obj 140 207 - 3;
#X obj 150 217 - 3;
#X obj 127 94 random 6;
#X obj 138 105 random 6;
#X obj 147 114 random 6;
#X floatatom 222 86 5 0 0 0 - - -;
#X obj 217 131 / 2;
#X obj 261 70 ii 10;
#X connect 0 0 14 0;
#X connect 0 0 15 0;
#X connect 0 0 16 0;
#X connect 1 0 0 0;
#X connect 2 0 0 0;
#X connect 3 0 11 0;
#X connect 4 0 3 0;
#X connect 5 0 12 0;
#X connect 6 0 5 0;
#X connect 7 0 13 0;
#X connect 8 0 7 0;
#X connect 9 0 10 0;
#X connect 11 0 9 0;
#X connect 12 0 9 1;
#X connect 13 0 9 2;
#X connect 14 0 4 0;
#X connect 15 0 6 0;
#X connect 16 0 8 0;
#X connect 17 0 16 1;
#X connect 17 0 15 1;
#X connect 17 0 14 1;
#X connect 17 0 18 0;
#X connect 18 0 13 1;
#X connect 18 0 12 1;
#X connect 18 0 11 1;
#X connect 19 0 17 0;
#X restore 72 156 pd random movement generator;
#X obj 72 181 unpack f f f;
#X floatatom 71 207 5 0 0 0 - - -;
#X floatatom 108 207 5 0 0 0 - - -;
#X floatatom 141 208 5 0 0 0 - - -;
#X obj 319 115 topos.gemwin;
#X obj 3 421 cnv 3 550 3 empty \$0-pddp.cnv.inlets inlets 8 12 0 13
-228856 -1 0;
#X obj 7 493 cnv 3 550 3 empty \$0-pddp.cnv.outlets outlets 8 12 0
13 -228856 -1 0;
#X obj 7 550 cnv 3 550 3 empty \$0-pddp.cnv.argument arguments 8 12
0 13 -228856 -1 0;
#X obj 7 626 cnv 3 550 3 empty \$0-pddp.cnv.more_info more_info 8 12
0 13 -228856 -1 0;
#N canvas 246 467 428 109 Related_objects 0;
#X obj 0 0 cnv 15 425 20 empty \$0-pddp.cnv.subheading empty 3 12 0
14 -204280 -1 0;
#X text 6 1 Related Objects;
#X restore 316 693 pd Related_objects;
#X obj 17 14 cnv 15 552 40 empty cnv.header topos.geo.displacement
3 12 0 18 -204280 -1 0;
#N canvas 496 267 494 344 META 0;
#X text 12 25 LICENSE LGPL v2.1;
#X text 18 165 AUTHOR Luiz Naveda;
#X text 15 185 WEBSITE http://naveda.info;
#X text 15 204 HELP_PATCH_AUTHORS "pd meta" information added by Luiz
Naveda for 0.43.4-extended;
#X text 12 5 KEYWORDS;
#X text 12 45 DESCRIPTION;
#X text 14 79 INLET_0;
#X text 14 99 INLET_1;
#X text 14 119 INLET_2;
#X text 17 142 OUTLET_0;
#X restore 491 694 pd META;
#N canvas 317 454 504 212 guts 0;
#X msg 79 104 cnv.header vis_size 650 60;
#X msg 81 65 \; cnv.header label topos.geo.displacement;
#X restore 440 693 pd guts;
#X text 357 38 Topos Library;
#X text 455 38 http://naveda.info;
#X text 93 514 1 - FLOAT: the result;
#X text 19 37 Calculates the frame-by-frame displacement of 3d points
;
#X msg 243 283 reset;
#X text 91 441 1 - LIST OF 3 FLOATS (xyz) and control. A message [reset(
to the inlet restarts the calculation of total displacement from 0
;
#X text 22 66 Calculates the frame-by-frame displacement of 3d points
(3 floats \, x y z). It calculates the Euclidean distance between sucessive
frames and accumulates it.;
#X obj 429 18 topos.geo.displacement;
#X connect 1 0 3 0;
#X connect 2 0 1 0;
#X connect 3 0 0 0;
#X connect 4 0 5 0;
#X connect 6 0 4 0;
#X connect 7 0 8 0;
#X connect 8 0 9 0;
#X connect 8 1 10 0;
#X connect 8 2 11 0;
#X connect 9 0 6 0;
#X connect 9 0 1 1;
#X connect 10 0 6 1;
#X connect 10 0 1 2;
#X connect 11 0 6 2;
#X connect 11 0 1 3;
#X connect 25 0 4 0;
