#N canvas 391 93 1358 917 10;
#X declare -lib iem_tab;
#X obj 225 -157 inlet;
#X obj 155 -93 unpack f f;
#X obj -23 166 translateXYZ;
#X obj 112 281 line;
#X obj 41 109 line;
#X obj -19 -158 inlet;
#X obj 121 38 bng 15 250 50 0 empty empty empty 17 7 0 10 -262144 -1
-1;
#X floatatom 122 306 5 0 0 0 - - -;
#X floatatom 45 130 5 0 0 0 - - -;
#X obj -25 55 spigot 0;
#X obj 46 14 select 1 0;
#X msg 102 217 0 300;
#X obj 197 107 tabread \$0-xlive;
#X obj 199 127 tabread \$0-ylive;
#X obj 200 148 tabread \$0-zlive;
#X obj 202 173 pack f f f;
#X obj 204 198 any;
#X obj 186 74 any;
#X msg 297 87 set \$1-xlive;
#X msg 320 110 set \$1-ylive;
#X msg 344 133 set \$1-zlive;
#X obj 310 42 f;
#X obj 306 16 change;
#X obj 296 400 mtl/3dDistance;
#X obj 271 217 list-enumerate;
#X obj 271 237 unpack f f;
#X obj 292 165 bng 15 250 50 0 empty empty empty 17 7 0 10 -262144
-1 -1;
#X obj 295 373 pack f f f;
#X obj 449 131 t b a;
#X obj 290 346 f;
#X obj 465 300 bng 15 250 50 0 empty empty empty 0 -6 0 8 -262144 -1
-1;
#X floatatom 513 297 5 0 0 0 - - -;
#X floatatom 594 304 5 0 0 0 - - -;
#X text 574 329 min;
#X text 505 328 min_index;
#X obj 271 263 t b b b f f f;
#X obj 264 190 tabdump \$0-xlive;
#X obj 300 444 tabwrite \$0-dist;
#X obj 316 467 table \$0-dist;
#X obj 986 66 loadbang;
#X obj 1030 110 \$0;
#X obj 1150 542 outlet IDnumber;
#X obj 465 271 tab_min_index \$0-dist;
#X obj 648 1 inlet;
#X obj 163 303 list-len;
#X floatatom 170 347 5 0 0 0 - - -;
#X obj 165 366 pack f \$0;
#X msg 164 386 \; \$2-dist resize \$1 \;;
#X obj 170 325 change;
#X obj -25 15 separator;
#X obj 715 551 pp minDistance;
#X obj 322 299 tabread \$0-ylive;
#X obj 348 330 tabread \$0-zlive;
#X obj 261 545 pp distanceFrom;
#X obj 265 471 bang;
#X obj 267 495 tabdump \$0-dist;
#X msg 53 409 draw line;
#X msg 41 455 draw point;
#X floatatom 66 529 5 0 0 0 - - -;
#X floatatom 100 529 5 0 0 0 - - -;
#X msg 43 484 draw fill;
#X floatatom 93 245 5 0 0 0 - - -;
#X obj -25 260 rotateXYZ;
#X obj -6 216 random 180;
#X obj 4 226 random 180;
#X obj 28 234 random 180;
#X obj 158 -46 t b f b;
#X obj 220 -60 bng 15 250 50 0 empty empty empty 17 7 0 10 -262144
-1 -1;
#X obj -19 562 sphere 1 50;
#X obj 54 431 loadbang;
#X text 556 -82 comment;
#X obj 622 24 > 0.1;
#X obj 593 551 pp gateExplosion;
#X obj 1064 169 s interact/\$1/ID;
#X obj 969 86 \$4;
#X symbolatom 698 8 72 0 0 0 - - -;
#X obj 654 78 list-minmax;
#X obj 696 106 / 2;
#X obj 868 398 f;
#X obj 945 336 delta;
#X obj 930 398 f;
#X floatatom 925 439 5 0 0 0 - - -;
#X floatatom 866 420 5 0 0 0 - - -;
#X obj 929 417 abs;
#X obj 892 359 t b b;
#X obj 869 464 pack f f;
#X obj 904 283 threshold 0.4 10 0.4 10;
#X obj 908 311 bng 15 250 50 0 empty empty empty 17 7 0 10 -262144
-1 -1;
#X obj 1040 325 bng 15 250 50 0 empty empty empty 17 7 0 10 -262144
-1 -1;
#X msg 909 255 set \$1 10 \$1 10;
#X obj 928 549 pp hitRegion;
#X obj 809 551 pp posCollision;
#X obj 840 657 s topos.rel/\$1/bang;
#X obj 433 -83 topos.features \$3;
#X obj 342 -141 r topos/\$3/ID;
#X obj 541 617 s topos.rel/\$1/features;
#X obj 543 590 any;
#X obj 492 664 outlet features;
#X obj 439 -133 r \$2;
#X obj 91 -39 tgl 15 0 empty empty empty 17 7 0 10 -262144 -1 -1 0
1;
#X obj -23 372 scaleXYZ 1 1 1;
#X obj -23 101 alpha;
#X obj 49 -14 route float symbol;
#X obj 691 257 threshold 0.4 10 0.4 10;
#X msg 696 229 set \$1 10 \$1 10;
#X obj 433 -57 route volume xyzRange meanPosition speed getPosPoint
;
#X obj -18 -89 route distanceFrom;
#X obj -13 -135 route get debug debugThreshold regionThreshold pointThreshold
;
#X obj 507 -147 inlet point;
#X obj 692 279 bng 15 250 50 0 empty empty empty 17 7 0 10 -262144
-1 -1;
#X obj 825 282 bng 15 250 50 0 empty empty empty 17 7 0 10 -262144
-1 -1;
#X obj 785 87 init \$5;
#X obj 905 159 spigot;
#X obj 939 135 == 0;
#X obj 992 145 > 0;
#X obj 964 110 t f f;
#X obj 964 172 spigot;
#X obj 830 150 > 0;
#X obj 802 115 t f f;
#X obj 802 177 spigot;
#X obj 777 140 <= 0;
#X obj 743 164 spigot 1;
#X obj 658 108 / 10;
#X obj 468 371 private/_displacement;
#X obj 663 399 f;
#X obj 755 386 delta;
#X obj 725 399 f;
#X floatatom 733 437 5 0 0 0 - - -;
#X floatatom 661 421 5 0 0 0 - - -;
#X obj 724 418 abs;
#X obj 687 360 t b b;
#X obj 662 446 pack f f;
#X msg 939 626 point \$1 \$2;
#X msg 862 625 region \$1;
#X obj 162 21 spigot 1;
#X obj -20 325 colorRGB 0 1 0.5 1;
#X msg 45 78 0.6 \, 0 1200;
#X obj 5 293 unpack f f f;
#X obj 154 181 f 0.2;
#X msg 150 221 \$1 \, 0 400;
#X obj 124 154 loadbang;
#X obj 1019 544 pp regionVelocity;
#X obj 482 95 route data;
#X obj -8 -59 route size color float;
#X obj 510 551 pp pointVel;
#X obj 698 27 private/_documentation changeLog/topos.rel.pointRegion
;
#X obj 424 549 pp collision;
#X connect 0 0 1 0;
#X connect 1 0 66 0;
#X connect 2 0 62 0;
#X connect 3 0 7 0;
#X connect 3 0 100 1;
#X connect 3 0 100 2;
#X connect 3 0 100 3;
#X connect 4 0 8 0;
#X connect 5 0 107 0;
#X connect 6 0 136 0;
#X connect 6 0 138 0;
#X connect 8 0 135 4;
#X connect 9 0 101 0;
#X connect 10 0 136 0;
#X connect 10 1 11 0;
#X connect 11 0 3 0;
#X connect 12 0 15 0;
#X connect 12 0 2 1;
#X connect 13 0 15 1;
#X connect 13 0 2 2;
#X connect 14 0 15 2;
#X connect 14 0 2 3;
#X connect 15 0 16 0;
#X connect 16 0 91 0;
#X connect 17 0 12 0;
#X connect 17 0 13 0;
#X connect 17 0 14 0;
#X connect 18 0 12 0;
#X connect 18 0 36 0;
#X connect 19 0 13 0;
#X connect 19 0 51 0;
#X connect 20 0 14 0;
#X connect 20 0 52 0;
#X connect 21 0 18 0;
#X connect 21 0 19 0;
#X connect 21 0 20 0;
#X connect 22 0 21 0;
#X connect 23 0 37 0;
#X connect 23 0 54 0;
#X connect 24 0 25 0;
#X connect 24 1 42 0;
#X connect 25 0 35 0;
#X connect 25 1 29 1;
#X connect 26 0 36 0;
#X connect 27 0 23 0;
#X connect 28 0 36 0;
#X connect 28 1 23 1;
#X connect 28 1 123 0;
#X connect 29 0 27 0;
#X connect 31 0 78 1;
#X connect 31 0 124 1;
#X connect 32 0 50 0;
#X connect 32 0 86 0;
#X connect 32 0 103 0;
#X connect 35 2 29 0;
#X connect 35 3 51 0;
#X connect 35 4 52 0;
#X connect 35 5 37 1;
#X connect 36 0 24 0;
#X connect 36 0 44 0;
#X connect 39 0 40 0;
#X connect 39 0 74 0;
#X connect 40 0 41 0;
#X connect 40 0 73 0;
#X connect 42 0 30 0;
#X connect 42 1 31 0;
#X connect 42 2 32 0;
#X connect 44 0 48 0;
#X connect 45 0 46 0;
#X connect 46 0 47 0;
#X connect 48 0 45 0;
#X connect 49 0 9 0;
#X connect 50 0 96 0;
#X connect 51 0 27 1;
#X connect 52 0 27 2;
#X connect 53 0 96 0;
#X connect 54 0 55 0;
#X connect 55 0 53 0;
#X connect 56 0 68 0;
#X connect 57 0 68 0;
#X connect 58 0 68 1;
#X connect 59 0 68 2;
#X connect 60 0 68 0;
#X connect 61 0 3 0;
#X connect 62 0 135 0;
#X connect 63 0 62 1;
#X connect 64 0 62 2;
#X connect 65 0 62 3;
#X connect 66 0 134 0;
#X connect 66 1 17 0;
#X connect 66 2 63 0;
#X connect 66 2 64 0;
#X connect 66 2 65 0;
#X connect 67 0 66 0;
#X connect 69 0 60 0;
#X connect 71 0 72 0;
#X connect 72 0 96 0;
#X connect 74 0 115 0;
#X connect 75 0 145 0;
#X connect 76 1 77 0;
#X connect 76 1 122 0;
#X connect 77 0 112 0;
#X connect 78 0 82 0;
#X connect 79 0 80 1;
#X connect 80 0 83 0;
#X connect 81 0 85 1;
#X connect 81 0 133 0;
#X connect 81 0 141 0;
#X connect 82 0 85 0;
#X connect 83 0 81 0;
#X connect 84 0 78 0;
#X connect 84 1 80 0;
#X connect 85 0 90 0;
#X connect 86 0 87 0;
#X connect 86 1 88 0;
#X connect 87 0 84 0;
#X connect 89 0 86 0;
#X connect 90 0 96 0;
#X connect 91 0 96 0;
#X connect 93 0 105 0;
#X connect 94 0 22 0;
#X connect 96 0 95 0;
#X connect 96 0 97 0;
#X connect 98 0 142 0;
#X connect 99 0 102 0;
#X connect 100 0 68 0;
#X connect 101 0 2 0;
#X connect 102 0 9 1;
#X connect 102 0 10 0;
#X connect 103 0 109 0;
#X connect 103 1 110 0;
#X connect 104 0 103 0;
#X connect 105 1 76 0;
#X connect 105 3 71 0;
#X connect 105 5 102 0;
#X connect 107 0 106 0;
#X connect 107 1 143 0;
#X connect 107 3 115 0;
#X connect 107 4 118 0;
#X connect 107 5 49 0;
#X connect 108 0 142 0;
#X connect 109 0 130 0;
#X connect 111 0 118 0;
#X connect 112 0 89 0;
#X connect 113 0 112 1;
#X connect 114 0 116 1;
#X connect 115 0 116 0;
#X connect 115 1 114 0;
#X connect 115 1 113 0;
#X connect 116 0 89 0;
#X connect 117 0 119 1;
#X connect 118 0 119 0;
#X connect 118 1 117 0;
#X connect 118 1 120 0;
#X connect 119 0 104 0;
#X connect 120 0 121 1;
#X connect 121 0 104 0;
#X connect 122 0 121 0;
#X connect 123 0 79 0;
#X connect 123 0 125 0;
#X connect 124 0 128 0;
#X connect 125 0 126 1;
#X connect 126 0 129 0;
#X connect 127 0 131 1;
#X connect 127 0 144 0;
#X connect 128 0 131 0;
#X connect 129 0 127 0;
#X connect 130 0 124 0;
#X connect 130 1 126 0;
#X connect 131 0 132 0;
#X connect 131 0 1 0;
#X connect 131 0 146 0;
#X connect 132 0 92 0;
#X connect 133 0 92 0;
#X connect 134 0 6 0;
#X connect 135 0 100 0;
#X connect 136 0 4 0;
#X connect 137 0 135 1;
#X connect 137 1 135 2;
#X connect 137 2 135 3;
#X connect 138 0 139 0;
#X connect 139 0 3 0;
#X connect 140 0 138 0;
#X connect 141 0 96 0;
#X connect 142 0 28 0;
#X connect 142 1 28 0;
#X connect 143 0 138 1;
#X connect 143 1 137 0;
#X connect 143 2 134 1;
#X connect 143 3 68 0;
#X connect 144 0 96 0;
#X connect 146 0 96 0;
