#N canvas 675 61 1034 806 10;
#X obj 65 133 inlet;
#X obj 70 589 list prepend add;
#X obj 167 522 timer;
#X obj 421 146 loadbang;
#X obj 72 561 list prepend;
#X obj 165 250 tgl 15 0 empty empty empty 17 7 0 10 -262144 -1 -1 0
1;
#X obj 170 290 select 0 1;
#X obj 677 580 symbol \$2;
#X msg 457 334 clear;
#X msg 360 356 1;
#X msg 127 326 0;
#X obj 76 388 spigot;
#X obj 424 172 symbol \$1;
#X msg 138 134 play;
#X obj 603 478 symbol \$2;
#X obj 586 231 openpanel;
#X obj 589 200 route bang;
#X obj 688 239 symbol;
#X msg 118 232 1;
#X obj 487 222 route bang f;
#X msg 385 204 0;
#X obj 115 207 route bang float;
#X obj 222 648 outlet;
#X obj 288 614 accum;
#X obj 285 573 t b f;
#X msg 240 574 set 0;
#X obj 494 667 s recLabel;
#X obj 486 499 symbol \$2;
#X obj 447 636 s recCommand;
#X obj 459 476 t f b;
#X obj 278 645 s recTimer;
#X obj 123 690 bng 15 250 50 0 empty empty empty 17 7 0 10 -262144
-1 -1;
#X obj 628 313 spigot 0;
#X msg 601 501 read \$1 \, bang;
#X msg 673 601 write \$1;
#X obj 37 640 bng 15 250 50 0 empty empty empty 17 7 0 10 -262144 -1
-1;
#X msg 537 336 rewind;
#X msg 754 386 symbol untitled;
#X obj 817 296 loadbang;
#X obj 112 163 route record play pause stop load loop write;
#X obj 521 363 route symbol;
#X obj 875 351 bng 15 250 50 0 empty empty empty 17 7 0 10 -262144
-1 -1;
#X obj 866 385 getdir 1;
#X obj 887 516 makesymbol %s/%s;
#X obj 887 493 prepend;
#X obj 745 453 makesymbol %s/%s;
#X obj 747 429 prepend;
#X obj 818 331 t b b;
#X symbolatom 577 139 72 0 0 0 - - -;
#X obj 576 164 _documentation changeLog/topos.rec;
#X obj 575 660 pddp/print;
#X msg 150 699 print;
#N canvas 614 68 982 597 arrays 0;
#X obj 185 214 table \$0-head 100;
#X obj 174 342 table \$0-torso 100;
#X obj 278 24 bng 15 250 50 0 empty empty empty 0 -6 0 8 -262144 -1
-1;
#X floatatom 277 95 5 0 0 0 - - -;
#X text 273 109 array size;
#X obj 278 71 tab_get_size \$0-head;
#X msg 510 148 l_hip l_knee l_foot r_hip r_knee r_foot torso neck head
l_shoulder l_elbow l_hand r_shoulder r_elbow r_hand;
#X msg 570 52 lefthip leftknee leftfoot righthip rightknee rightfoot
torso neck head leftshoulder leftelbow lefthand rightshoulder rightelbow
righthand;
#X obj 188 258 table \$0-neck 100;
#X obj 292 286 table \$0-r_shoulder 100;
#X obj 367 312 table \$0-r_elbow 100;
#X obj 443 337 table \$0-r_hand 100;
#X obj -31 342 table \$0-l_hand 100;
#X obj 83 290 table \$0-l_shoulder 100;
#X obj 27 311 table \$0-l_elbow 100;
#X obj 232 409 table \$0-r_hip 100;
#X obj 226 447 table \$0-r_knee 100;
#X obj 231 494 table \$0-r_foot 100;
#X obj 98 492 table \$0-l_foot 100;
#X obj 93 445 table \$0-l_knee 100;
#X obj 99 407 table \$0-l_hip 100;
#X obj 508 116;
#X obj 562 415 private/_arraysX;
#X obj 666 416 private/_arraysY;
#X obj 779 415 private/_arraysZ;
#X obj 611 239 r \$0-arr;
#X obj 622 334 tabwrite;
#X msg 633 310 set \$1;
#X connect 2 0 5 0;
#X connect 5 0 3 0;
#X connect 25 0 22 0;
#X restore 874 204 pd arrays;
#X obj 291 101 bng 8 250 50 0 empty empty empty 17 7 0 5 -4034 -1 -1
;
#X obj 354 71 speedlim 400;
#X obj 478 101 bng 8 250 50 0 empty empty empty 17 7 0 5 -258113 -1
-1;
#X obj 448 70 speedlim 400;
#X msg 290 696 add size \$1;
#X msg 292 674 1456;
#X obj 453 695 route size;
#X obj 74 411 trigger bang anything bang bang;
#X obj 261 450 f+;
#X msg 307 399 0;
#X obj 162 329 t b a b b b b b b b;
#X floatatom 260 476 5 0 0 0 - - -;
#X msg 191 137 record \$1;
#X obj 224 118 tgl 15 0 empty empty empty 17 7 0 10 -262144 -1 -1 0
1;
#X obj 286 526 >;
#X obj 346 477 t b b;
#X obj 345 504 timer;
#X floatatom 351 526 5 0 0 0 - - -;
#X obj 335 416 any;
#X obj 337 439 unpack f s;
#X obj 400 459 sel torso;
#X obj 347 550 bang;
#X obj 70 637 pp add;
#X obj 577 81 inlet messages;
#X obj 70 616 pp data;
#X obj 75 767 print a;
#X msg 402 589 rewind;
#X obj 76 730 route data;
#X obj 142 765 s \$0-arr;
#X obj 325 774 msgfile;
#X obj 65 662 msgfile;
#X msg 15 685 flush;
#X obj 79 710 list trim;
#X msg 20 617 next;
#X connect 0 0 11 0;
#X connect 0 0 39 0;
#X connect 0 0 54 0;
#X connect 1 0 77 0;
#X connect 3 0 12 0;
#X connect 4 0 1 0;
#X connect 5 0 6 0;
#X connect 5 0 29 0;
#X connect 6 0 10 0;
#X connect 6 0 25 0;
#X connect 6 1 63 0;
#X connect 7 0 34 0;
#X connect 8 0 83 0;
#X connect 9 0 11 1;
#X connect 10 0 11 1;
#X connect 11 0 60 0;
#X connect 11 0 71 0;
#X connect 13 0 39 0;
#X connect 14 0 33 0;
#X connect 15 0 14 1;
#X connect 15 0 7 1;
#X connect 16 0 15 0;
#X connect 16 1 17 0;
#X connect 17 0 7 1;
#X connect 17 0 14 1;
#X connect 18 0 5 0;
#X connect 19 0 20 0;
#X connect 19 0 36 0;
#X connect 19 0 8 0;
#X connect 20 0 5 0;
#X connect 21 0 18 0;
#X connect 21 1 5 0;
#X connect 23 0 22 0;
#X connect 23 0 30 0;
#X connect 24 0 23 0;
#X connect 24 1 23 1;
#X connect 25 0 23 0;
#X connect 27 0 26 0;
#X connect 29 0 28 0;
#X connect 29 1 27 0;
#X connect 32 0 14 0;
#X connect 33 0 83 0;
#X connect 34 0 50 0;
#X connect 34 0 83 0;
#X connect 35 0 83 0;
#X connect 36 0 83 0;
#X connect 37 0 46 0;
#X connect 38 0 47 0;
#X connect 39 0 21 0;
#X connect 39 1 14 0;
#X connect 39 3 19 0;
#X connect 39 4 16 0;
#X connect 39 5 32 1;
#X connect 39 6 40 0;
#X connect 40 0 34 0;
#X connect 40 1 44 0;
#X connect 41 0 42 0;
#X connect 42 0 44 1;
#X connect 42 0 46 1;
#X connect 43 0 7 0;
#X connect 44 0 43 0;
#X connect 45 0 14 0;
#X connect 45 0 7 0;
#X connect 46 0 45 0;
#X connect 47 0 37 0;
#X connect 47 1 42 0;
#X connect 48 0 49 0;
#X connect 51 0 83 0;
#X connect 54 0 53 0;
#X connect 56 0 55 0;
#X connect 57 0 83 0;
#X connect 58 0 57 0;
#X connect 60 0 2 0;
#X connect 60 1 4 0;
#X connect 60 2 2 1;
#X connect 61 0 64 0;
#X connect 62 0 61 1;
#X connect 63 4 9 0;
#X connect 63 5 2 0;
#X connect 63 6 2 0;
#X connect 63 7 8 0;
#X connect 63 8 62 0;
#X connect 64 0 1 1;
#X connect 65 0 39 0;
#X connect 66 0 65 0;
#X connect 68 0 69 0;
#X connect 68 1 69 1;
#X connect 69 0 70 0;
#X connect 70 0 4 1;
#X connect 70 0 74 0;
#X connect 71 0 72 0;
#X connect 72 1 73 0;
#X connect 73 0 68 0;
#X connect 74 0 61 0;
#X connect 75 0 83 0;
#X connect 77 0 75 0;
#X connect 79 0 83 0;
#X connect 80 0 81 0;
#X connect 80 0 78 0;
#X connect 83 0 85 0;
#X connect 83 1 31 0;
#X connect 83 1 32 0;
#X connect 84 0 83 0;
#X connect 85 0 80 0;
#X connect 86 0 83 0;
#X coords 0 -1 1 1 200 18 1 100 100;
