#N canvas 663 105 937 710 10;
#X obj 32 -9 inlet;
#X obj 388 6 inlet;
#X obj 33 410 msgfile;
#X msg 169 139 clear;
#X obj 41 618 outlet;
#X obj 14 459 list-splat 1;
#X msg 40 356 flush;
#X floatatom 292 215 5 0 0 0 - - -;
#X obj 67 134 route float;
#X msg 128 155 1;
#X obj 66 176 any;
#X obj 415 404 pp replace;
#X obj 2 377 bng 15 250 50 0 empty empty empty 17 7 0 10 -262144 -1
-1;
#X obj 342 191 bng 15 250 50 0 empty empty empty 17 7 0 10 -262144
-1 -1;
#X obj 380 123 t b b b b b b b a b;
#X obj 415 380 pp;
#X obj 413 435 any;
#X obj -134 166 expr size("$s1");
#X obj -135 123 r topos/\$1/ID;
#X obj -134 145 makesymbol %s-xlive;
#X obj -133 194 change;
#X obj -130 276 repeat;
#X obj -128 297 f+;
#X obj -128 341 pp add;
#X obj -130 223 f;
#X obj 110 86 bng 15 250 50 0 empty empty empty 17 7 0 10 -262144 -1
-1;
#X obj -128 319 + 1;
#X obj 367 219 f;
#X msg 364 281 goto \$1;
#X obj 444 328 lister;
#X obj 257 468 spigot;
#X obj 57 78 tgl 15 0 empty empty empty 17 7 0 10 -262144 -1 -1 0 1
;
#X obj 365 257 - 1;
#X msg 228 302 goto \$1 \, this;
#X obj 30 555 route bang;
#X obj 257 238 <=;
#X obj 205 206 t f f;
#X obj 227 268 spigot;
#X obj 277 264 sel 0;
#X obj 227 619 outlet empty;
#X obj 282 104 r topos/\$1/wheel;
#X obj 289 159 change;
#X obj 233 578 print empty slot;
#X obj 266 406 print max slots=;
#X obj 284 363 f;
#X obj 304 336 bng 15 250 50 0 empty empty empty 17 7 0 10 -262144
-1 -1;
#X floatatom 210 238 5 0 0 0 - - -;
#X floatatom 326 253 5 0 0 0 - - -;
#X obj 256 208 - 1;
#X obj 29 39 route record get clear float stop write read reset flush
;
#X obj -6 327 t b b b;
#X obj 116 488 print;
#X msg 145 420 1;
#X obj 106 455 spigot;
#X msg 114 419 0;
#X obj 274 66 t b b b;
#X obj -4 297 bng 15 250 50 0 empty empty empty 17 7 0 10 -262144 -1
-1;
#X obj -46 440 print a;
#X obj 112 108 t b b b;
#X obj -134 256 t b f b;
#X floatatom 10 485 5 0 0 0 - - -;
#X floatatom 80 483 5 0 0 0 - - -;
#X obj 93 620 outlet index;
#X obj 231 6 inlet;
#X connect 0 0 49 0;
#X connect 1 0 14 0;
#X connect 2 0 5 0;
#X connect 2 0 53 0;
#X connect 2 0 57 0;
#X connect 3 0 2 0;
#X connect 5 0 60 0;
#X connect 5 1 34 0;
#X connect 5 2 61 0;
#X connect 6 0 2 0;
#X connect 8 0 10 0;
#X connect 8 1 9 0;
#X connect 9 0 10 0;
#X connect 10 0 30 1;
#X connect 11 0 16 0;
#X connect 14 5 29 0;
#X connect 14 6 27 0;
#X connect 14 7 29 1;
#X connect 15 0 11 0;
#X connect 16 0 30 0;
#X connect 17 0 20 0;
#X connect 18 0 19 0;
#X connect 19 0 17 0;
#X connect 20 0 24 1;
#X connect 20 0 24 0;
#X connect 21 0 22 0;
#X connect 22 0 26 0;
#X connect 23 0 2 0;
#X connect 24 0 44 1;
#X connect 24 0 59 0;
#X connect 24 0 48 0;
#X connect 25 0 58 0;
#X connect 26 0 23 0;
#X connect 27 0 15 1;
#X connect 27 0 32 0;
#X connect 28 0 16 0;
#X connect 29 0 15 0;
#X connect 30 0 2 0;
#X connect 31 0 8 0;
#X connect 32 0 28 0;
#X connect 33 0 2 0;
#X connect 34 0 39 0;
#X connect 34 1 4 0;
#X connect 35 0 37 1;
#X connect 35 0 38 0;
#X connect 36 0 37 0;
#X connect 36 1 35 0;
#X connect 36 1 46 0;
#X connect 37 0 33 0;
#X connect 38 0 39 0;
#X connect 38 0 44 0;
#X connect 40 0 41 0;
#X connect 41 0 27 1;
#X connect 41 0 7 0;
#X connect 44 0 43 0;
#X connect 45 0 44 0;
#X connect 48 0 35 1;
#X connect 48 0 47 0;
#X connect 49 0 8 0;
#X connect 49 1 36 0;
#X connect 49 2 58 0;
#X connect 49 3 41 0;
#X connect 49 7 55 0;
#X connect 49 8 50 0;
#X connect 50 0 54 0;
#X connect 50 1 6 0;
#X connect 50 2 52 0;
#X connect 52 0 53 1;
#X connect 53 0 51 0;
#X connect 54 0 53 1;
#X connect 55 0 24 0;
#X connect 55 1 3 0;
#X connect 55 2 22 1;
#X connect 56 0 50 0;
#X connect 58 0 24 0;
#X connect 58 1 3 0;
#X connect 58 2 22 1;
#X connect 59 0 21 0;
#X connect 59 1 21 1;
#X connect 60 0 62 0;
#X connect 63 0 41 0;
