#N canvas 682 188 1003 790 10;
#X obj 143 -54 inlet;
#X obj 268 147 unpack f f f;
#X obj 323 200 pack f f f;
#X obj 19 -45 inlet;
#X obj 13 503 outlet;
#X obj 92 -52 inlet;
#X obj 499 169 unpack f f f;
#X obj 486 218 pack f f f;
#X obj 480 49 spigot 1;
#X obj 300 81 spigot 1;
#X obj 495 501 pp instability;
#N canvas 1197 430 450 300 3d 1;
#X obj 28 -53 inlet;
#X obj 119 -57 inlet;
#X obj 164 84 outlet;
#X obj 30 82 outlet;
#X text 271 111 Based on mtl library;
#X text 46 33 TODO;
#X obj 31 0 private/mtl/3dAngle;
#X obj 164 -1 private/mtl/3dDistance;
#X connect 0 0 6 0;
#X connect 0 0 7 0;
#X connect 1 0 6 1;
#X connect 1 0 7 1;
#X connect 6 0 3 0;
#X connect 7 0 2 0;
#X restore 776 458 pd 3d basic;
#X obj 775 489 pp 3dAngle;
#X obj 846 488 pp 3dDistance;
#N canvas 1346 462 450 300 verticality 0;
#X obj 240 144 delta;
#X obj 319 149 delta;
#X obj 242 169 abs;
#X obj 321 171 abs;
#X obj 229 48 inlet;
#X floatatom 356 165 5 0 0 0 - - -;
#X obj 39 200 smooth 0.2;
#X obj 120 196 smooth 0.2;
#X obj 247 195 smooth 0.01;
#X obj 323 199 smooth 0.01;
#X obj 44 241 outlet;
#X obj 120 244 outlet;
#X obj 251 240 outlet;
#X obj 320 239 outlet;
#X obj 178 251 mean;
#X obj 158 224 pack f f;
#X obj 174 273 outlet;
#X obj 377 242 mean;
#X obj 368 219 pack f f;
#X obj 373 264 outlet;
#X obj 239 58 inlet;
#X connect 0 0 2 0;
#X connect 1 0 3 0;
#X connect 2 0 6 0;
#X connect 2 0 8 0;
#X connect 3 0 7 0;
#X connect 3 0 9 0;
#X connect 4 0 0 0;
#X connect 5 0 8 1;
#X connect 5 0 9 1;
#X connect 6 0 10 0;
#X connect 6 0 15 0;
#X connect 7 0 11 0;
#X connect 7 0 15 1;
#X connect 8 0 12 0;
#X connect 8 0 18 0;
#X connect 9 0 13 0;
#X connect 9 0 18 1;
#X connect 14 0 16 0;
#X connect 15 0 14 0;
#X connect 17 0 19 0;
#X connect 18 0 17 0;
#X connect 20 0 1 0;
#X restore 126 458 pd verticality;
#N canvas 1346 462 450 300 horizontality 0;
#X obj 240 144 delta;
#X obj 319 149 delta;
#X obj 242 169 abs;
#X obj 321 171 abs;
#X obj 229 48 inlet;
#X floatatom 356 165 5 0 0 0 - - -;
#X obj 39 200 smooth 0.2;
#X obj 120 196 smooth 0.2;
#X obj 44 241 outlet;
#X obj 120 244 outlet;
#X obj 251 240 outlet;
#X obj 320 239 outlet;
#X obj 187 241 mean;
#X obj 178 218 pack f f;
#X obj 183 263 outlet;
#X obj 377 242 mean;
#X obj 368 219 pack f f;
#X obj 373 264 outlet;
#X obj 239 58 inlet;
#X obj 323 199 smooth 0.05;
#X obj 246 195 smooth 0.05;
#X connect 0 0 2 0;
#X connect 1 0 3 0;
#X connect 2 0 6 0;
#X connect 2 0 20 0;
#X connect 3 0 7 0;
#X connect 3 0 19 0;
#X connect 4 0 0 0;
#X connect 5 0 19 1;
#X connect 5 0 20 1;
#X connect 6 0 8 0;
#X connect 6 0 13 0;
#X connect 7 0 9 0;
#X connect 7 0 13 1;
#X connect 12 0 14 0;
#X connect 13 0 12 0;
#X connect 15 0 17 0;
#X connect 16 0 15 0;
#X connect 18 0 1 0;
#X connect 19 0 11 0;
#X connect 19 0 16 1;
#X connect 20 0 10 0;
#X connect 20 0 16 0;
#X restore 317 459 pd horizontality;
#X obj 132 489 pp instantV;
#X obj 327 492 pp instantH;
#X obj 406 490 pp contextH;
#X obj 210 491 pp contextV;
#X obj 651 488 +;
#X obj 653 515 pp sumVelocity;
#X obj 174 578 r \$0-output;
#X obj 862 523 s \$0-output;
#X obj 653 538 s \$0-output;
#X obj 194 525 s \$0-output;
#X obj 335 523 s \$0-output;
#X obj 504 535 s \$0-output;
#X obj 212 -47 r topos/all/messages;
#X symbolatom 543 59 72 0 0 0 - - -;
#X obj 76 626 outlet;
#X obj 172 623 s topos.geo.2/\$1/features;
#N canvas 1272 355 450 300 debug 0;
#X obj 63 37 inlet;
#X obj 231 39 inlet;
#X obj -2 44 inlet;
#X obj 101 139 private/_debugConnection \$1;
#X obj 27 103 private/_debugPoint;
#X obj 214 111 private/_debugPoint;
#X obj 112 174 outlet;
#X connect 0 0 4 1;
#X connect 1 0 5 1;
#X connect 2 0 3 0;
#X connect 2 0 4 0;
#X connect 2 0 5 0;
#X connect 3 0 6 0;
#X connect 4 0 3 1;
#X connect 5 0 3 2;
#X restore 94 262 pd debug;
#X obj 95 156 spigot 0;
#X obj 139 80 \$4;
#X obj 134 51 loadbang;
#X obj 457 466 private/_instability;
#X obj 262 117 any;
#X obj 481 100 any;
#X obj 164 117 route float;
#X obj 42 132 pp gemlist;
#X obj 299 54 receive13 \$2;
#X obj 507 -24 receive13 \$3;
#X obj 53 -11 route color reference size alpha debug setPoint1 setPoint2
;
#X msg 297 34 set \$1;
#X msg 496 -46 set \$1;
#X obj 554 411 topos.geo.velocity 50;
#X obj 710 410 topos.geo.velocity 50;
#X obj 550 93 private/_documentation changeLog/vectorFeatures;
#X connect 0 0 38 0;
#X connect 1 0 2 0;
#X connect 1 0 15 0;
#X connect 1 1 2 1;
#X connect 1 1 14 0;
#X connect 1 2 2 2;
#X connect 2 0 11 0;
#X connect 2 0 36 0;
#X connect 2 0 46 0;
#X connect 3 0 43 0;
#X connect 5 0 37 0;
#X connect 6 0 7 0;
#X connect 6 0 15 1;
#X connect 6 1 7 1;
#X connect 6 1 14 1;
#X connect 6 2 7 2;
#X connect 7 0 11 1;
#X connect 7 0 36 1;
#X connect 7 0 47 0;
#X connect 8 0 38 0;
#X connect 9 0 37 0;
#X connect 10 0 27 0;
#X connect 11 0 12 0;
#X connect 11 1 13 0;
#X connect 12 0 23 0;
#X connect 13 0 23 0;
#X connect 14 2 16 0;
#X connect 14 5 19 0;
#X connect 15 2 17 0;
#X connect 15 5 18 0;
#X connect 16 0 25 0;
#X connect 17 0 26 0;
#X connect 18 0 26 0;
#X connect 19 0 25 0;
#X connect 20 0 21 0;
#X connect 21 0 24 0;
#X connect 22 0 30 0;
#X connect 22 0 31 0;
#X connect 28 0 43 0;
#X connect 29 0 48 0;
#X connect 32 0 4 0;
#X connect 33 0 32 0;
#X connect 34 0 33 1;
#X connect 35 0 34 0;
#X connect 36 0 10 0;
#X connect 37 0 1 0;
#X connect 37 0 32 1;
#X connect 38 0 6 0;
#X connect 38 0 32 2;
#X connect 39 0 33 1;
#X connect 39 1 32 0;
#X connect 40 0 33 0;
#X connect 41 0 9 0;
#X connect 42 0 8 0;
#X connect 43 1 8 1;
#X connect 43 1 9 1;
#X connect 43 4 39 0;
#X connect 43 5 44 0;
#X connect 43 6 45 0;
#X connect 43 7 40 0;
#X connect 44 0 41 0;
#X connect 45 0 42 0;
#X connect 46 0 20 0;
#X connect 47 0 20 1;
