#N canvas 0 22 450 300 10;
#X obj 213 25 inlet;
#X obj 209 96 delta;
#X obj 211 162 outlet;
#X obj 208 58 private/_displacement;
#X obj 312 120 speedlim \$1;
#X obj 359 85 ii 50;
#X connect 0 0 3 0;
#X connect 1 0 2 0;
#X connect 3 0 4 0;
#X connect 4 0 1 0;
#X connect 5 0 4 1;
