#N canvas 713 82 621 741 10;
#X declare -path mtl;
#X declare -path mtl;
#X declare -lib iem_tab;
#X declare -lib iem_tab;
#X declare -lib iem_tab;
#X obj 70 71 gemhead;
#N canvas 496 267 494 344 META 0;
#X text 12 25 LICENSE LGPL v2.1;
#X text 12 5 KEYWORDS geometric points 3d movement;
#X text 14 99 INLET_1 floats (3);
#X text 14 119 INLET_2 floats (3);
#X text 17 142 OUTLET_0 features;
#X text 18 165 AUTHOR Luiz Naveda;
#X text 15 185 WEBSITE http://naveda.info;
#X text 15 204 HELP_PATCH_AUTHORS "pd meta" information added by Luiz
Naveda for 0.43.4-extended;
#X text 14 79 INLET_0 gemlist and control;
#X text 12 45 DESCRIPTION Extracts geometrical features between two
3d points;
#X restore 550 805 pd META;
#X obj 50 503 cnv 3 550 3 empty \$0-pddp.cnv.inlets inlets 8 12 0 13
-228856 -1 0;
#X obj 54 571 cnv 3 550 3 empty \$0-pddp.cnv.outlets outlets 8 12 0
13 -228856 -1 0;
#X obj 54 662 cnv 3 550 3 empty \$0-pddp.cnv.argument arguments 8 12
0 13 -228856 -1 0;
#X obj 54 778 cnv 3 550 3 empty \$0-pddp.cnv.more_info more_info 8
12 0 13 -228856 -1 0;
#N canvas 246 467 428 109 Related_objects 0;
#X obj 0 0 cnv 15 425 20 empty \$0-pddp.cnv.subheading empty 3 12 0
14 -204280 -1 0;
#X text 6 1 Related Objects;
#X restore 363 805 pd Related_objects;
#X obj 66 12 cnv 15 552 40 empty cnv.header topos.rel.pointRegion 3
12 0 18 -204280 -1 0;
#N canvas 398 460 504 212 guts 1;
#X msg 79 104 cnv.header vis_size 650 60;
#X msg 81 65 \; cnv.header label topos.rel.regions;
#X restore 487 805 pd guts;
#X text 392 35 Topos Library;
#X text 506 35 http://naveda.info;
#N canvas 498 84 450 300 random 0;
#X obj 126 38 ii 1;
#X obj 159 40 tgl 15 0 empty empty empty 17 7 0 10 -262144 -1 -1 0
1;
#X obj 127 140 line;
#X msg 127 119 \$1 1000;
#X obj 141 151 line;
#X msg 137 129 \$1 1000;
#X obj 147 160 line;
#X msg 147 139 \$1 1000;
#X obj 132 273 outlet;
#X obj 130 197 - 3;
#X obj 146 201 - 3;
#X obj 202 182 - 3;
#X obj 127 94 random 6;
#X obj 138 105 random 6;
#X obj 147 114 random 6;
#X floatatom 222 86 5 0 0 0 - - -;
#X obj 217 131 / 2;
#X obj 264 154 gemhead;
#X obj 267 246 color 1 0 0;
#X obj 128 245 pack f f 0;
#X obj 126 64 metro 500;
#X obj 336 159 tgl 15 0 empty empty empty 17 7 0 10 -262144 -1 -1 0
1;
#X obj 268 225 translateXYZ 0 0 0;
#X obj 265 191 spigot 0;
#X obj 268 271 sphere 0.2;
#X obj 262 70 ii 6;
#X connect 0 0 20 0;
#X connect 1 0 20 0;
#X connect 2 0 9 0;
#X connect 3 0 2 0;
#X connect 4 0 10 0;
#X connect 5 0 4 0;
#X connect 6 0 11 0;
#X connect 7 0 6 0;
#X connect 9 0 19 0;
#X connect 9 0 22 1;
#X connect 10 0 22 2;
#X connect 10 0 19 1;
#X connect 12 0 3 0;
#X connect 13 0 5 0;
#X connect 14 0 7 0;
#X connect 15 0 14 1;
#X connect 15 0 13 1;
#X connect 15 0 12 1;
#X connect 15 0 16 0;
#X connect 16 0 11 1;
#X connect 16 0 10 1;
#X connect 16 0 9 1;
#X connect 17 0 23 0;
#X connect 18 0 24 0;
#X connect 19 0 8 0;
#X connect 20 0 12 0;
#X connect 20 0 13 0;
#X connect 20 0 14 0;
#X connect 21 0 23 1;
#X connect 22 0 18 0;
#X connect 23 0 22 0;
#X connect 25 0 15 0;
#X restore 301 162 pd random movement generator;
#X obj 368 59 topos.gemwin;
#X text 65 304 gemlist;
#X text 132 528 1 - gemlist and control messages;
#X text 150 674 1 - symbolic link (used for broadcasting features;
#X obj 286 342 route distanceFrom;
#X obj 285 362 pddp/print;
#X text 67 35 Detects relationships between 3D points;
#X text 77 88 gemhead (optional) allows visual/debug inspection.;
#X obj 248 163 gemhead;
#X text 255 136 REGION TOPOS;
#N canvas 766 483 450 300 debug 1;
#X msg -10 8 debug 1;
#X msg -3 29 debug 0;
#X msg 2 54 debug color 0 0 0;
#X msg 7 80 debug alpha 0.5;
#X msg 9 105 debug size 4;
#X obj -18 156 outlet;
#X connect 0 0 5 0;
#X connect 1 0 5 0;
#X connect 2 0 5 0;
#X connect 3 0 5 0;
#X connect 4 0 5 0;
#X restore 85 252 pd debug control;
#X text 150 694 2 - receive the X Y Z coordinates (as in the 2nd inlet)
;
#X text 149 715 3 - Symbolic link of the target [topos] region;
#X text 149 735 4 - Threshold for interaction between points and point
in the point cloud;
#N canvas 498 84 450 300 random 0;
#X obj 126 38 ii 1;
#X obj 159 40 tgl 15 0 empty empty empty 17 7 0 10 -262144 -1 -1 0
1;
#X obj 127 140 line;
#X msg 127 119 \$1 1000;
#X obj 141 151 line;
#X msg 137 129 \$1 1000;
#X obj 147 160 line;
#X msg 147 139 \$1 1000;
#X obj 132 273 outlet;
#X obj 130 197 - 3;
#X obj 146 201 - 3;
#X obj 202 182 - 3;
#X obj 127 94 random 6;
#X obj 138 105 random 6;
#X obj 147 114 random 6;
#X floatatom 222 86 5 0 0 0 - - -;
#X obj 217 131 / 2;
#X obj 264 154 gemhead;
#X obj 267 246 color 1 0 0;
#X obj 128 245 pack f f 0;
#X obj 126 64 metro 500;
#X obj 336 159 tgl 15 0 empty empty empty 17 7 0 10 -262144 -1 -1 0
1;
#X obj 268 225 translateXYZ 0 0 0;
#X obj 265 191 spigot 0;
#X obj 268 271 sphere 0.2;
#X obj 262 70 ii 6;
#X connect 0 0 20 0;
#X connect 1 0 20 0;
#X connect 2 0 9 0;
#X connect 3 0 2 0;
#X connect 4 0 10 0;
#X connect 5 0 4 0;
#X connect 6 0 11 0;
#X connect 7 0 6 0;
#X connect 9 0 19 0;
#X connect 9 0 22 1;
#X connect 10 0 22 2;
#X connect 10 0 19 1;
#X connect 12 0 3 0;
#X connect 13 0 5 0;
#X connect 14 0 7 0;
#X connect 15 0 14 1;
#X connect 15 0 13 1;
#X connect 15 0 12 1;
#X connect 15 0 16 0;
#X connect 16 0 11 1;
#X connect 16 0 10 1;
#X connect 16 0 9 1;
#X connect 17 0 23 0;
#X connect 18 0 24 0;
#X connect 19 0 8 0;
#X connect 20 0 12 0;
#X connect 20 0 13 0;
#X connect 20 0 14 0;
#X connect 21 0 23 1;
#X connect 22 0 18 0;
#X connect 23 0 22 0;
#X connect 25 0 15 0;
#X restore 449 211 pd random movement generator;
#X obj 396 212 gemhead;
#X obj 397 242 topos RGB d 100 10;
#X obj 249 193 topos RGA d 100 10;
#X text 391 193 REGION TOPOS;
#X obj 287 394 route touchVels;
#X obj 285 448 route envelopmentVels;
#X obj 289 289 route toposState;
#X obj 289 416 pddp/print;
#X obj 287 472 pddp/print;
#X obj 289 310 pddp/print;
#X text 135 304 gemlist;
#X text 391 364 actual distance between the 2 regions;
#X msg 85 179 threshold 0.4;
#X obj 65 287 topos.rel.regions PR RGA RGB 1;
#X text 139 577 1 - gemlist of the debug gemhead (region1);
#X text 140 597 2 - gemlist of the debug gemhead (region2);
#X text 138 617 3 - features;
#X obj 486 16 topos.rel.pointRegion;
#X connect 0 0 40 0;
#X connect 11 0 29 1;
#X connect 16 0 17 0;
#X connect 20 0 29 0;
#X connect 22 0 40 0;
#X connect 26 0 28 1;
#X connect 27 0 28 0;
#X connect 31 0 34 0;
#X connect 32 0 35 0;
#X connect 33 0 36 0;
#X connect 39 0 40 0;
#X connect 40 2 16 0;
#X connect 40 2 31 0;
#X connect 40 2 32 0;
#X connect 40 2 33 0;
