#N canvas 624 22 649 830 10;
#X msg 75 150 color 0 0 0;
#X msg 75 174 alpha 0.5;
#X obj 41 39 gemhead;
#X text 171 205 x y z;
#X text 355 201 x y z;
#X msg 62 102 debug 1;
#X text 119 66 gemhead allows visual inspection. However \, gem processing
is optional.;
#X msg 71 126 debug 0;
#N canvas 496 267 494 344 META 0;
#X text 12 25 LICENSE LGPL v2.1;
#X text 12 5 KEYWORDS geometric points 3d movement;
#X text 14 99 INLET_1 floats (3);
#X text 14 119 INLET_2 floats (3);
#X text 17 142 OUTLET_0 features;
#X text 18 165 AUTHOR Luiz Naveda;
#X text 15 185 WEBSITE http://naveda.info;
#X text 15 204 HELP_PATCH_AUTHORS "pd meta" information added by Luiz
Naveda for 0.43.4-extended;
#X text 14 79 INLET_0 gemlist and control;
#X text 12 45 DESCRIPTION Extracts geometrical features between two
3d points;
#X restore 521 703 pd META;
#X obj 21 461 cnv 3 550 3 empty \$0-pddp.cnv.inlets inlets 8 12 0 13
-228856 -1 0;
#X obj 25 563 cnv 3 550 3 empty \$0-pddp.cnv.outlets outlets 8 12 0
13 -228856 -1 0;
#X obj 25 600 cnv 3 550 3 empty \$0-pddp.cnv.argument arguments 8 12
0 13 -228856 -1 0;
#X obj 25 676 cnv 3 550 3 empty \$0-pddp.cnv.more_info more_info 8
12 0 13 -228856 -1 0;
#N canvas 246 467 428 109 Related_objects 0;
#X obj 0 0 cnv 15 425 20 empty \$0-pddp.cnv.subheading empty 3 12 0
14 -204280 -1 0;
#X text 6 1 Related Objects;
#X restore 334 703 pd Related_objects;
#X obj 103 572 cnv 17 3 17 empty \$0-pddp.cnv.let.0 0 5 9 0 16 -228856
-162280 0;
#X obj 37 -20 cnv 15 552 40 empty cnv.header topos.geo.2 3 12 0 18
-204280 -1 0;
#N canvas 398 460 504 212 guts 0;
#X msg 79 104 cnv.header vis_size 650 60;
#X msg 81 65 \; cnv.header label topos.geo.2;
#X restore 458 703 pd guts;
#X text 363 3 Topos Library;
#X text 477 3 http://naveda.info;
#X text 38 3 Extracts geometrical features between two 3d points;
#X obj 167 187 pack f f f;
#N canvas 498 84 450 300 random 0;
#X obj 126 64 metro 1000;
#X obj 126 38 ii 1;
#X obj 159 40 tgl 15 0 empty empty empty 17 7 0 10 -262144 -1 -1 0
1;
#X obj 127 140 line;
#X msg 127 119 \$1 1000;
#X obj 137 150 line;
#X msg 137 129 \$1 1000;
#X obj 147 160 line;
#X msg 147 139 \$1 1000;
#X obj 128 245 pack f f f;
#X obj 132 273 outlet;
#X obj 130 197 - 3;
#X obj 140 207 - 3;
#X obj 150 217 - 3;
#X obj 127 94 random 6;
#X obj 138 105 random 6;
#X obj 147 114 random 6;
#X floatatom 222 86 5 0 0 0 - - -;
#X obj 217 131 / 2;
#X obj 261 70 ii 10;
#X connect 0 0 14 0;
#X connect 0 0 15 0;
#X connect 0 0 16 0;
#X connect 1 0 0 0;
#X connect 2 0 0 0;
#X connect 3 0 11 0;
#X connect 4 0 3 0;
#X connect 5 0 12 0;
#X connect 6 0 5 0;
#X connect 7 0 13 0;
#X connect 8 0 7 0;
#X connect 9 0 10 0;
#X connect 11 0 9 0;
#X connect 12 0 9 1;
#X connect 13 0 9 2;
#X connect 14 0 4 0;
#X connect 15 0 6 0;
#X connect 16 0 8 0;
#X connect 17 0 16 1;
#X connect 17 0 15 1;
#X connect 17 0 14 1;
#X connect 17 0 18 0;
#X connect 18 0 13 1;
#X connect 18 0 12 1;
#X connect 18 0 11 1;
#X connect 19 0 17 0;
#X restore 167 110 pd random movement generator;
#X obj 167 135 unpack f f f;
#X floatatom 166 161 5 0 0 0 - - -;
#X floatatom 203 161 5 0 0 0 - - -;
#X floatatom 236 160 5 0 0 0 - - -;
#X obj 349 183 pack f f f;
#N canvas 498 84 450 300 random 0;
#X obj 126 64 metro 1000;
#X obj 126 38 ii 1;
#X obj 159 40 tgl 15 0 empty empty empty 17 7 0 10 -262144 -1 -1 0
1;
#X obj 127 140 line;
#X msg 127 119 \$1 1000;
#X obj 137 150 line;
#X msg 137 129 \$1 1000;
#X obj 147 160 line;
#X msg 147 139 \$1 1000;
#X obj 128 245 pack f f f;
#X obj 132 273 outlet;
#X obj 130 197 - 3;
#X obj 140 207 - 3;
#X obj 150 217 - 3;
#X obj 127 94 random 6;
#X obj 138 105 random 6;
#X obj 147 114 random 6;
#X floatatom 222 86 5 0 0 0 - - -;
#X obj 217 131 / 2;
#X obj 261 70 ii 10;
#X connect 0 0 14 0;
#X connect 0 0 15 0;
#X connect 0 0 16 0;
#X connect 1 0 0 0;
#X connect 2 0 0 0;
#X connect 3 0 11 0;
#X connect 4 0 3 0;
#X connect 5 0 12 0;
#X connect 6 0 5 0;
#X connect 7 0 13 0;
#X connect 8 0 7 0;
#X connect 9 0 10 0;
#X connect 11 0 9 0;
#X connect 12 0 9 1;
#X connect 13 0 9 2;
#X connect 14 0 4 0;
#X connect 15 0 6 0;
#X connect 16 0 8 0;
#X connect 17 0 16 1;
#X connect 17 0 15 1;
#X connect 17 0 14 1;
#X connect 17 0 18 0;
#X connect 18 0 13 1;
#X connect 18 0 12 1;
#X connect 18 0 11 1;
#X connect 19 0 17 0;
#X restore 349 106 pd random movement generator;
#X obj 349 131 unpack f f f;
#X floatatom 348 157 5 0 0 0 - - -;
#X floatatom 385 157 5 0 0 0 - - -;
#X floatatom 418 148 5 0 0 0 - - -;
#X obj 337 30 topos.gemwin;
#X obj 64 79 loadbang;
#X obj 45 410 route instability;
#X obj 249 272 route sumVelocity;
#X obj 182 317 route 3dAngle;
#X obj 129 361 route 3dDistance;
#X floatatom 48 432 5 0 0 0 - - -;
#X floatatom 249 297 5 0 0 0 - - -;
#X floatatom 183 338 5 0 0 0 - - -;
#X floatatom 131 387 5 0 0 0 - - -;
#X text 39 279 gemlist;
#X text 103 505 2 - LIST 3 x FLOATS: X Y Z coordinates;
#X text 103 526 3 - LIST 3 x FLOATS: X Y Z coordinates;
#X text 105 481 1 - gemlist and control messages;
#X text 122 609 1 - symbolic link (used for broadcasting features;
#X obj 437 211 r topos.geo.2/link/features;
#X obj 437 243 route sumVelocity;
#X floatatom 437 268 5 0 0 0 - - -;
#X text 428 169 also broadcasts features to topos.geo.2/link/features.
Ex:;
#X text 184 387 Distance between points;
#X text 159 411 Instability level (arbitrary magnitude). Takes into
account angle and size (weight) of the segment.;
#X text 298 298 sum of the instantaneous velocities of the two points
;
#X text 273 327 computes the angle (radian) between both incoming vectors
(based on Mtl library);
#X text 121 632 2 - receive the X Y Z coordinates (as in the 1st inlet)
;
#X text 120 653 3 - receive the X Y Z coordinates (as in the 2nd inlet)
;
#X obj 514 -18 topos.geo.2;
#X obj 43 249 topos.geo.2 link point1 point2;
#X connect 0 0 58 0;
#X connect 1 0 58 0;
#X connect 2 0 58 0;
#X connect 5 0 58 0;
#X connect 7 0 58 0;
#X connect 20 0 58 1;
#X connect 21 0 22 0;
#X connect 22 0 23 0;
#X connect 22 1 24 0;
#X connect 22 2 25 0;
#X connect 23 0 20 0;
#X connect 24 0 20 1;
#X connect 25 0 20 2;
#X connect 26 0 58 2;
#X connect 27 0 28 0;
#X connect 28 0 29 0;
#X connect 28 1 30 0;
#X connect 28 2 31 0;
#X connect 29 0 26 0;
#X connect 30 0 26 1;
#X connect 31 0 26 2;
#X connect 33 0 5 0;
#X connect 34 0 38 0;
#X connect 35 0 39 0;
#X connect 36 0 40 0;
#X connect 37 0 41 0;
#X connect 47 0 48 0;
#X connect 48 0 49 0;
#X connect 58 1 34 0;
#X connect 58 1 35 0;
#X connect 58 1 36 0;
#X connect 58 1 37 0;
