#N canvas 502 60 694 788 10;
#X obj 50 51 gemhead;
#X text 202 200 x y z;
#X text 389 199 x y z;
#X msg 60 113 debug 1;
#X msg 67 134 debug 0;
#N canvas 496 267 494 344 META 0;
#X text 12 25 LICENSE LGPL v2.1;
#X text 12 5 KEYWORDS geometric points 3d movement;
#X text 14 99 INLET_1 floats (3);
#X text 14 119 INLET_2 floats (3);
#X text 17 142 OUTLET_0 features;
#X text 18 165 AUTHOR Luiz Naveda;
#X text 15 185 WEBSITE http://naveda.info;
#X text 15 204 HELP_PATCH_AUTHORS "pd meta" information added by Luiz
Naveda for 0.43.4-extended;
#X text 14 79 INLET_0 gemlist and control;
#X text 12 45 DESCRIPTION Extracts geometrical features between two
3d points;
#X restore 530 765 pd META;
#X obj 30 473 cnv 3 550 3 empty \$0-pddp.cnv.inlets inlets 8 12 0 13
-228856 -1 0;
#X obj 34 575 cnv 3 550 3 empty \$0-pddp.cnv.outlets outlets 8 12 0
13 -228856 -1 0;
#X obj 34 662 cnv 3 550 3 empty \$0-pddp.cnv.argument arguments 8 12
0 13 -228856 -1 0;
#X obj 34 738 cnv 3 550 3 empty \$0-pddp.cnv.more_info more_info 8
12 0 13 -228856 -1 0;
#N canvas 246 467 428 109 Related_objects 0;
#X obj 0 0 cnv 15 425 20 empty \$0-pddp.cnv.subheading empty 3 12 0
14 -204280 -1 0;
#X text 6 1 Related Objects;
#X restore 343 765 pd Related_objects;
#X obj 46 -8 cnv 15 552 40 empty cnv.header topos.rel.points 3 12 0
18 -204280 -1 0;
#N canvas 398 460 504 212 guts 0;
#X msg 79 104 cnv.header vis_size 650 60;
#X msg 81 65 \; cnv.header label topos.rel.points;
#X restore 467 765 pd guts;
#X text 372 15 Topos Library;
#X text 486 15 http://naveda.info;
#X obj 198 182 pack f f f;
#N canvas 498 84 450 300 random 0;
#X obj 126 38 ii 1;
#X obj 159 40 tgl 15 0 empty empty empty 17 7 0 10 -262144 -1 -1 0
1;
#X obj 127 140 line;
#X msg 127 119 \$1 1000;
#X obj 137 150 line;
#X msg 137 129 \$1 1000;
#X obj 147 160 line;
#X msg 147 139 \$1 1000;
#X obj 132 273 outlet;
#X obj 130 197 - 3;
#X obj 140 207 - 3;
#X obj 150 217 - 3;
#X obj 127 94 random 6;
#X obj 138 105 random 6;
#X obj 147 114 random 6;
#X floatatom 222 86 5 0 0 0 - - -;
#X obj 217 131 / 2;
#X obj 257 236 color 0 0 0;
#X obj 131 245 pack f f 0;
#X obj 126 64 metro 500;
#X obj 297 110 gemhead;
#X obj 369 115 tgl 15 0 empty empty empty 17 7 0 10 -262144 -1 -1 0
1;
#X obj 298 147 spigot 1;
#X obj 200 261 / 5;
#X obj 258 260 sphere 0.4;
#X obj 256 209 translateXYZ 0 0 0;
#X obj 261 69 ii 3;
#X connect 0 0 19 0;
#X connect 1 0 19 0;
#X connect 2 0 9 0;
#X connect 3 0 2 0;
#X connect 4 0 10 0;
#X connect 5 0 4 0;
#X connect 6 0 11 0;
#X connect 7 0 6 0;
#X connect 9 0 18 0;
#X connect 9 0 25 1;
#X connect 10 0 23 0;
#X connect 10 0 25 2;
#X connect 12 0 3 0;
#X connect 13 0 5 0;
#X connect 14 0 7 0;
#X connect 15 0 14 1;
#X connect 15 0 13 1;
#X connect 15 0 12 1;
#X connect 15 0 16 0;
#X connect 16 0 11 1;
#X connect 16 0 10 1;
#X connect 16 0 9 1;
#X connect 17 0 24 0;
#X connect 18 0 8 0;
#X connect 19 0 12 0;
#X connect 19 0 13 0;
#X connect 19 0 14 0;
#X connect 20 0 22 0;
#X connect 21 0 22 1;
#X connect 22 0 25 0;
#X connect 23 0 18 1;
#X connect 25 0 17 0;
#X connect 26 0 15 0;
#X restore 198 105 pd random movement generator;
#X obj 198 130 unpack f f f;
#X floatatom 197 156 5 0 0 0 - - -;
#X floatatom 234 156 5 0 0 0 - - -;
#X floatatom 267 155 5 0 0 0 - - -;
#X obj 383 181 pack f f f;
#N canvas 498 84 450 300 random 0;
#X obj 126 38 ii 1;
#X obj 159 40 tgl 15 0 empty empty empty 17 7 0 10 -262144 -1 -1 0
1;
#X obj 127 140 line;
#X msg 127 119 \$1 1000;
#X obj 141 151 line;
#X msg 137 129 \$1 1000;
#X obj 147 160 line;
#X msg 147 139 \$1 1000;
#X obj 132 273 outlet;
#X obj 130 197 - 3;
#X obj 146 201 - 3;
#X obj 202 182 - 3;
#X obj 127 94 random 6;
#X obj 138 105 random 6;
#X obj 147 114 random 6;
#X floatatom 222 86 5 0 0 0 - - -;
#X obj 217 131 / 2;
#X obj 264 154 gemhead;
#X obj 267 246 color 1 0 0;
#X obj 128 245 pack f f 0;
#X obj 126 64 metro 500;
#X obj 336 159 tgl 15 0 empty empty empty 17 7 0 10 -262144 -1 -1 0
1;
#X obj 265 191 spigot 1;
#X obj 262 70 ii 14;
#X obj 209 243 / 5;
#X obj 268 270 sphere 0.4;
#X obj 268 225 translateXYZ 0 0 0;
#X connect 0 0 20 0;
#X connect 1 0 20 0;
#X connect 2 0 9 0;
#X connect 3 0 2 0;
#X connect 4 0 10 0;
#X connect 5 0 4 0;
#X connect 6 0 11 0;
#X connect 7 0 6 0;
#X connect 9 0 19 0;
#X connect 9 0 26 1;
#X connect 10 0 24 0;
#X connect 10 0 26 2;
#X connect 12 0 3 0;
#X connect 13 0 5 0;
#X connect 14 0 7 0;
#X connect 15 0 14 1;
#X connect 15 0 13 1;
#X connect 15 0 12 1;
#X connect 15 0 16 0;
#X connect 16 0 11 1;
#X connect 16 0 10 1;
#X connect 16 0 9 1;
#X connect 17 0 22 0;
#X connect 18 0 25 0;
#X connect 19 0 8 0;
#X connect 20 0 12 0;
#X connect 20 0 13 0;
#X connect 20 0 14 0;
#X connect 21 0 22 1;
#X connect 22 0 26 0;
#X connect 23 0 15 0;
#X connect 24 0 19 1;
#X connect 26 0 18 0;
#X restore 383 104 pd random movement generator;
#X obj 383 129 unpack f f f;
#X floatatom 382 155 5 0 0 0 - - -;
#X floatatom 419 155 5 0 0 0 - - -;
#X floatatom 452 156 5 0 0 0 - - -;
#X obj 348 39 topos.gemwin;
#X obj 62 90 loadbang;
#X text 45 284 gemlist;
#X text 112 517 2 - LIST 3 x FLOATS: X Y Z coordinates;
#X text 112 538 3 - LIST 3 x FLOATS: X Y Z coordinates;
#X text 114 493 1 - gemlist and control messages;
#X text 131 671 1 - symbolic link (used for broadcasting features;
#X text 130 694 2 - receive the X Y Z coordinates (as in the 1st inlet)
;
#X text 129 715 3 - receive the X Y Z coordinates (as in the 2nd inlet)
;
#X floatatom 271 283 5 0 0 0 - - -;
#X obj 147 335 route distanceFrom;
#X obj 105 388 route hitPoint;
#X obj 56 428 route pointVelocity;
#X obj 164 292 route state;
#X obj 146 355 pddp/print;
#X obj 102 407 pddp/print;
#X obj 57 450 pddp/print;
#X floatatom 163 316 5 0 0 0 - - -;
#X text 47 15 Detects relationships between 3D points;
#X msg 72 159 debug color 0 0 0;
#X msg 77 185 debug alpha 0.5;
#X text 57 68 gemhead (optional) allows visual/debug inspection.;
#X msg 79 210 debug size 4;
#X text 204 316 1 = Collision detected below threshold of the 4th argument
;
#X text 251 357 actual distance between the 2 points;
#X obj 214 236 s point2;
#X text 300 222 There are two ways to send the 3D data (x y z):;
#X text 315 239 -symbolic links (receives) that captures the lists
internally (ex: point2);
#X text 310 267 -lists sent to the 2nd (point1) and 3rd (point 2) inlets
;
#X text 213 389 3d position of the collision;
#X text 234 439 instantaneous velocity of each point at the moment
of collision;
#X text 129 590 1 - gemlist of the debug gemhead;
#X text 128 613 2 - features;
#X text 127 634 3 - ID;
#X obj 487 -6 topos.rel.points;
#X obj 52 261 topos.rel.points PP point1 point2 0.3;
#X connect 0 0 62 0;
#X connect 3 0 62 0;
#X connect 4 0 62 0;
#X connect 15 0 62 1;
#X connect 16 0 17 0;
#X connect 17 0 18 0;
#X connect 17 1 19 0;
#X connect 17 2 20 0;
#X connect 18 0 15 0;
#X connect 19 0 15 1;
#X connect 20 0 15 2;
#X connect 21 0 52 0;
#X connect 22 0 23 0;
#X connect 23 0 24 0;
#X connect 23 1 25 0;
#X connect 23 2 26 0;
#X connect 24 0 21 0;
#X connect 25 0 21 1;
#X connect 26 0 21 2;
#X connect 28 0 3 0;
#X connect 37 0 41 0;
#X connect 38 0 42 0;
#X connect 39 0 43 0;
#X connect 40 0 44 0;
#X connect 46 0 62 0;
#X connect 47 0 62 0;
#X connect 49 0 62 0;
#X connect 62 1 40 0;
#X connect 62 1 37 0;
#X connect 62 1 38 0;
#X connect 62 1 39 0;
#X connect 62 2 36 0;
