#N canvas 693 266 983 647 10;
#X obj 1 167 s zdiv;
#X floatatom 2 147 5 0 0 0 - - -;
#X obj 2 29 inlet gemlist;
#X obj 25 64 pp gemlist;
#X obj 70 97 s skeleton/\$1/all/messages;
#X obj 367 115 private/_joint \$1 head;
#X obj 0 99 outlet;
#X obj 3 126 ii 1;
#X obj 287 230 private/_connection \$1;
#X obj 212 209 private/_joint \$1 l_shoulder;
#X obj 379 174 private/_joint \$1 neck;
#X obj 638 226 private/_joint \$1 r_elbow;
#X obj 65 239 private/_joint \$1 l_elbow;
#X obj 425 580 private/_joint \$1 r_foot;
#X obj 255 417 private/_joint \$1 l_hip;
#X obj -26 263 private/_joint \$1 l_hand;
#X obj 326 332 private/_joint \$1 torso;
#X obj 544 206 private/_joint \$1 r_shoulder;
#X obj 410 427 private/_joint \$1 r_hip;
#X obj 268 493 private/_joint \$1 l_knee;
#X obj 415 499 private/_joint \$1 r_knee;
#X obj 276 575 private/_joint \$1 l_foot;
#X obj 730 258 private/_joint \$1 r_hand;
#X obj 374 141 private/_connection \$1;
#X obj 395 204 private/_connection \$1;
#X obj 144 261 private/_connection \$1;
#X obj 571 252 private/_connection \$1;
#X obj 270 459 private/_connection \$1;
#X obj 415 458 private/_connection \$1;
#X obj 421 385 private/_connection \$1;
#X obj 43 290 private/_connection \$1;
#X obj 607 282 private/_connection \$1;
#X obj 287 529 private/_connection \$1;
#X obj 428 537 private/_connection \$1;
#X obj 289 384 private/_connection \$1;
#X obj 280 281 private/_connection \$1;
#X obj 387 276 private/_connection \$1;
#X obj 281 257 private/_connection \$1;
#X obj 484 267 private/_connection \$1;
#X connect 1 0 0 0;
#X connect 2 0 3 0;
#X connect 2 0 6 0;
#X connect 3 0 4 0;
#X connect 5 0 23 0;
#X connect 7 0 1 0;
#X connect 9 0 8 0;
#X connect 9 0 25 1;
#X connect 9 0 37 0;
#X connect 10 0 8 1;
#X connect 10 0 23 1;
#X connect 10 0 24 0;
#X connect 10 0 36 0;
#X connect 11 0 26 1;
#X connect 11 0 31 0;
#X connect 12 0 25 0;
#X connect 12 0 30 0;
#X connect 13 0 33 1;
#X connect 14 0 27 0;
#X connect 14 0 34 1;
#X connect 14 0 35 0;
#X connect 15 0 30 1;
#X connect 16 0 29 0;
#X connect 16 0 34 0;
#X connect 16 0 36 1;
#X connect 16 0 37 1;
#X connect 16 0 38 0;
#X connect 17 0 24 1;
#X connect 17 0 26 0;
#X connect 17 0 38 1;
#X connect 18 0 28 0;
#X connect 18 0 29 1;
#X connect 18 0 35 1;
#X connect 19 0 27 1;
#X connect 19 0 32 0;
#X connect 20 0 28 1;
#X connect 20 0 33 0;
#X connect 21 0 32 1;
#X connect 22 0 31 1;
