#N canvas 2316 258 871 470 10;
#X obj 57 11 inlet;
#X obj 68 222 list prepend add;
#X obj 67 250 list trim;
#X obj 67 165 list prepend;
#X obj 332 11 loadbang;
#X obj 498 157 t b a b b b b b;
#X obj 457 381 ppp;
#X obj 315 100 tgl 15 0 empty empty empty 17 7 0 10 -262144 -1 -1 0
1;
#X obj 317 121 select 0 1;
#X msg 375 193 clear;
#X obj 267 165 t b a b b b b b;
#X msg 266 120 1;
#X msg 270 96 0;
#X obj 59 58 spigot;
#X obj 335 37 symbol \$1;
#X obj 721 220 openpanel;
#X obj 566 83 route bang;
#X obj 556 124 symbol;
#X obj 565 342 symbol \$1;
#X obj 425 350 makesymbol %s-%s;
#X obj 422 322 pack s s;
#X obj 416 278 r recLabel;
#X obj 417 300 t s b;
#X obj 439 30 r;
#X obj 300 75 r recCommand;
#X obj 170 -5 r recTimer;
#X obj 65 117 any;
#X obj 169 47 t b f;
#X obj 189 23 change;
#X obj 62 303 textfile;
#X msg 542 256 write \$1.txt cr;
#X msg 251 193 0;
#X connect 0 0 13 0;
#X connect 1 0 2 0;
#X connect 2 0 29 0;
#X connect 3 0 1 0;
#X connect 4 0 14 0;
#X connect 4 0 9 0;
#X connect 7 0 8 0;
#X connect 8 0 5 0;
#X connect 8 0 12 0;
#X connect 8 1 10 0;
#X connect 9 0 29 0;
#X connect 10 4 11 0;
#X connect 10 6 9 0;
#X connect 10 6 31 0;
#X connect 11 0 13 1;
#X connect 12 0 13 1;
#X connect 13 0 26 1;
#X connect 15 0 18 1;
#X connect 16 0 15 0;
#X connect 16 1 17 0;
#X connect 17 0 18 1;
#X connect 18 0 20 1;
#X connect 19 0 6 0;
#X connect 19 0 30 0;
#X connect 20 0 19 0;
#X connect 21 0 22 0;
#X connect 22 0 20 0;
#X connect 22 1 18 0;
#X connect 24 0 7 0;
#X connect 25 0 28 0;
#X connect 26 0 3 0;
#X connect 27 0 26 0;
#X connect 27 1 3 1;
#X connect 28 0 27 0;
#X connect 30 0 29 0;
#X connect 31 0 26 1;
