#N canvas 149 242 1044 628 10;
#X declare -lib iem_tab;
#X obj 167 341 pp xyzRange;
#X floatatom 186 29 5 0 0 0 - - -;
#X obj 136 111 tab_min_max \$0-xlive;
#X msg 181 82 src \$1;
#X obj 135 81 bang;
#X obj 184 60 makesymbol %s-xlive;
#X obj 212 177 -;
#X obj 357 176 -;
#X floatatom 349 199 5 0 0 0 - - -;
#X obj 508 176 -;
#X obj 432 110 tab_min_max \$0-zlive;
#X obj 281 110 tab_min_max \$0-ylive;
#X msg 317 75 src \$1;
#X obj 320 53 makesymbol %s-ylive;
#X msg 453 72 src \$1;
#X obj 456 50 makesymbol %s-zlive;
#X obj 232 237 *;
#X obj 241 260 *;
#X obj 79 340 pp volume;
#X obj 359 271 pack f f f;
#X obj 271 342 pp meanPosition;
#X obj 273 296 r topos/\$1/mean;
#X obj 557 11 receive13;
#X msg 557 -11 set topos/\$1/ID;
#X floatatom 634 40 5 0 0 0 - - -;
#X obj 112 19 receive13;
#X obj 122 -59 inlet;
#X msg 110 -3 set topos/\$1/wheel;
#X obj 560 -62 loadbang;
#X obj 375 344 pp speed;
#X obj 486 242 smooth 0.1;
#X obj 404 243 smooth 0.1;
#X obj 335 243 smooth 0.1;
#N canvas 1207 406 450 300 getPos 0;
#X obj 110 -2 inlet;
#X floatatom 106 61 5 0 0 0 - - -;
#X obj 104 92 makesymbol %s-xlive;
#X obj 240 85 makesymbol %s-ylive;
#X obj 376 82 makesymbol %s-zlive;
#X msg 105 118 set \$1;
#X obj 99 140 tabread;
#X msg 227 119 set \$1;
#X obj 221 141 tabread;
#X msg 335 117 set \$1;
#X obj 329 139 tabread;
#X obj 136 184 pack f f f;
#X obj 140 215 outlet;
#X obj 51 99 f;
#X obj 38 -47 inlet;
#X obj 84 25 bang;
#X obj 31 56 spigot 0;
#X obj 60 16 > 0;
#X obj 26 -12 t b f f;
#X msg 22 16 0;
#X connect 0 0 1 0;
#X connect 0 0 15 0;
#X connect 1 0 2 0;
#X connect 1 0 3 0;
#X connect 1 0 4 0;
#X connect 2 0 5 0;
#X connect 3 0 7 0;
#X connect 4 0 9 0;
#X connect 5 0 6 0;
#X connect 6 0 11 0;
#X connect 7 0 8 0;
#X connect 8 0 11 1;
#X connect 9 0 10 0;
#X connect 10 0 11 2;
#X connect 11 0 12 0;
#X connect 13 0 6 0;
#X connect 13 0 8 0;
#X connect 13 0 10 0;
#X connect 14 0 18 0;
#X connect 15 0 16 0;
#X connect 16 0 13 0;
#X connect 17 0 16 1;
#X connect 18 0 19 0;
#X connect 18 1 16 0;
#X connect 18 2 17 0;
#X connect 19 0 16 1;
#X restore 650 323 pd getPos;
#X obj 127 -39 route getPosPoint;
#X obj 649 353 pp getPosPoint;
#X obj 623 -51 import iem_tab;
#X obj 577 -35 symbol \$1;
#X obj 463 350 pp displacement;
#X symbolatom 531 479 72 0 0 0 - - -;
#X obj 495 319 topos.geo.displacement;
#X obj 376 319 topos.geo.velocity;
#X obj 576 223 r topos/\$1/points;
#X obj 68 442 outlet;
#X obj 570 351 pp inPoints;
#X obj 636 94 r topos/\$1/mean;
#X text 534 249 check other methods for smoothing;
#X obj 763 325 pp centerPointsAvr;
#X obj 799 351 pp centerPointsStd;
#X obj 636 127 private/_toposStats \$1;
#X obj 78 396 any;
#X obj 143 450 outlet float;
#X obj 892 323 pp centerPointsDist;
#X obj 140 423 route \$2;
#X obj 531 498 private/_documentation changeLog/topos.features;
#X connect 0 0 50 0;
#X connect 1 0 5 0;
#X connect 1 0 13 0;
#X connect 1 0 15 0;
#X connect 2 1 6 1;
#X connect 2 2 6 0;
#X connect 3 0 2 0;
#X connect 4 0 2 0;
#X connect 4 0 11 0;
#X connect 4 0 10 0;
#X connect 5 0 3 0;
#X connect 6 0 16 0;
#X connect 6 0 32 0;
#X connect 6 0 19 0;
#X connect 7 0 8 0;
#X connect 8 0 16 1;
#X connect 8 0 31 0;
#X connect 8 0 19 1;
#X connect 9 0 17 1;
#X connect 9 0 30 0;
#X connect 9 0 19 2;
#X connect 10 1 9 1;
#X connect 10 2 9 0;
#X connect 11 1 7 1;
#X connect 11 2 7 0;
#X connect 12 0 11 0;
#X connect 13 0 12 0;
#X connect 14 0 10 0;
#X connect 15 0 14 0;
#X connect 16 0 17 0;
#X connect 17 0 18 0;
#X connect 18 0 50 0;
#X connect 19 0 0 0;
#X connect 20 0 50 0;
#X connect 21 0 20 0;
#X connect 21 0 41 0;
#X connect 21 0 40 0;
#X connect 22 0 24 0;
#X connect 22 0 1 0;
#X connect 22 0 33 1;
#X connect 23 0 22 0;
#X connect 25 0 4 0;
#X connect 26 0 34 0;
#X connect 27 0 25 0;
#X connect 28 0 37 0;
#X connect 29 0 50 0;
#X connect 33 0 35 0;
#X connect 34 0 33 0;
#X connect 34 1 27 0;
#X connect 34 1 23 0;
#X connect 35 0 50 0;
#X connect 37 0 23 0;
#X connect 37 0 27 0;
#X connect 38 0 50 0;
#X connect 39 0 54 0;
#X connect 40 0 38 0;
#X connect 41 0 29 0;
#X connect 42 0 44 0;
#X connect 44 0 50 0;
#X connect 45 0 49 0;
#X connect 47 0 50 0;
#X connect 48 0 50 0;
#X connect 49 0 47 0;
#X connect 49 1 48 0;
#X connect 49 2 52 0;
#X connect 50 0 43 0;
#X connect 50 0 53 0;
#X connect 52 0 50 0;
#X connect 53 0 51 0;
