#N canvas 2316 258 715 479 10;
#X obj 63 19 inlet;
#X obj 68 259 qlist;
#X obj 69 208 list prepend add;
#X obj 67 231 list trim;
#X obj 174 120 timer;
#X obj 69 184 list prepend;
#X obj 58 82 trigger bang anything bang;
#X obj 332 11 loadbang;
#X obj 69 161 list prepend;
#X obj 750 107 time ---;
#X obj 676 132 pack f f f f f;
#X obj 647 88 date -----;
#X obj 702 186 ppp;
#X obj 675 159 makesymbol %s/%s/%s-%s:%s-;
#X obj 541 163 t b a b b b b b;
#X obj 687 293 ppp;
#X obj 600 347 makesymbol %s%s;
#X obj 606 308 pack f f;
#X msg 541 225 write \$1.txt;
#X obj 315 100 tgl 15 0 empty empty empty 17 7 0 10 -262144 -1 -1 0
1;
#X obj 317 121 select 0 1;
#X obj 551 196 symbol \$2;
#X msg 258 197 clear;
#X msg 273 114 1;
#X msg 257 112 0;
#X obj 59 58 spigot;
#X obj 335 37 symbol \$1;
#X msg 116 10 play;
#X obj 611 199 symbol \$2;
#X msg 545 255 read \$1.txt \, bang;
#X obj 129 31 route record play pause stop load;
#X obj 721 220 openpanel;
#X obj 566 83 route bang;
#X obj 556 124 symbol;
#X msg 348 98 1;
#X obj 457 72 route bang f;
#X msg 431 101 0;
#X obj 302 71 route bang float;
#X msg 335 241 revwind;
#X obj 143 297 outlet;
#X obj 197 363 accum;
#X obj 194 322 t b f;
#X msg 249 347 set 0;
#X obj 385 360 s recLabel;
#X obj 267 165 t b a b b b b b b;
#X obj 391 303 symbol \$2;
#X obj 468 362 s recCommand;
#X obj 479 310 t f b;
#X obj 202 391 s recTimer;
#X connect 0 0 25 0;
#X connect 0 0 30 0;
#X connect 2 0 3 0;
#X connect 3 0 1 0;
#X connect 4 0 5 1;
#X connect 4 0 41 0;
#X connect 5 0 2 0;
#X connect 6 0 4 0;
#X connect 6 1 8 0;
#X connect 6 2 4 1;
#X connect 7 0 26 0;
#X connect 8 0 5 0;
#X connect 9 0 10 3;
#X connect 9 1 10 4;
#X connect 10 0 13 0;
#X connect 11 0 10 0;
#X connect 11 1 10 1;
#X connect 11 2 10 2;
#X connect 13 0 12 0;
#X connect 14 2 21 0;
#X connect 14 5 11 0;
#X connect 14 6 9 0;
#X connect 14 6 42 0;
#X connect 17 0 16 0;
#X connect 18 0 1 0;
#X connect 19 0 20 0;
#X connect 19 0 47 0;
#X connect 20 0 14 0;
#X connect 20 0 24 0;
#X connect 20 1 44 0;
#X connect 21 0 18 0;
#X connect 22 0 1 0;
#X connect 23 0 25 1;
#X connect 24 0 25 1;
#X connect 25 0 6 0;
#X connect 26 0 8 1;
#X connect 27 0 30 0;
#X connect 28 0 29 0;
#X connect 29 0 1 0;
#X connect 29 0 15 0;
#X connect 30 0 37 0;
#X connect 30 1 28 0;
#X connect 30 3 35 0;
#X connect 30 4 32 0;
#X connect 31 0 28 1;
#X connect 31 0 21 1;
#X connect 32 0 31 0;
#X connect 32 1 33 0;
#X connect 33 0 21 1;
#X connect 33 0 28 1;
#X connect 34 0 19 0;
#X connect 35 0 36 0;
#X connect 35 0 38 0;
#X connect 36 0 19 0;
#X connect 37 0 34 0;
#X connect 37 1 19 0;
#X connect 38 0 1 0;
#X connect 40 0 39 0;
#X connect 40 0 48 0;
#X connect 41 0 40 0;
#X connect 41 1 40 1;
#X connect 42 0 40 0;
#X connect 44 4 23 0;
#X connect 44 5 4 0;
#X connect 44 6 22 0;
#X connect 44 6 4 0;
#X connect 45 0 43 0;
#X connect 47 0 46 0;
#X connect 47 1 45 0;
