#N canvas 153 242 1009 612 10;
#X declare -lib mrpeach -lib Gem;
#X obj 58 85 pipelist;
#X obj 59 62 unpackOSC;
#X obj 308 250 bang;
#X obj 312 272 send draw-skeleton-reset;
#X obj 61 194 route /joint /new_skel;
#X obj 634 23 import mrpeach Gem;
#X obj 59 34 udpreceive 7110;
#X obj 196 81 shell;
#X msg 198 37 /Users/naveda/Dropbox/Work/Topos/Code/osceleton/OSCeleton-master/osceleton
;
#X obj 202 117 print;
#X obj 252 119 print;
#X msg 251 183 10;
#X floatatom 294 175 5 0 0 0 - - -;
#X msg 289 89 exit;
#X obj 229 379 pp sizeSphere;
#X floatatom 234 353 5 0 0 0 - - -;
#X obj 225 402 s skeleton/1/all/messages;
#X obj 307 226 bng 15 250 50 0 empty empty empty 17 7 0 10 -262144
-1 -1;
#X obj 346 354 tgl 15 0 empty empty empty 17 7 0 10 -262144 -1 -1 0
1;
#X obj 338 371 pp lineOnOff;
#X obj 455 424 r dancer;
#X msg 107 444 record \$1;
#X obj 113 422 tgl 15 0 empty empty empty 17 7 0 10 -262144 -1 -1 0
1;
#X msg 175 445 play;
#X msg 214 446 stop;
#X obj 811 521 ppp;
#X obj 808 498 r skeleton/1/pos/r_hand;
#X msg 89 292 \; skeleton/1/\$1/messages data \$3 \$4 \$5;
#X msg 465 531 \; skeleton/1/\$1/messages data \$3 \$4 \$5 \;;
#X obj 196 6 inlet;
#X msg 218 183 5;
#N canvas 1307 366 450 300 correct 0;
#X obj 103 103 list-lastx 3;
#X obj 100 61 list-rev;
#X obj 100 189 pp;
#X obj 245 111 unpack f f f f s;
#X obj 100 215 pp;
#X obj 202 55 inlet;
#X obj 100 241 outlet;
#X obj 99 29 inlet;
#X obj 122 78 t a a;
#X obj 104 127 list-math * -1;
#X obj 104 162 list-math * 1;
#X connect 0 0 9 0;
#X connect 1 0 8 0;
#X connect 2 0 4 0;
#X connect 3 3 2 1;
#X connect 3 4 4 1;
#X connect 4 0 6 0;
#X connect 5 0 10 1;
#X connect 7 0 1 0;
#X connect 8 0 0 0;
#X connect 8 1 3 0;
#X connect 9 0 10 0;
#X connect 10 0 2 0;
#X restore 64 226 pd correct magnitude and rotation;
#X obj 241 159 ii 4;
#X obj 444 128 s skeleton/1/all/messages;
#X obj 444 105 pp alpha;
#X floatatom 445 83 5 0 0 0 - - -;
#X floatatom 70 543 5 0 0 0 - - -;
#X obj 455 447 unpack s f f f f f;
#X floatatom 475 469 5 0 0 0 - - -;
#X floatatom 491 474 5 0 0 0 - - -;
#X floatatom 511 479 5 0 0 0 - - -;
#X floatatom 530 483 5 0 0 0 - - -;
#X floatatom 553 483 5 0 0 0 - - -;
#X obj 465 506 pack s f f f f f;
#X obj 802 560 topos.skeleton 1;
#X msg 264 449 loop \$1;
#X obj 341 432 tgl 15 0 empty empty empty 17 7 0 10 -262144 -1 -1 1
1;
#X obj 99 148 print;
#X obj 97 127 spigot;
#X obj 136 109 tgl 15 0 empty empty empty 17 7 0 10 -262144 -1 -1 0
1;
#X msg 523 87 1;
#X msg 559 86 0;
#X floatatom 439 360 5 0 0 0 - - -;
#X obj 466 230 bng 15 250 50 0 empty empty empty 17 7 0 10 -262144
-1 -1;
#X msg 519 336 2;
#X obj 387 439 pp load;
#X obj 65 516 topos.rec dancer /data/rec1;
#X obj 439 385 makefilename ../pdgender/dancer%s.txt;
#X obj 163 578 bng 15 250 50 0 empty empty empty 17 7 0 10 -262144
-1 -1;
#X obj 164 656 dac~;
#X obj 365 593 bng 15 250 50 0 empty empty empty 17 7 0 10 -262144
-1 -1;
#X obj 160 605 xth-sense-lib/smp.player.mono~;
#X obj 676 422 makefilename dancer%s.txt.wav;
#X obj 474 247 t b b;
#X obj 182 357 r delayTime;
#X obj 151 399 pipe 0;
#X obj 286 645 spigot 1;
#X obj 473 196 r randomBang;
#X obj 753 153 s rconfidence;
#X obj 755 110 random 100;
#X obj 767 133 / 100;
#X obj 633 172 s rgender;
#X obj 702 74 bng 15 250 50 0 empty empty empty 17 7 0 10 -262144 -1
-1;
#X obj 634 108 random 100;
#X obj 646 131 / 100;
#X obj 475 621 vline~;
#X msg 479 600 \$1 100;
#X obj 186 633 *~;
#X obj 553 600 r volume;
#X obj 718 184 random 100;
#X obj 730 207 / 100;
#X obj 726 230 s rangle;
#X obj 728 48 r next;
#X obj 479 318 + 1;
#X obj 321 300 r play;
#X obj 86 349 r stop;
#X obj 439 337 f;
#X obj 315 324 t b b;
#X msg 176 553 stop;
#X obj 344 409 ii 1;
#X obj 796 304 r angle;
#X floatatom 800 326 5 0 0 0 - - -;
#X obj 677 278 div 29;
#X floatatom 573 247 5 0 0 0 - - -;
#X floatatom 678 303 5 0 0 0 - - -;
#X obj 622 277 mod 29;
#X floatatom 621 297 5 0 0 0 - - -;
#X obj 675 326 sel 0 1 2;
#X msg 530 236 97;
#X obj 483 284 urn 97;
#X obj 711 387 s fr;
#X msg 711 352 1;
#X msg 674 354 0.9;
#X msg 742 357 1.1;
#X obj 600 339 s sub;
#X msg 241 565 /Users/naveda/Dropbox/Work/UEMG/Orientandos/LiviaItaboray/Code/pdgender/\$1
;
#X msg 563 212 clear;
#X obj 558 178 r initClear;
#X connect 0 0 48 0;
#X connect 0 0 4 0;
#X connect 1 0 0 0;
#X connect 1 1 0 1;
#X connect 2 0 3 0;
#X connect 4 0 31 0;
#X connect 4 1 2 0;
#X connect 6 0 1 0;
#X connect 7 0 9 0;
#X connect 7 1 10 0;
#X connect 8 0 7 0;
#X connect 12 0 31 1;
#X connect 13 0 7 0;
#X connect 14 0 16 0;
#X connect 15 0 14 0;
#X connect 17 0 2 0;
#X connect 18 0 19 0;
#X connect 19 0 16 0;
#X connect 20 0 37 0;
#X connect 21 0 56 0;
#X connect 22 0 21 0;
#X connect 23 0 56 0;
#X connect 24 0 56 0;
#X connect 26 0 25 0;
#X connect 29 0 8 0;
#X connect 30 0 31 1;
#X connect 31 0 27 0;
#X connect 31 0 56 0;
#X connect 32 0 31 1;
#X connect 34 0 33 0;
#X connect 35 0 34 0;
#X connect 37 0 43 0;
#X connect 37 1 38 0;
#X connect 37 2 39 0;
#X connect 37 3 40 0;
#X connect 37 4 41 0;
#X connect 37 5 42 0;
#X connect 38 0 43 1;
#X connect 39 0 43 2;
#X connect 40 0 43 3;
#X connect 41 0 43 4;
#X connect 42 0 43 5;
#X connect 43 0 28 0;
#X connect 45 0 56 0;
#X connect 46 0 45 0;
#X connect 46 0 66 1;
#X connect 48 0 47 0;
#X connect 49 0 48 1;
#X connect 50 0 35 0;
#X connect 51 0 35 0;
#X connect 52 0 57 0;
#X connect 52 0 62 0;
#X connect 53 0 63 0;
#X connect 54 0 52 0;
#X connect 55 0 56 0;
#X connect 56 0 36 0;
#X connect 57 0 55 0;
#X connect 58 0 61 0;
#X connect 60 0 61 2;
#X connect 61 0 77 0;
#X connect 61 1 66 0;
#X connect 62 0 105 0;
#X connect 63 1 99 0;
#X connect 64 0 65 1;
#X connect 65 0 23 0;
#X connect 66 0 60 0;
#X connect 67 0 53 0;
#X connect 69 0 70 0;
#X connect 70 0 68 0;
#X connect 72 0 69 0;
#X connect 72 0 73 0;
#X connect 72 0 79 0;
#X connect 73 0 74 0;
#X connect 74 0 71 0;
#X connect 75 0 77 1;
#X connect 76 0 75 0;
#X connect 77 0 59 0;
#X connect 77 0 59 1;
#X connect 78 0 76 0;
#X connect 79 0 80 0;
#X connect 80 0 81 0;
#X connect 82 0 72 0;
#X connect 83 0 86 1;
#X connect 83 0 86 0;
#X connect 83 0 104 0;
#X connect 84 0 87 0;
#X connect 85 0 88 0;
#X connect 85 0 24 0;
#X connect 86 0 52 0;
#X connect 87 0 65 0;
#X connect 87 1 86 0;
#X connect 88 0 61 2;
#X connect 89 0 46 0;
#X connect 90 0 91 0;
#X connect 92 0 94 0;
#X connect 93 0 92 0;
#X connect 93 0 95 0;
#X connect 94 0 97 0;
#X connect 95 0 96 0;
#X connect 96 0 83 0;
#X connect 97 0 102 0;
#X connect 97 1 101 0;
#X connect 97 2 103 0;
#X connect 98 0 99 1;
#X connect 99 0 93 0;
#X connect 101 0 100 0;
#X connect 102 0 100 0;
#X connect 103 0 100 0;
#X connect 105 0 61 1;
#X connect 106 0 99 0;
#X connect 107 0 106 0;
