#N canvas 832 109 753 451 10;
#X obj 39 261 *;
#X floatatom 45 286 5 0 0 0 - - -;
#X floatatom -33 81 5 0 0 0 - - -;
#X obj 38 -43 inlet;
#X obj 121 -53 inlet;
#X obj 30 307 outlet;
#X floatatom 150 42 5 0 0 0 - - -;
#X obj 154 -11 mtl/3dDistance;
#X floatatom 32 38 5 0 0 0 - - -;
#X obj -18 -15 zl slice 2;
#X obj 61 -12 zl slice 2;
#X obj 33 17 mtl/2dAngle;
#X obj -32 50 abs;
#X obj -32 102 / 180;
#X floatatom -31 122 5 0 0 0 - - -;
#X obj -31 147 - 0.5;
#X floatatom -33 171 5 0 0 0 - - -;
#X obj -32 191 abs;
#X floatatom -33 212 5 0 0 0 - - -;
#X obj 130 307 outlet signal;
#X obj 134 256 > 0;
#X obj 207 260 sel 0 1;
#X msg 226 290 1;
#X msg 189 283 -1;
#X connect 0 0 1 0;
#X connect 1 0 5 0;
#X connect 2 0 13 0;
#X connect 3 0 7 0;
#X connect 3 0 9 0;
#X connect 4 0 7 1;
#X connect 4 0 10 0;
#X connect 7 0 0 1;
#X connect 7 0 6 0;
#X connect 9 0 11 0;
#X connect 10 0 11 1;
#X connect 11 0 8 0;
#X connect 11 0 12 0;
#X connect 12 0 2 0;
#X connect 13 0 14 0;
#X connect 14 0 15 0;
#X connect 15 0 16 0;
#X connect 16 0 17 0;
#X connect 16 0 20 0;
#X connect 17 0 18 0;
#X connect 18 0 0 0;
#X connect 20 0 21 0;
#X connect 21 0 23 0;
#X connect 21 1 22 0;
#X connect 22 0 19 0;
#X connect 23 0 19 0;
