#N canvas 178 409 983 647 10;
#X obj 405 145 connection \$1;
#X obj 379 174 joint \$1 neck;
#X obj 398 119 joint \$1 head;
#X obj 56 279 joint \$1 l_elbow;
#X obj 196 231 joint \$1 l_shoulder;
#X obj 425 580 joint \$1 r_foot;
#X obj 255 417 joint \$1 l_hip;
#X obj -72 324 joint \$1 l_hand;
#X obj 326 332 joint \$1 torso;
#X obj 544 206 joint \$1 r_shoulder;
#X obj 410 427 joint \$1 r_hip;
#X obj 268 493 joint \$1 l_knee;
#X obj 415 499 joint \$1 r_knee;
#X obj 276 575 joint \$1 l_foot;
#X obj 682 252 joint \$1 r_elbow;
#X obj 800 315 joint \$1 r_hand;
#X obj 143 256 connection \$1;
#X obj 270 459 connection \$1;
#X obj 415 458 connection \$1;
#X obj 421 385 connection \$1;
#X obj 24 302 connection \$1;
#X obj 730 278 connection \$1;
#X obj 287 529 connection \$1;
#X obj 428 537 connection \$1;
#X obj 289 384 connection \$1;
#X obj 280 281 connection \$1;
#X obj 387 276 connection \$1;
#X obj 284 207 connection \$1;
#X obj 438 207 connection \$1;
#X obj 577 246 connection \$1;
#X obj 281 257 connection \$1;
#X obj 448 245 connection \$1;
#X connect 1 0 26 0;
#X connect 1 0 27 1;
#X connect 1 0 28 0;
#X connect 1 0 0 1;
#X connect 2 0 0 0;
#X connect 3 0 16 0;
#X connect 3 0 20 0;
#X connect 4 0 16 1;
#X connect 4 0 27 0;
#X connect 4 0 30 0;
#X connect 5 0 23 1;
#X connect 6 0 17 0;
#X connect 6 0 24 1;
#X connect 6 0 25 0;
#X connect 7 0 20 1;
#X connect 8 0 19 0;
#X connect 8 0 24 0;
#X connect 8 0 26 1;
#X connect 8 0 31 0;
#X connect 8 0 30 1;
#X connect 9 0 28 1;
#X connect 9 0 29 0;
#X connect 9 0 31 1;
#X connect 10 0 18 0;
#X connect 10 0 19 1;
#X connect 10 0 25 1;
#X connect 11 0 17 1;
#X connect 11 0 22 0;
#X connect 12 0 18 1;
#X connect 12 0 23 0;
#X connect 13 0 22 1;
#X connect 14 0 21 0;
#X connect 14 0 29 1;
#X connect 15 0 21 1;
