#N canvas 904 393 909 504 10;
#X declare -lib mrpeach;
#X declare -lib mrpeach;
#X declare -lib mrpeach;
#X declare -lib mrpeach;
#X declare -lib mrpeach;
#X declare -lib mrpeach;
#X declare -lib mrpeach;
#X declare -lib mrpeach;
#X declare -lib mrpeach;
#X declare -lib mrpeach;
#X declare -lib mrpeach;
#X declare -lib mrpeach;
#X declare -lib mrpeach;
#X declare -lib mrpeach;
#X msg -4 433 test2w;
#N canvas 438 186 456 363 info 0;
#X text 10 143 righthand lefthand rightelbow leftelbow rightfoot leftfoot
rightknee leftknee head torso leftshoulder rightshoulder lefthip righthip
closesthand;
#X text 12 124 Possible Synapse joints:;
#X text 40 220 [syUnit lefthand 1 1];
#X text 44 94 [syUnit joint body_traj world_traj];
#X text 40 296 [receive lefthand/body];
#X text 41 315 [receive lefthand/world];
#X text 19 274 Retrieve positions from the outlets or from receive:
;
#X text 23 349 ATTENTION: if you set a data stream and there is no
receive;
#X text 22 207 Ex:;
#X text 15 81 Usage;
#X text 87 368 it generates an error!;
#X text 43 238 Extracts left hand both body- and world-trajectories
;
#X text 8 22 Start synapse;
#X text 10 46 How to get data from synapse:;
#X restore 7 37 pd info about synapse;
#X text 34 154 Necessary stuff...;
#X obj 268 218 r oscp;
#X obj 428 136 r oscp;
#X obj 631 205 r oscp;
#X obj 341 333 r oscp;
#X obj 347 400 r oscp;
#X obj 611 416 r oscp;
#N canvas 713 261 506 471 initialization 0;
#X obj 46 20 sendOSC;
#X msg 53 -13 connect localhost 12346;
#X obj 41 -47 t b b;
#X obj 42 -75 ii;
#X obj 46 -94 bng 15 250 50 0 empty empty empty 17 7 0 10 -262144 -1
-1;
#X obj 209 -13 r synapseInitialization;
#X obj 25 97 unpackOSC;
#X obj 30 66 udpreceive 12345;
#X obj 27 119 pipelist;
#X obj 26 150 s oscp;
#X obj 42 44 tgl 15 0 empty empty empty 17 7 0 10 -262144 -1 -1 1 1
;
#X obj 218 15 pddp/print;
#X connect 0 0 10 0;
#X connect 1 0 0 0;
#X connect 2 1 1 0;
#X connect 3 0 2 0;
#X connect 4 0 3 0;
#X connect 5 0 0 0;
#X connect 5 0 11 0;
#X connect 6 0 8 0;
#X connect 7 0 6 0;
#X connect 8 0 9 0;
#X restore 9 69 pd initialization;
#X text 30 172 If you send data you need a receive;
#X text 231 35 SKELETON;
#X obj 461 221 s markTrack;
#X obj 494 197 bang;
#X msg 452 199 1;
#X obj 602 341 r oscp;
#X obj 263 174 r oscp;
#X obj 628 80 r oscp;
#X obj 418 44 r oscp;
#X obj 287 84 r oscp;
#X obj 319 277 r oscp;
#X obj 580 285 r oscp;
#X obj 644 145 r oscp;
#N canvas 1208 382 529 458 synapse2osceleton 0;
#X obj 23 320 r lefthand/world;
#X obj 177 166 r rightelbow/world;
#X obj 175 186 r rightelbow/body;
#X obj 198 593 r rightfoot/world;
#X obj 120 17 r head/world;
#X obj 68 166 r leftelbow/world;
#X obj 67 187 r leftelbow/body;
#X obj 27 344 r lefthand/body;
#X obj 201 617 r rightfoot/body;
#X obj 232 522 r rightknee/world;
#X obj 233 547 r rightknee/body;
#X obj 205 325 r righthand/world;
#X obj 210 349 r righthand/body;
#X obj 86 595 r leftfoot/world;
#X obj 89 619 r leftfoot/body;
#X obj -2 517 r leftknee/world;
#X obj -1 542 r leftknee/body;
#X obj 128 233 r torso/world;
#X obj 98 286 r torso/body;
#X obj -1 412 r lefthip/world;
#X obj 221 416 r righthip/world;
#X obj 12 438 r lefthip/body;
#X obj 222 440 r righthip/body;
#X obj 12 60 r leftshoulder/world;
#X obj 8 81 r leftshoulder/body;
#X obj 229 64 r rightshoulder/world;
#X obj 231 84 r rightshoulder/body;
#X obj 133 40 r head/body;
#X msg -14 106 \; /joint l_shoulder 1 \$1 \$2 \$3 \;;
#X msg 259 113 \; /joint r_shoulder 1 \$1 \$2 \$3 \;;
#X msg -5 221 \; /joint l_elbow 1 \$1 \$2 \$3 \;;
#X msg 217 26 \; /joint head 1 \$1 \$2 \$3 \;;
#X msg 240 217 \; /joint r_elbow 1 \$1 \$2 \$3 \;;
#X msg 196 267 \; /joint torso 1 \$1 \$2 \$3 \;;
#X msg -6 370 \; /joint l_hand 1 \$1 \$2 \$3 \;;
#X msg 235 373 \; /joint r_hand 1 \$1 \$2 \$3 \;;
#X msg 1 462 \; /joint l_hip 1 \$1 \$2 \$3 \;;
#X msg 242 465 \; /joint r_hip 1 \$1 \$2 \$3 \;;
#X msg 298 553 \; /joint r_knee 1 \$1 \$2 \$3 \;;
#X msg 55 550 \; /joint l_knee 1 \$1 \$2 \$3 \;;
#X msg 33 644 \; /joint l_foot 1 \$1 \$2 \$3 \;;
#X msg 283 639 \; /joint r_foot 1 \$1 \$2 \$3 \;;
#X connect 0 0 34 0;
#X connect 1 0 32 0;
#X connect 2 0 32 0;
#X connect 3 0 41 0;
#X connect 4 0 31 0;
#X connect 5 0 30 0;
#X connect 6 0 30 0;
#X connect 7 0 34 0;
#X connect 8 0 41 0;
#X connect 9 0 38 0;
#X connect 10 0 38 0;
#X connect 11 0 35 0;
#X connect 12 0 35 0;
#X connect 13 0 40 0;
#X connect 14 0 40 0;
#X connect 15 0 39 0;
#X connect 16 0 39 0;
#X connect 17 0 33 0;
#X connect 18 0 33 0;
#X connect 19 0 36 0;
#X connect 20 0 37 0;
#X connect 21 0 36 0;
#X connect 22 0 37 0;
#X connect 23 0 28 0;
#X connect 24 0 28 0;
#X connect 25 0 29 0;
#X connect 26 0 29 0;
#X connect 27 0 31 0;
#X restore 7 102 pd synapse2osceleton namespace;
#X obj -5 458 _documentation changeLog/synapseSkeleton;
#X obj -6 334 sendOSC;
#X msg 1 301 connect localhost 12346;
#X obj -29 278 t b b;
#X obj -28 250 ii;
#X obj -24 231 bng 15 250 50 0 empty empty empty 17 7 0 10 -262144
-1 -1;
#X obj 157 301 r synapseInitialization;
#X obj 727 29 unpackOSC;
#X obj 729 51 pipelist;
#X obj 729 72 s oscp;
#X msg 645 34 mode 1;
#X obj 260 197 syUnit leftelbow 0 1;
#X obj 728 -1 udpreceive 12347;
#X obj 424 166 syUnit torso 0 1 1;
#X obj 423 65 syUnit head 0 1;
#X obj 289 110 syUnit leftshoulder 0 1;
#X obj 348 424 syUnit leftfoot 0 1;
#X obj 337 357 syUnit leftknee 0 1;
#X obj 604 360 syUnit rightknee 0 1;
#X obj 613 435 syUnit rightfoot 0 1;
#X obj 633 225 syUnit righthand 0 1;
#X obj 625 103 syUnit rightshoulder 0 1;
#X obj 315 300 syUnit lefthip 0 1;
#X obj 584 303 syUnit righthip 0 1;
#X obj 641 168 syUnit rightelbow 0 1;
#X obj 267 240 syUnit lefthand 0 1 1;
#X connect 0 0 24 0;
#X connect 3 0 49 0;
#X connect 4 0 37 0;
#X connect 5 0 44 0;
#X connect 6 0 41 0;
#X connect 7 0 40 0;
#X connect 8 0 43 0;
#X connect 13 0 14 0;
#X connect 14 0 12 0;
#X connect 15 0 42 0;
#X connect 16 0 35 0;
#X connect 17 0 45 0;
#X connect 18 0 38 0;
#X connect 19 0 39 0;
#X connect 20 0 46 0;
#X connect 21 0 47 0;
#X connect 22 0 48 0;
#X connect 26 0 25 0;
#X connect 27 1 26 0;
#X connect 28 0 27 0;
#X connect 29 0 28 0;
#X connect 30 0 25 0;
#X connect 31 0 32 0;
#X connect 32 0 33 0;
#X connect 34 0 33 0;
#X connect 36 0 31 0;
#X connect 37 0 13 0;
