#N canvas 2366 286 658 462 10;
#X declare -lib mrpeach;
#X obj 342 35 init;
#X obj 404 63 symbol \$1;
#X obj 52 194 inlet;
#X obj 121 193 bng 15 250 50 0 empty empty empty 17 7 0 10 -262144
-1 -1;
#X obj 343 14 bng 15 250 50 0 empty empty empty 17 7 0 10 -262144 -1
-1;
#X obj 93 401 pack f f f s;
#X obj 63 352 unpack f f f;
#X msg 97 492 \; \$4 \$1 \$2 \$3 \;;
#X obj 415 406 tgl 15 0 empty empty empty 17 7 0 10 -262144 -1 -1 1
1;
#X obj 413 425 metro 2000;
#X obj 407 546 s synapseInitialization;
#X obj 419 375 init 1;
#X obj 415 353 bng 15 250 50 0 empty empty empty 17 7 0 10 -262144
-1 -1;
#X obj 413 447 symbol;
#X obj 442 238 s2l;
#X obj 252 206 makesymbol /%s;
#X obj 443 264 makesymbol /%s_trackjointpos;
#X obj 141 336 makesymbol %s/body;
#X obj 90 225 makesymbol %s_pos_body;
#X obj 27 34 import mrpeach;
#X obj 92 252 prepend set;
#X obj 241 247 makesymbol %s_pos_world;
#X obj 35 454 outlet;
#X obj 245 403 pack f f f s;
#X obj 231 366 unpack f f f;
#X msg 260 495 \; \$4 \$1 \$2 \$3 \;;
#X obj 236 276 prepend set;
#X obj 236 297 routeOSC /*;
#X obj 202 457 outlet;
#X obj 321 333 makesymbol %s/world;
#X obj 67 281 routeOSC /*;
#X msg 483 506 send \$1 2;
#X obj 410 470 t s s s;
#X msg 406 508 send \$1 1;
#X msg 551 505 send \$1 3;
#X obj 283 65 \$2;
#X obj 277 105 tgl 10 0 empty empty empty 17 7 0 10 -262144 -1 -1 0
1;
#X obj 95 452 spigot;
#X obj 262 450 spigot;
#X obj 292 105 tgl 10 0 empty empty empty 17 7 0 10 -262144 -1 -1 1
1;
#X obj 311 66 \$3;
#X msg 218 527 \; oscPort dancer \$4 \$1 \$2 \$3 \;;
#X obj 308 105 tgl 10 0 empty empty empty 17 7 0 10 -262144 -1 -1 1
1;
#X obj 338 67 \$4;
#X obj 72 327 spigot 0;
#X obj 260 335 spigot 0;
#X msg 27 532 \; oscPort dancer \$4 \$1 \$2 \$3 \;;
#X obj 497 416 random 500;
#X obj 495 385 t b b;
#X obj 333 305 list-math / 1;
#X obj 84 304 list-math / 1;
#X obj 116 156 route mode;
#X obj 464 170 select 0 1;
#X msg 468 197 1;
#X msg 497 195 1000;
#X obj 490 231 f;
#X obj 159 195 bng 15 250 50 0 empty empty empty 17 7 0 10 -262144
-1 -1;
#X obj 535 453 bng 15 250 50 0 empty empty empty 17 7 0 10 -262144
-1 -1;
#X obj 489 450 delay;
#X obj 364 77 \$5;
#X connect 0 0 1 0;
#X connect 0 0 35 0;
#X connect 0 0 40 0;
#X connect 0 0 43 0;
#X connect 0 0 59 0;
#X connect 1 0 14 0;
#X connect 1 0 15 0;
#X connect 1 0 17 0;
#X connect 1 0 29 0;
#X connect 2 0 30 0;
#X connect 2 0 27 0;
#X connect 2 0 51 0;
#X connect 3 0 18 0;
#X connect 4 0 0 0;
#X connect 5 0 37 0;
#X connect 6 0 5 0;
#X connect 6 1 5 1;
#X connect 6 2 5 2;
#X connect 8 0 9 0;
#X connect 9 0 48 0;
#X connect 9 0 57 0;
#X connect 11 0 8 0;
#X connect 12 0 11 0;
#X connect 13 0 32 0;
#X connect 14 0 16 0;
#X connect 15 0 18 0;
#X connect 15 0 21 0;
#X connect 16 0 13 1;
#X connect 17 0 5 3;
#X connect 18 0 20 0;
#X connect 20 0 30 0;
#X connect 21 0 26 0;
#X connect 23 0 38 0;
#X connect 24 0 23 0;
#X connect 24 1 23 1;
#X connect 24 2 23 2;
#X connect 26 0 27 0;
#X connect 27 0 49 0;
#X connect 29 0 23 3;
#X connect 30 0 50 0;
#X connect 31 0 10 0;
#X connect 32 0 33 0;
#X connect 32 1 31 0;
#X connect 32 2 34 0;
#X connect 33 0 10 0;
#X connect 34 0 10 0;
#X connect 35 0 36 0;
#X connect 36 0 37 1;
#X connect 36 0 42 0;
#X connect 37 0 7 0;
#X connect 37 0 46 0;
#X connect 38 0 25 0;
#X connect 38 0 41 0;
#X connect 39 0 38 1;
#X connect 40 0 39 0;
#X connect 42 0 44 1;
#X connect 42 0 45 1;
#X connect 43 0 42 0;
#X connect 44 0 6 0;
#X connect 45 0 24 0;
#X connect 47 0 58 1;
#X connect 48 0 58 0;
#X connect 48 1 47 0;
#X connect 49 0 45 0;
#X connect 49 0 28 0;
#X connect 50 0 44 0;
#X connect 50 0 22 0;
#X connect 51 0 52 0;
#X connect 51 0 56 0;
#X connect 52 0 53 0;
#X connect 52 1 54 0;
#X connect 53 0 55 0;
#X connect 54 0 55 0;
#X connect 55 0 49 1;
#X connect 55 0 50 1;
#X connect 58 0 13 0;
#X connect 59 0 55 0;
#X coords 0 -1 1 1 220 20 1 100 100;
