#N canvas 742 284 937 710 10;
#X obj 32 -9 inlet;
#X obj 390 10 inlet;
#X obj 58 390 msgfile;
#X msg 100 78 clear;
#X obj 41 618 outlet;
#X obj 30 41 route record get clear float stop write read;
#X obj 14 459 list-splat 1;
#X obj 44 587 spigot;
#X msg 6 355 flush;
#X obj 204 528 ppp;
#X obj 113 521 ppp;
#X floatatom 139 78 5 0 0 0 - - -;
#X obj 391 34 ppp;
#X obj 67 134 route float;
#X msg 128 155 1;
#X obj 66 176 any;
#X obj 333 485 pp add;
#X obj 440 608 pp replace;
#X obj 417 193 f;
#X obj 493 532 lister;
#X obj 2 389 bng 15 250 50 0 empty empty empty 17 7 0 10 -262144 -1
-1;
#X obj 56 428 print a;
#X obj 112 441 print b;
#X msg 126 317;
#X obj 421 91;
#X obj 342 191 bng 15 250 50 0 empty empty empty 17 7 0 10 -262144
-1 -1;
#X obj 242 566 ppp;
#X obj 151 557 ppp;
#X obj 436 376 sroute;
#X msg 185 380 add 1 d f;
#X msg 181 417 add 2 d a f;
#X msg 336 136 1;
#X obj 148 281 spigot;
#X obj 183 260 tgl 15 0 empty empty empty 17 7 0 10 -262144 -1 -1 1
1;
#X obj 419 417 bng 15 250 50 0 empty empty empty 17 7 0 10 -262144
-1 -1;
#X obj 496 416 bng 15 250 50 0 empty empty empty 17 7 0 10 -262144
-1 -1;
#X obj 455 435 f+;
#X obj 380 123 t b b b b b b b a b;
#X floatatom 455 461 5 0 0 0 - - -;
#X msg 497 376 0;
#X obj 451 413 bang;
#X obj 437 486 f;
#X floatatom 439 510 5 0 0 0 - - -;
#X obj 437 579 pp;
#X obj 437 535 t b f;
#X obj 417 642 any;
#X msg 475 563 goto \$1;
#X obj 560 577 pp;
#X obj 563 606 pp add;
#X obj 587 538 lister;
#X msg 454 77 s s s;
#X connect 0 0 5 0;
#X connect 1 0 12 0;
#X connect 2 0 6 0;
#X connect 2 0 10 0;
#X connect 2 0 21 0;
#X connect 2 0 28 0;
#X connect 2 0 40 0;
#X connect 2 1 22 0;
#X connect 2 1 9 0;
#X connect 3 0 2 0;
#X connect 5 1 13 0;
#X connect 5 2 3 0;
#X connect 5 3 11 0;
#X connect 6 1 7 0;
#X connect 7 0 4 0;
#X connect 8 0 2 0;
#X connect 13 0 15 0;
#X connect 13 1 14 0;
#X connect 14 0 15 0;
#X connect 17 0 45 0;
#X connect 18 0 28 1;
#X connect 18 0 43 1;
#X connect 18 0 47 1;
#X connect 19 0 43 0;
#X connect 20 0 2 0;
#X connect 25 0 18 0;
#X connect 28 0 34 0;
#X connect 28 1 35 0;
#X connect 29 0 2 0;
#X connect 30 0 2 0;
#X connect 31 0 18 1;
#X connect 32 0 8 0;
#X connect 33 0 32 1;
#X connect 34 0 41 0;
#X connect 36 0 38 0;
#X connect 37 5 32 0;
#X connect 37 6 18 0;
#X connect 37 7 19 1;
#X connect 37 7 49 1;
#X connect 37 8 39 0;
#X connect 38 0 41 1;
#X connect 39 0 36 1;
#X connect 40 0 36 0;
#X connect 41 0 42 0;
#X connect 42 0 44 0;
#X connect 43 0 17 0;
#X connect 44 0 19 0;
#X connect 44 1 46 0;
#X connect 46 0 45 0;
#X connect 47 0 48 0;
#X connect 48 0 45 0;
#X connect 49 0 47 0;
#X connect 50 0 37 0;
