#N canvas 835 182 1051 697 10;
#X declare -lib iem_tab;
#X obj 160 -27 inlet;
#X obj 157 3 unpack f f;
#X obj 157 28 change;
#X obj -23 101 alpha 1;
#X obj -20 167 translateXYZ;
#X obj 66 310 scaleXYZ 1 1 1;
#X obj 104 269 line;
#X obj 41 109 line;
#X obj -18 -72 inlet;
#X obj 112 114 bng 15 250 50 0 empty empty empty 17 7 0 10 -262144
-1 -1;
#X floatatom 122 292 5 0 0 0 - - -;
#X floatatom 45 130 5 0 0 0 - - -;
#X obj 43 -19 inlet;
#X obj -25 55 spigot 0;
#X obj 51 13 select 1 0;
#X msg 102 217 0 300;
#X obj 156 99 tabread \$0-xlive;
#X obj 158 119 tabread \$0-ylive;
#X obj 159 140 tabread \$0-zlive;
#X obj 161 165 pack f f f;
#X obj 163 190 any;
#X obj 186 74 any;
#X msg 297 87 set \$1-xlive;
#X msg 320 110 set \$1-ylive;
#X msg 344 133 set \$1-zlive;
#X obj 310 42 f;
#X obj 306 16 change;
#X obj 296 400 mtl/3dDistance;
#X obj 257 213 list-enumerate;
#X obj 257 233 unpack f f;
#X obj 292 165 bng 15 250 50 0 empty empty empty 17 7 0 10 -262144
-1 -1;
#X obj 295 373 pack f f f;
#X obj 451 187 t b a;
#X obj 290 346 f;
#X obj 465 300 bng 15 250 50 0 empty empty empty 0 -6 0 8 -262144 -1
-1;
#X floatatom 513 297 5 0 0 0 - - -;
#X floatatom 562 298 5 0 0 0 - - -;
#X text 574 329 min;
#X text 505 328 min_index;
#X obj 257 259 t b b b f f f;
#X obj 453 440 f;
#X obj 530 378 delta;
#X obj 515 440 f;
#X floatatom 523 478 5 0 0 0 - - -;
#X floatatom 451 462 5 0 0 0 - - -;
#X obj 514 459 abs;
#X obj 485 404 t b b;
#X obj 450 535 outlet;
#X obj 637 363 threshold 0.4 10 0.4 10;
#X obj 641 386 bng 15 250 50 0 empty empty empty 17 7 0 10 -262144
-1 -1;
#X obj 772 388 bng 15 250 50 0 empty empty empty 17 7 0 10 -262144
-1 -1;
#X msg 683 342 set \$1 10 \$1 10;
#X obj 741 254 s topos/bang/th;
#X msg 742 228 0.2;
#X obj 257 191 tabdump \$0-xlive;
#X obj 299 445 tabwrite \$0-dist;
#X obj 316 467 table \$0-dist;
#X obj 664 117 loadbang;
#X obj 709 108 \$0;
#X obj 724 468 outlet IDnumber;
#X obj 465 271 tab_min_index \$0-dist;
#X obj 648 1 inlet;
#X obj 165 330 list-len;
#X floatatom 172 374 5 0 0 0 - - -;
#X obj 167 393 pack f \$0;
#X msg 163 420 \; \$2-dist resize \$1 \;;
#X obj 172 352 change;
#X obj -25 15 separator;
#X obj 563 555 pp element;
#X obj 635 552 pp velocity;
#X obj 449 494 pack f f;
#X obj 715 557 pp minDistance;
#X obj 808 557 pp posExplosion;
#X obj 322 299 tabread \$0-ylive;
#X obj 348 330 tabread \$0-zlive;
#X obj -18 -49 route get;
#X obj 104 -50 route distanceFrom;
#X obj 118 520 pp distanceFrom;
#X obj 167 458 bang;
#X obj 63 441 bng 15 250 50 0 empty empty empty 17 7 0 10 -262144 -1
-1;
#X obj 134 494 tabdump \$0-dist;
#X obj 585 521 pp speed1;
#X obj -26 284 colorRGB 1 1 1 1;
#X msg 45 77 1 \, 0 400;
#X msg 48 351 draw line;
#X msg 47 385 draw point;
#X floatatom -14 321 5 0 0 0 - - -;
#X floatatom 20 321 5 0 0 0 - - -;
#X msg 53 406 draw fill;
#X msg 150 221 0 \, 0.5 200;
#X floatatom 93 245 5 0 0 0 - - -;
#X msg 61 51 1;
#X obj -21 260 rotateXYZ;
#X obj -6 216 random 180;
#X obj 4 226 random 180;
#X obj 24 232 random 180;
#X obj 160 50 t b f b;
#X obj 222 36 bng 15 250 50 0 empty empty empty 17 7 0 10 -262144 -1
-1;
#X obj -25 435 sphere 1 50;
#X obj 75 363 loadbang;
#X obj 406 -42 route volume xyzRange meanPosition speed getPosPoint
;
#X text 529 -79 comment;
#X obj 591 19 > 0.1;
#X obj 538 84 pp gateExplosion;
#X obj 125 77 spigot;
#X obj 300 -11 r topos/\$3/ID;
#X obj 452 156 r \$2;
#X obj 739 189 s interact/\$1/ID;
#X obj 707 312 \$4;
#X obj 556 589 s interact/\$1/features;
#X obj 384 584 s interact/\$1/bang;
#X obj 550 216 s.velocity;
#X obj 176 574 outlet;
#X symbolatom 698 8 72 0 0 0 - - -;
#X obj 698 27 _documentation changeLog/toposInteract;
#X obj 404 -67 topos.features \$1;
#X connect 0 0 1 0;
#X connect 1 0 2 0;
#X connect 2 0 96 0;
#X connect 3 0 4 0;
#X connect 4 0 92 0;
#X connect 5 0 98 0;
#X connect 6 0 5 1;
#X connect 6 0 5 2;
#X connect 6 0 5 3;
#X connect 6 0 10 0;
#X connect 7 0 11 0;
#X connect 7 0 82 4;
#X connect 8 0 75 0;
#X connect 9 0 89 0;
#X connect 9 0 83 0;
#X connect 12 0 13 1;
#X connect 12 0 14 0;
#X connect 13 0 3 0;
#X connect 14 0 83 0;
#X connect 14 1 15 0;
#X connect 15 0 6 0;
#X connect 16 0 19 0;
#X connect 16 0 4 1;
#X connect 17 0 19 1;
#X connect 17 0 4 2;
#X connect 18 0 19 2;
#X connect 18 0 4 3;
#X connect 19 0 20 0;
#X connect 20 0 72 0;
#X connect 21 0 16 0;
#X connect 21 0 17 0;
#X connect 21 0 18 0;
#X connect 22 0 16 0;
#X connect 22 0 54 0;
#X connect 23 0 17 0;
#X connect 23 0 73 0;
#X connect 24 0 18 0;
#X connect 24 0 74 0;
#X connect 25 0 22 0;
#X connect 25 0 23 0;
#X connect 25 0 24 0;
#X connect 26 0 25 0;
#X connect 27 0 55 0;
#X connect 27 0 78 0;
#X connect 28 0 29 0;
#X connect 28 1 60 0;
#X connect 29 0 39 0;
#X connect 29 1 33 1;
#X connect 30 0 54 0;
#X connect 31 0 27 0;
#X connect 32 0 54 0;
#X connect 32 1 27 1;
#X connect 32 1 111 0;
#X connect 33 0 31 0;
#X connect 35 0 40 1;
#X connect 36 0 41 0;
#X connect 36 0 48 0;
#X connect 36 0 71 0;
#X connect 39 2 33 0;
#X connect 39 3 73 0;
#X connect 39 4 74 0;
#X connect 39 5 55 1;
#X connect 40 0 44 0;
#X connect 41 0 42 1;
#X connect 42 0 45 0;
#X connect 43 0 69 0;
#X connect 43 0 70 1;
#X connect 44 0 68 0;
#X connect 44 0 70 0;
#X connect 45 0 43 0;
#X connect 46 0 40 0;
#X connect 46 1 42 0;
#X connect 48 0 49 0;
#X connect 48 1 50 0;
#X connect 50 0 46 0;
#X connect 51 0 48 0;
#X connect 53 0 52 0;
#X connect 54 0 28 0;
#X connect 54 0 62 0;
#X connect 57 0 58 0;
#X connect 57 0 108 0;
#X connect 58 0 59 0;
#X connect 58 0 107 0;
#X connect 60 0 34 0;
#X connect 60 1 35 0;
#X connect 60 2 36 0;
#X connect 61 0 51 0;
#X connect 62 0 66 0;
#X connect 63 0 64 0;
#X connect 64 0 65 0;
#X connect 66 0 63 0;
#X connect 67 0 13 0;
#X connect 68 0 109 0;
#X connect 69 0 109 0;
#X connect 70 0 47 0;
#X connect 70 0 1 0;
#X connect 70 0 110 0;
#X connect 71 0 109 0;
#X connect 72 0 109 0;
#X connect 73 0 31 1;
#X connect 74 0 31 2;
#X connect 75 0 76 0;
#X connect 75 1 67 0;
#X connect 77 0 109 0;
#X connect 78 0 80 0;
#X connect 79 0 80 0;
#X connect 80 0 77 0;
#X connect 81 0 109 0;
#X connect 82 0 5 0;
#X connect 83 0 7 0;
#X connect 84 0 98 0;
#X connect 85 0 98 0;
#X connect 86 0 98 1;
#X connect 87 0 98 2;
#X connect 88 0 98 0;
#X connect 89 0 6 0;
#X connect 90 0 6 0;
#X connect 91 0 7 0;
#X connect 92 0 82 0;
#X connect 93 0 92 1;
#X connect 94 0 92 2;
#X connect 95 0 92 3;
#X connect 96 0 104 0;
#X connect 96 1 21 0;
#X connect 96 2 93 0;
#X connect 96 2 94 0;
#X connect 96 2 95 0;
#X connect 97 0 96 0;
#X connect 99 0 88 0;
#X connect 100 3 102 0;
#X connect 102 0 103 0;
#X connect 102 0 104 1;
#X connect 103 0 109 0;
#X connect 104 0 9 0;
#X connect 105 0 26 0;
#X connect 106 0 32 0;
#X connect 108 0 51 0;
#X connect 111 0 81 0;
#X connect 113 0 114 0;
#X connect 115 0 100 0;
