#N canvas 872 158 920 709 10;
#X obj 269 125 list-lastx 4;
#X obj -9 4 unpack f f f;
#X obj 272 101 f;
#X obj 87 -2 tgl 15 0 empty empty empty 17 7 0 10 -262144 -1 -1 1 1
;
#X obj 121 128 list-lastx 4;
#X obj 124 104 f;
#X obj 1 128 list-lastx 4;
#X obj 3 109 f;
#X obj -16 150 list-mean;
#X obj 123 151 list-mean;
#X obj 270 149 list-mean;
#X obj 213 433 pack f f f;
#X obj 568 54 r topos/mean1;
#N canvas 0 22 450 278 (subpatch) 0;
#X array \$0-x 108 float 3;
#A 0 0 0 0 0 0 0 0 0 0 0 0 0 0 0 0 0 0 0 0 0 0 0 0 0 0 0 0 0 0 0 0
0 0 0 0 0 0 0 0 0 0 0 0 0 0 0 0 0 0 0 0 0 0 0 0 0 0 0 0 0 0 0 0 0 0
0 0 0 0 0 0 0 0 0 0 0 0 0 0 0 0 0 0 0 0 0 0 0 0 0 0 0 0 0 0 0 0 0 0
0 0 0 0 0 0 0 0 0;
#X coords 0 1 107 -1 20 14 1 0 0;
#X restore 653 296 graph;
#N canvas 0 22 450 278 (subpatch) 0;
#X array \$0-y 108 float 3;
#A 0 0 0 0 0 0 0 0 0 0 0 0 0 0 0 0 0 0 0 0 0 0 0 0 0 0 0 0 0 0 0 0
0 0 0 0 0 0 0 0 0 0 0 0 0 0 0 0 0 0 0 0 0 0 0 0 0 0 0 0 0 0 0 0 0 0
0 0 0 0 0 0 0 0 0 0 0 0 0 0 0 0 0 0 0 0 0 0 0 0 0 0 0 0 0 0 0 0 0 0
0 0 0 0 0 0 0 0 0;
#X coords 0 1 107 -1 20 14 1 0 0;
#X restore 653 326 graph;
#N canvas 0 22 450 278 (subpatch) 0;
#X array \$0-z 108 float 3;
#A 0 0 0 0 0 0 0 0 0 0 0 0 0 0 0 0 0 0 0 0 0 0 0 0 0 0 0 0 0 0 0 0
0 0 0 0 0 0 0 0 0 0 0 0 0 0 0 0 0 0 0 0 0 0 0 0 0 0 0 0 0 0 0 0 0 0
0 0 0 0 0 0 0 0 0 0 0 0 0 0 0 0 0 0 0 0 0 0 0 0 0 0 0 0 0 0 0 0 0 0
0 0 0 0 0 0 0 0 0;
#X coords 0 1 107 -1 20 14 1 0 0;
#X restore 653 361 graph;
#X obj 86 45 t b b b;
#X obj 2 336 pp;
#X obj -13 359 pp;
#X obj 87 19 metro 50;
#X obj 88 -30 init 1;
#X obj 258 333 f;
#X obj 13 268 t l b;
#X obj 50 381 pack f f f;
#X obj 401 405 f+;
#X obj 415 429 select;
#X floatatom 375 428 5 0 0 0 - - -;
#X obj 377 407 bng 15 250 50 0 empty empty empty 17 7 0 10 -262144
-1 -1;
#X msg 430 404 1;
#X msg 553 207 \; \$2-zlive resize \$1 \; \$2-ylive resize \$1 \; \$2-xlive
resize \$1 \; \$2-dist resize \$1 \;;
#X obj 553 280 table \$0-xlive;
#X obj 552 304 table \$0-ylive;
#X obj 552 326 table \$0-zlive;
#X obj 218 371 tabread \$0-xlive;
#X obj 242 392 tabread \$0-ylive;
#X obj 268 411 tabread \$0-zlive;
#X obj 347 308 tabset \$0-zlive;
#X obj 157 289 tabset \$0-ylive;
#X obj 14 289 tabset \$0-xlive;
#X obj 582 -9 bng 15 250 50 0 empty empty empty 17 7 0 10 -262144 -1
-1;
#X obj 582 10 f \$0;
#X msg 567 101 \; \$4-x const \$1 \; \$4-y const \$2 \; \$4-z const
\$3 \;;
#X obj 568 79 list append \$0;
#X obj 424 82 any;
#X text 409 101 sampling;
#X text 318 16 points;
#X obj 129 -7 \$2;
#X obj 292 10 \$3;
#X obj 428 14 init 10;
#X obj 485 -23 loadbang;
#X obj 462 362 \$0;
#X obj 553 184 pack f \$0;
#X obj 489 406 outlet IDnumber;
#N canvas 656 241 450 300 how 0;
#X obj 134 63 tabread \$0-xlive;
#X obj 136 83 tabread \$0-ylive;
#X obj 137 104 tabread \$0-zlive;
#X obj 139 129 pack f f f;
#X obj 137 154 any;
#X obj 114 40 any;
#X msg 48 63 set \$1-xlive;
#X msg 54 83 set \$1-ylive;
#X msg 55 104 set \$1-zlive;
#X obj 46 38 f;
#X connect 0 0 3 0;
#X connect 1 0 3 1;
#X connect 2 0 3 2;
#X connect 3 0 4 0;
#X connect 5 0 0 0;
#X connect 5 0 1 0;
#X connect 5 0 2 0;
#X connect 6 0 0 0;
#X connect 7 0 1 0;
#X connect 8 0 2 0;
#X connect 9 0 6 0;
#X connect 9 0 7 0;
#X connect 9 0 8 0;
#X restore 489 465 pd how to get the arrays outside;
#X obj -4 470 outlet list x+y+z;
#X obj 212 477 outlet last point;
#X obj 120 475 outlet mean;
#X obj 374 475 outlet wheel;
#X obj 299 -18 loadbang;
#X obj 221 459 s topos/\$1/last;
#X obj 381 451 s topos/\$1/wheel;
#X obj 119 456 s topos/\$1/mean;
#X obj -25 442 s topos/\$1/outputList;
#X obj 489 382 s topos/\$1/ID;
#X obj -1 -36 inlet guide;
#X obj 135 -32 inlet metro;
#X obj 395 -151 inlet points;
#X obj -3 239 list-math -;
#X obj -16 218 spigot;
#X obj 30 195 select 0 1;
#X msg 30 216 0;
#X msg 59 216 1;
#X obj 6 173 r topos/\$1/subMean;
#X obj 637 22 s topos/\$1/subMean;
#X obj 639 2 tgl 15 0 empty empty empty 17 7 0 10 -262144 -1 -1 0 1
;
#X obj 156 265 t l b;
#X obj 153 242 list-math -;
#X obj 139 219 spigot;
#X obj 186 198 select 0 1;
#X msg 186 219 0;
#X msg 215 219 1;
#X obj 162 176 r topos/\$1/subMean;
#X obj 352 287 t l b;
#X obj 348 261 list-math -;
#X obj 328 241 spigot;
#X obj 354 198 select 0 1;
#X msg 354 219 0;
#X msg 383 219 1;
#X obj 341 165 r topos/\$1/subMean;
#X obj 104 195 init 0;
#X obj 252 199 init 0;
#X obj 456 166 init 0;
#X obj -14 -64 r refSphere/\$1/xyz;
#X obj 481 288 bng 15 250 50 0 empty empty empty 17 7 0 10 -262144
-1 -1;
#X floatatom 515 434 5 0 0 0 - - -;
#X obj -55 -91 toposView \$1;
#X obj 411 -131 route points sampleRate;
#X obj -57 -120 inlet;
#X connect 0 0 10 0;
#X connect 0 0 83 0;
#X connect 1 0 7 1;
#X connect 1 1 5 1;
#X connect 1 2 2 1;
#X connect 2 0 0 0;
#X connect 3 0 19 0;
#X connect 4 0 9 0;
#X connect 4 0 76 0;
#X connect 5 0 4 0;
#X connect 6 0 8 0;
#X connect 6 0 67 0;
#X connect 7 0 6 0;
#X connect 8 0 23 0;
#X connect 8 0 68 0;
#X connect 9 0 23 1;
#X connect 9 0 77 0;
#X connect 10 0 23 2;
#X connect 10 0 84 0;
#X connect 11 0 55 0;
#X connect 11 0 59 0;
#X connect 12 0 42 0;
#X connect 16 0 2 0;
#X connect 16 1 5 0;
#X connect 16 2 7 0;
#X connect 16 2 24 0;
#X connect 16 2 50 0;
#X connect 17 0 18 1;
#X connect 18 0 54 0;
#X connect 18 0 62 0;
#X connect 19 0 16 0;
#X connect 20 0 3 0;
#X connect 21 0 33 0;
#X connect 21 0 34 0;
#X connect 21 0 35 0;
#X connect 22 0 38 0;
#X connect 22 1 21 0;
#X connect 23 0 56 0;
#X connect 23 0 61 0;
#X connect 24 0 25 0;
#X connect 24 0 26 0;
#X connect 25 0 28 0;
#X connect 26 0 57 0;
#X connect 26 0 60 0;
#X connect 27 0 24 1;
#X connect 28 0 24 1;
#X connect 33 0 11 0;
#X connect 34 0 11 1;
#X connect 35 0 11 2;
#X connect 39 0 40 0;
#X connect 42 0 41 0;
#X connect 43 0 0 1;
#X connect 43 0 4 1;
#X connect 43 0 6 1;
#X connect 43 0 21 1;
#X connect 43 0 25 1;
#X connect 43 0 51 0;
#X connect 46 0 19 1;
#X connect 47 0 43 0;
#X connect 48 0 43 0;
#X connect 49 0 50 0;
#X connect 50 0 52 0;
#X connect 50 0 63 0;
#X connect 50 0 94 0;
#X connect 51 0 29 0;
#X connect 58 0 47 0;
#X connect 58 0 46 0;
#X connect 64 0 1 0;
#X connect 65 0 3 0;
#X connect 66 0 96 0;
#X connect 67 0 22 0;
#X connect 67 0 17 1;
#X connect 68 0 67 1;
#X connect 69 0 70 0;
#X connect 69 1 71 0;
#X connect 70 0 67 1;
#X connect 70 0 68 1;
#X connect 71 0 68 1;
#X connect 72 0 69 0;
#X connect 74 0 73 0;
#X connect 75 0 37 0;
#X connect 76 0 75 0;
#X connect 76 0 17 0;
#X connect 77 0 76 1;
#X connect 78 0 79 0;
#X connect 78 1 80 0;
#X connect 79 0 76 1;
#X connect 79 0 77 1;
#X connect 80 0 77 1;
#X connect 81 0 78 0;
#X connect 82 0 36 0;
#X connect 83 0 82 0;
#X connect 83 0 18 0;
#X connect 84 0 83 1;
#X connect 85 0 86 0;
#X connect 85 1 87 0;
#X connect 86 0 83 1;
#X connect 86 0 84 1;
#X connect 87 0 84 1;
#X connect 88 0 85 0;
#X connect 89 0 69 0;
#X connect 90 0 78 0;
#X connect 91 0 85 0;
#X connect 92 0 1 0;
#X connect 93 0 50 0;
#X connect 96 0 43 0;
#X connect 96 1 19 1;
#X connect 96 2 95 1;
#X connect 97 0 95 0;
