#N canvas 449 81 920 620 10;
#X obj 277 82 list-lastx 4;
#X obj 17 21 unpack f f f;
#X obj 280 58 f;
#X obj 157 -58 tgl 15 0 empty empty empty 17 7 0 10 -262144 -1 -1 1
1;
#X obj 136 89 list-lastx 4;
#X obj 139 65 f;
#X obj -1 94 list-lastx 4;
#X obj -6 70 f;
#X obj -47 142 list-mean;
#X obj 154 136 list-mean;
#X obj 299 142 list-mean;
#X obj 219 440 pack f f f;
#X obj 151 -14 t b b b;
#X obj -13 372 pp;
#X obj -28 395 pp;
#X obj 157 -37 metro 50;
#X obj 172 -105 init 1;
#X obj 239 343 f;
#X obj 10 309 t l b;
#X obj 130 394 pack f f f;
#X obj 401 405 f+;
#X obj 415 429 select;
#X floatatom 375 428 5 0 0 0 - - -;
#X obj 377 407 bng 15 250 50 0 empty empty empty 17 7 0 10 -262144
-1 -1;
#X msg 430 404 1;
#X obj 553 280 table \$0-xlive;
#X obj 552 304 table \$0-ylive;
#X obj 552 326 table \$0-zlive;
#X obj 218 371 tabread \$0-xlive;
#X obj 242 392 tabread \$0-ylive;
#X obj 268 411 tabread \$0-zlive;
#X obj 347 308 tabset \$0-zlive;
#X obj 106 302 tabset \$0-ylive;
#X obj 11 330 tabset \$0-xlive;
#X obj 423 60 any;
#X text 407 122 sampling;
#X obj 229 -63 \$2;
#X obj 416 -75 \$3;
#X obj 431 -51 init 10;
#X obj 485 -23 loadbang;
#X obj 489 303 \$0;
#X obj 514 386 outlet IDnumber;
#N canvas 656 241 450 300 how 0;
#X obj 46 38 f;
#X obj 134 63 tabread \$0-xlive;
#X obj 136 83 tabread \$0-ylive;
#X obj 137 104 tabread \$0-zlive;
#X obj 139 129 pack f f f;
#X obj 137 154 any;
#X obj 114 40 any;
#X msg 48 63 set \$1-xlive;
#X msg 54 83 set \$1-ylive;
#X msg 55 104 set \$1-zlive;
#X connect 0 0 7 0;
#X connect 0 0 8 0;
#X connect 0 0 9 0;
#X connect 1 0 4 0;
#X connect 2 0 4 1;
#X connect 3 0 4 2;
#X connect 4 0 5 0;
#X connect 6 0 1 0;
#X connect 6 0 2 0;
#X connect 6 0 3 0;
#X connect 7 0 1 0;
#X connect 8 0 2 0;
#X connect 9 0 3 0;
#X restore 489 465 pd how to get the arrays outside;
#X obj -38 468 outlet list x+y+z;
#X obj 218 484 outlet last point;
#X obj 124 509 outlet mean;
#X obj 374 475 outlet wheel;
#X obj 358 -106 loadbang;
#X obj 227 466 s topos/\$1/last;
#X obj 381 451 s topos/\$1/wheel;
#X obj 119 440 s topos/\$1/mean;
#X obj -25 442 s topos/\$1/outputList;
#X obj 489 361 s topos/\$1/ID;
#X obj 5 -122 inlet guide;
#X obj 167 -162 inlet points;
#X obj -6 280 list-math -;
#X obj 59 253 spigot;
#X obj 30 195 select 0 1;
#X msg 30 216 0;
#X msg 59 216 1;
#X obj 16 145 r topos/\$1/subMean;
#X obj 513 -94 s topos/\$1/subMean;
#X obj 515 -114 tgl 15 0 empty empty empty 17 7 0 10 -262144 -1 -1
0 1;
#X obj 105 278 t l b;
#X obj 103 256 list-math -;
#X obj 193 247 spigot;
#X obj 186 198 select 0 1;
#X msg 186 219 0;
#X msg 215 219 1;
#X obj 179 168 r topos/\$1/subMean;
#X obj 352 287 t l b;
#X obj 348 261 list-math -;
#X obj 328 241 spigot;
#X obj 354 198 select 0 1;
#X msg 354 219 0;
#X msg 383 219 1;
#X obj 341 165 r topos/\$1/subMean;
#X obj 35 165 init 0;
#X obj 259 197 init 0;
#X obj 456 166 init 0;
#X obj 35 -100 r refSphere/\$1/xyz;
#X obj 481 288 bng 15 250 50 0 empty empty empty 17 7 0 10 -262144
-1 -1;
#X obj -64 -125 inlet;
#X obj 417 104 s \$0-pts;
#X obj 451 397 r \$0-pts;
#X obj 255 312 r \$0-pts;
#X obj 344 61 r \$0-pts;
#X obj 207 63 r \$0-pts;
#X obj 60 72 r \$0-pts;
#X obj -63 -12 outlet;
#X msg 554 214 \; \$2-zlive resize \$1 \; \$2-ylive resize \$1 \; \$2-xlive
resize \$1 \;;
#X obj 418 83 pipe 30;
#X obj 551 161 change;
#X obj 553 184 pack f f;
#N canvas 231 41 1097 268 meanLastFirst 0;
#X obj 425 75 inlet;
#X obj 551 81 r \$0-pts;
#X obj 496 146 packel 1;
#X obj 431 179 pack f f;
#X obj 430 208 list-mean;
#X obj 278 47 inlet;
#X obj 404 53 r \$0-pts;
#X obj 284 119 packel 1;
#X obj 284 151 pack f f;
#X obj 283 180 list-mean;
#X obj 58 48 inlet;
#X obj 184 54 r \$0-pts;
#X obj 64 120 packel 1;
#X obj 127 119 packel 1;
#X obj 64 152 pack f f;
#X obj 63 181 list-mean;
#X obj 228 219 pack f f f;
#X text 73 20 Creates a mid point btw first and last point;
#X obj 326 231 outlet;
#X obj 431 147 packel 1;
#X obj 347 118 packel 1;
#X obj 455 113 lister;
#X obj 289 85 lister;
#X obj 104 81 lister;
#X connect 0 0 21 0;
#X connect 1 0 2 1;
#X connect 2 0 3 1;
#X connect 3 0 4 0;
#X connect 4 0 16 2;
#X connect 5 0 22 0;
#X connect 6 0 20 1;
#X connect 7 0 8 0;
#X connect 8 0 9 0;
#X connect 9 0 16 1;
#X connect 10 0 23 0;
#X connect 11 0 13 1;
#X connect 12 0 14 0;
#X connect 13 0 14 1;
#X connect 14 0 15 0;
#X connect 15 0 16 0;
#X connect 16 0 18 0;
#X connect 19 0 3 0;
#X connect 20 0 8 1;
#X connect 21 0 19 0;
#X connect 21 0 2 0;
#X connect 22 0 7 0;
#X connect 22 0 20 0;
#X connect 23 0 12 0;
#X connect 23 0 13 0;
#X restore 6 513 pd meanLastFirst;
#X obj -1 537 s topos/\$1/flmean;
#X obj 9 -18 spigot 1;
#X obj 49 -41 == 0;
#X obj 149 35 t b b b;
#X obj 239 -1 s \$0-metro;
#X obj 138 12 spigot 1;
#X obj -41 120 lister;
#X obj 115 116 lister;
#X obj 260 109 lister;
#X obj 172 -139 route points sampling mode metro freeze;
#X obj 306 -37 pipe 1000;
#X obj 301 -164 r topos/\$1/messages;
#X obj 428 -158 r topos/all/messages;
#X obj 533 50 s.velocity;
#X floatatom 534 75 5 0 0 0 - - -;
#X obj 666 403 s idNumbers;
#X obj 624 353 pp \$1;
#X obj -64 -53 toposView \$1 \$3;
#X connect 0 0 103 1;
#X connect 1 0 7 1;
#X connect 1 1 5 1;
#X connect 1 2 2 1;
#X connect 2 0 0 0;
#X connect 3 0 15 0;
#X connect 4 0 102 1;
#X connect 5 0 4 0;
#X connect 6 0 101 1;
#X connect 7 0 6 0;
#X connect 8 0 19 0;
#X connect 8 0 56 0;
#X connect 9 0 19 1;
#X connect 9 0 65 0;
#X connect 10 0 19 2;
#X connect 10 0 72 0;
#X connect 11 0 44 0;
#X connect 11 0 48 0;
#X connect 12 0 101 0;
#X connect 12 0 102 0;
#X connect 12 0 103 0;
#X connect 12 1 100 0;
#X connect 12 2 20 0;
#X connect 12 2 40 0;
#X connect 13 0 14 1;
#X connect 14 0 43 0;
#X connect 14 0 51 0;
#X connect 15 0 12 0;
#X connect 15 0 99 0;
#X connect 16 0 105 0;
#X connect 17 0 28 0;
#X connect 17 0 29 0;
#X connect 17 0 30 0;
#X connect 18 0 33 0;
#X connect 18 1 17 0;
#X connect 19 0 45 0;
#X connect 19 0 50 0;
#X connect 20 0 21 0;
#X connect 20 0 22 0;
#X connect 21 0 24 0;
#X connect 22 0 46 0;
#X connect 22 0 49 0;
#X connect 23 0 20 1;
#X connect 24 0 20 1;
#X connect 28 0 11 0;
#X connect 29 0 11 1;
#X connect 30 0 11 2;
#X connect 34 0 91 0;
#X connect 36 0 15 1;
#X connect 37 0 34 0;
#X connect 38 0 34 0;
#X connect 39 0 40 0;
#X connect 40 0 41 0;
#X connect 40 0 52 0;
#X connect 40 0 93 1;
#X connect 40 0 111 0;
#X connect 47 0 37 0;
#X connect 47 0 36 0;
#X connect 53 0 96 0;
#X connect 54 0 104 0;
#X connect 55 0 18 0;
#X connect 55 0 13 1;
#X connect 56 0 55 1;
#X connect 57 0 58 0;
#X connect 57 1 59 0;
#X connect 58 0 55 1;
#X connect 58 0 56 1;
#X connect 59 0 56 1;
#X connect 60 0 57 0;
#X connect 62 0 61 0;
#X connect 63 0 32 0;
#X connect 64 0 63 0;
#X connect 64 0 13 0;
#X connect 65 0 64 1;
#X connect 66 0 67 0;
#X connect 66 1 68 0;
#X connect 67 0 64 1;
#X connect 67 0 65 1;
#X connect 68 0 65 1;
#X connect 69 0 66 0;
#X connect 70 0 31 0;
#X connect 71 0 70 0;
#X connect 71 0 14 0;
#X connect 72 0 71 1;
#X connect 73 0 74 0;
#X connect 73 1 75 0;
#X connect 74 0 71 1;
#X connect 74 0 72 1;
#X connect 75 0 72 1;
#X connect 76 0 73 0;
#X connect 77 0 57 0;
#X connect 78 0 66 0;
#X connect 79 0 73 0;
#X connect 80 0 96 0;
#X connect 81 0 40 0;
#X connect 82 0 112 0;
#X connect 84 0 21 1;
#X connect 85 0 17 1;
#X connect 86 0 0 1;
#X connect 87 0 4 1;
#X connect 88 0 6 1;
#X connect 91 0 83 0;
#X connect 91 0 92 0;
#X connect 91 0 112 1;
#X connect 92 0 93 0;
#X connect 93 0 90 0;
#X connect 94 0 95 0;
#X connect 96 0 1 0;
#X connect 96 0 108 0;
#X connect 97 0 96 1;
#X connect 97 0 100 1;
#X connect 98 0 2 0;
#X connect 98 1 5 0;
#X connect 98 2 7 0;
#X connect 100 0 98 0;
#X connect 101 0 8 0;
#X connect 101 0 55 0;
#X connect 101 0 94 0;
#X connect 102 0 64 0;
#X connect 102 0 9 0;
#X connect 102 0 94 1;
#X connect 103 0 71 0;
#X connect 103 0 10 0;
#X connect 103 0 94 2;
#X connect 104 0 34 0;
#X connect 104 1 15 1;
#X connect 104 1 112 2;
#X connect 104 3 3 0;
#X connect 104 4 97 0;
#X connect 104 5 112 3;
#X connect 105 0 3 0;
#X connect 106 0 104 0;
#X connect 107 0 104 0;
#X connect 108 0 109 0;
#X connect 112 0 89 0;
