#N canvas -9 162 983 647 10;
#X obj 577 246 connection \$1;
#X obj 405 145 connection \$1;
#X obj 143 256 connection \$1;
#X obj 270 459 connection \$1;
#X obj 415 458 connection \$1;
#X obj 421 385 connection \$1;
#X obj 24 302 connection \$1;
#X obj 730 278 connection \$1;
#X obj 287 529 connection \$1;
#X obj 428 537 connection \$1;
#X obj 289 384 connection \$1;
#X obj 280 281 connection \$1;
#X obj 387 276 connection \$1;
#X obj 284 207 connection \$1;
#X obj 438 207 connection \$1;
#X obj 281 257 connection \$1;
#X obj 448 245 connection \$1;
#X obj 1 167 s zdiv;
#X floatatom 2 147 5 0 0 0 - - -;
#X obj 3 126 ii 0.3;
#X obj 244 76 inlet gemlist;
#X obj 247 114 s main/\$1/gemlist;
#X obj 682 252 joint \$1 r_elbow;
#X obj 379 174 joint \$1 neck;
#X obj 398 119 joint \$1 head;
#X obj 56 279 joint \$1 l_elbow;
#X obj 196 231 joint \$1 l_shoulder;
#X obj 425 580 joint \$1 r_foot;
#X obj 255 417 joint \$1 l_hip;
#X obj -72 324 joint \$1 l_hand;
#X obj 326 332 joint \$1 torso;
#X obj 544 206 joint \$1 r_shoulder;
#X obj 410 427 joint \$1 r_hip;
#X obj 268 493 joint \$1 l_knee;
#X obj 415 499 joint \$1 r_knee;
#X obj 276 575 joint \$1 l_foot;
#X obj 800 315 joint \$1 r_hand;
#X connect 18 0 17 0;
#X connect 19 0 18 0;
#X connect 20 0 21 0;
#X connect 22 0 0 1;
#X connect 22 0 7 0;
#X connect 23 0 1 1;
#X connect 23 0 12 0;
#X connect 23 0 13 1;
#X connect 23 0 14 0;
#X connect 24 0 1 0;
#X connect 25 0 2 0;
#X connect 25 0 6 0;
#X connect 26 0 2 1;
#X connect 26 0 13 0;
#X connect 26 0 15 0;
#X connect 27 0 9 1;
#X connect 28 0 3 0;
#X connect 28 0 10 1;
#X connect 28 0 11 0;
#X connect 29 0 6 1;
#X connect 30 0 5 0;
#X connect 30 0 10 0;
#X connect 30 0 12 1;
#X connect 30 0 15 1;
#X connect 30 0 16 0;
#X connect 31 0 0 0;
#X connect 31 0 14 1;
#X connect 31 0 16 1;
#X connect 32 0 4 0;
#X connect 32 0 5 1;
#X connect 32 0 11 1;
#X connect 33 0 3 1;
#X connect 33 0 8 0;
#X connect 34 0 4 1;
#X connect 34 0 9 0;
#X connect 35 0 8 1;
#X connect 36 0 7 1;
