#N canvas 1406 153 460 650 10;
#X obj 22 -19 inlet;
#X obj 380 0 inlet;
#X obj 62 360 msgfile;
#X msg 90 184 goto \$1;
#X msg 76 68 clear;
#X msg 201 100 this;
#X obj 23 523 outlet;
#X obj 14 268 spigot;
#X msg 338 98 0;
#X obj 20 31 route record get clear float stop write read;
#X msg 307 67 0;
#X msg 371 202 1;
#X msg 37 143 1;
#X obj 152 265 spigot;
#X obj 24 169 any;
#X obj 66 389 print;
#X msg 238 97 find #\$1;
#X obj 132 115 t b f f;
#X obj 18 434 list-splat 1;
#X obj 26 492 spigot;
#X msg 305 97 1;
#X obj 198 68 t b b f b b;
#X msg 172 96 0;
#X obj 312 396 lister;
#X obj 313 417 t b a;
#X floatatom 338 229 5 0 0 0 - - -;
#X obj 339 498 pp add;
#X obj 341 477 pp;
#X msg 357 435 #\$1;
#X msg 321 280 find #\$1;
#X obj 355 412 spigot;
#X msg 394 384 1;
#X msg 309 574 0;
#X obj 338 255 spigot;
#X obj 129 147 spigot;
#X obj 20 120 route float bang;
#X msg 428 383 0;
#X obj 377 73 t a b b b b a;
#X floatatom 129 400 5 0 0 0 - - -;
#X obj 347 310 route bang;
#X obj 370 376 f;
#X msg 161 336 flush;
#X obj 139 454 ppp;
#X msg 418 261 0;
#X obj 351 343 t b b b b;
#X obj 132 78 spigot;
#X obj 234 490 pp replace;
#X obj 237 462 pp;
#X msg 253 438 #\$1;
#X obj 251 415 spigot;
#X obj 259 391 f;
#X msg 294 386 1;
#X obj 225 360 t b b b b b b;
#X msg 285 457 goto \$1;
#X obj 276 397 f;
#X obj 232 528 any;
#X obj 195 405 lister;
#X obj 194 427 t b a;
#X connect 0 0 9 0;
#X connect 1 0 37 0;
#X connect 2 0 18 0;
#X connect 2 0 15 0;
#X connect 2 1 39 0;
#X connect 3 0 7 0;
#X connect 4 0 2 0;
#X connect 5 0 2 0;
#X connect 8 0 7 1;
#X connect 8 0 34 1;
#X connect 9 0 35 0;
#X connect 9 1 21 0;
#X connect 9 2 4 0;
#X connect 9 3 45 0;
#X connect 9 4 10 0;
#X connect 10 0 7 1;
#X connect 11 0 33 1;
#X connect 11 0 34 1;
#X connect 12 0 14 0;
#X connect 13 0 2 0;
#X connect 14 0 7 1;
#X connect 14 0 13 1;
#X connect 14 0 45 1;
#X connect 16 0 2 0;
#X connect 17 0 34 0;
#X connect 17 1 3 0;
#X connect 18 1 19 0;
#X connect 19 0 6 0;
#X connect 20 0 19 1;
#X connect 21 0 22 0;
#X connect 21 1 5 0;
#X connect 21 2 16 0;
#X connect 21 3 20 0;
#X connect 21 4 8 0;
#X connect 22 0 19 1;
#X connect 23 0 24 0;
#X connect 24 1 27 0;
#X connect 25 0 33 0;
#X connect 26 0 55 0;
#X connect 27 0 26 0;
#X connect 28 0 27 1;
#X connect 29 0 2 0;
#X connect 30 0 28 0;
#X connect 31 0 30 1;
#X connect 33 0 29 0;
#X connect 33 0 40 1;
#X connect 33 0 50 1;
#X connect 33 0 54 1;
#X connect 34 0 25 0;
#X connect 35 0 14 0;
#X connect 35 1 12 0;
#X connect 36 0 30 1;
#X connect 36 0 49 1;
#X connect 37 3 11 0;
#X connect 37 4 36 0;
#X connect 37 5 23 1;
#X connect 37 5 56 1;
#X connect 39 0 44 0;
#X connect 39 1 52 0;
#X connect 40 0 30 0;
#X connect 41 0 2 0;
#X connect 43 0 33 1;
#X connect 44 0 43 0;
#X connect 44 1 23 0;
#X connect 44 2 40 0;
#X connect 44 3 31 0;
#X connect 45 0 17 0;
#X connect 46 0 55 0;
#X connect 47 0 46 0;
#X connect 48 0 47 1;
#X connect 49 0 48 0;
#X connect 50 0 49 0;
#X connect 51 0 49 1;
#X connect 52 0 42 0;
#X connect 52 2 56 0;
#X connect 52 3 50 0;
#X connect 52 4 54 0;
#X connect 52 5 51 0;
#X connect 53 0 55 0;
#X connect 54 0 53 0;
#X connect 55 0 2 0;
#X connect 56 0 57 0;
#X connect 57 1 47 0;
