#N canvas 1406 153 460 650 10;
#X obj 22 -19 inlet;
#X obj 380 0 inlet;
#X obj 84 303 msgfile;
#X msg 141 177 goto \$1;
#X msg 161 370 flush;
#X msg 76 68 clear;
#X msg 201 100 this;
#X obj 268 167 lister;
#X obj 23 523 outlet;
#X obj 14 268 spigot;
#X obj 127 136 spigot;
#X msg 338 98 0;
#X obj 20 31 route record get clear float stop write read;
#X msg 307 67 0;
#X obj 269 188 t b a;
#X msg 261 216 0;
#X obj 381 85 t a b;
#X msg 419 109 1;
#X msg 37 143 1;
#X floatatom 165 221 5 0 0 0 - - -;
#X obj 144 257 spigot;
#X obj 24 169 any;
#X obj 88 330 print;
#X obj 299 245 pp add;
#X obj 299 224 pp;
#X msg 322 198 #\$1;
#X msg 238 97 find #\$1;
#X obj 123 65 t b f f;
#X obj 18 434 list-splat 1;
#X obj 20 120 route float bang;
#X msg 244 241 find #\$1;
#X obj 234 295 spigot;
#X msg 288 292 1;
#X obj 206 210 t b f f;
#X msg 251 321 0;
#X obj 26 492 spigot;
#X msg 305 97 1;
#X obj 198 68 t b b f b b;
#X msg 172 96 0;
#X connect 0 0 12 0;
#X connect 1 0 16 0;
#X connect 2 0 28 0;
#X connect 2 0 22 0;
#X connect 2 1 32 0;
#X connect 3 0 9 0;
#X connect 4 0 2 0;
#X connect 5 0 2 0;
#X connect 6 0 2 0;
#X connect 7 0 14 0;
#X connect 11 0 10 1;
#X connect 11 0 9 1;
#X connect 12 0 10 1;
#X connect 12 0 29 0;
#X connect 12 1 37 0;
#X connect 12 2 5 0;
#X connect 12 3 27 0;
#X connect 12 4 13 0;
#X connect 13 0 9 1;
#X connect 14 0 15 0;
#X connect 14 1 24 0;
#X connect 15 0 10 1;
#X connect 16 0 7 1;
#X connect 16 1 17 0;
#X connect 17 0 10 1;
#X connect 18 0 21 0;
#X connect 19 0 33 0;
#X connect 20 0 2 0;
#X connect 21 0 9 1;
#X connect 21 0 20 1;
#X connect 23 0 20 0;
#X connect 24 0 23 0;
#X connect 25 0 24 1;
#X connect 26 0 2 0;
#X connect 27 0 10 0;
#X connect 27 1 3 0;
#X connect 27 2 19 0;
#X connect 28 1 35 0;
#X connect 29 0 21 0;
#X connect 29 1 18 0;
#X connect 30 0 2 0;
#X connect 31 0 25 0;
#X connect 32 0 31 1;
#X connect 33 0 7 0;
#X connect 33 1 31 0;
#X connect 33 2 30 0;
#X connect 35 0 8 0;
#X connect 36 0 35 1;
#X connect 37 0 38 0;
#X connect 37 1 6 0;
#X connect 37 2 26 0;
#X connect 37 3 36 0;
#X connect 37 4 11 0;
#X connect 38 0 35 1;
