#N canvas 772 38 918 565 10;
#X obj -154 58 repeat 18;
#X obj -154 84 repack 54;
#X obj -154 105 list-len;
#X floatatom -154 128 5 0 0 0 - - -;
#N canvas 696 321 450 300 insert 0;
#X obj 23 201 list-insert 2;
#X obj 244 77 == 0;
#X obj 198 43 inlet;
#X obj 164 245 outlet;
#X obj 80 99 random 10;
#X obj 127 49 list-len;
#X obj 29 43 inlet;
#X obj 74 43 inlet;
#X obj -41 47 inlet;
#X obj 145 123 spigot 0;
#X obj 204 107 spigot 1;
#X obj 6 174 lister;
#X obj 109 144 t b l;
#X obj 31 259 pddp/print;
#X obj -16 85 t b b b;
#N canvas 665 309 450 300 random 0;
#X obj 3 101 random 100;
#X obj 13 111 random 100;
#X obj 23 121 random 100;
#X obj 9 49 inlet;
#X obj 88 30 inlet;
#X obj 12 161 /;
#X obj 22 171 /;
#X obj 32 181 /;
#X obj 90 157 init 50;
#X obj 92 137 bng 15 250 50 0 empty empty empty 17 7 0 10 -262144 -1
-1;
#X obj 23 246 outlet;
#X obj 145 99 random 100;
#X obj 155 109 random 100;
#X obj 165 119 random 100;
#X obj 154 159 /;
#X obj 164 169 /;
#X obj 174 179 /;
#X obj 232 155 init 50;
#X obj 234 135 bng 15 250 50 0 empty empty empty 17 7 0 10 -262144
-1 -1;
#X obj 273 92 random 100;
#X obj 283 102 random 100;
#X obj 293 112 random 100;
#X obj 282 152 /;
#X obj 292 162 /;
#X obj 302 172 /;
#X obj 360 148 init 50;
#X obj 362 128 bng 15 250 50 0 empty empty empty 17 7 0 10 -262144
-1 -1;
#X obj 4 77 t b b b b b b b b b b;
#X obj 20 212 pack f f f f f f f f f;
#X connect 0 0 5 0;
#X connect 1 0 6 0;
#X connect 2 0 7 0;
#X connect 3 0 27 0;
#X connect 4 0 7 1;
#X connect 4 0 6 1;
#X connect 4 0 5 1;
#X connect 5 0 28 0;
#X connect 6 0 28 1;
#X connect 7 0 28 2;
#X connect 8 0 7 1;
#X connect 8 0 6 1;
#X connect 8 0 5 1;
#X connect 9 0 8 0;
#X connect 11 0 14 0;
#X connect 12 0 15 0;
#X connect 13 0 16 0;
#X connect 14 0 28 3;
#X connect 15 0 28 4;
#X connect 16 0 28 5;
#X connect 17 0 16 1;
#X connect 17 0 15 1;
#X connect 17 0 14 1;
#X connect 18 0 17 0;
#X connect 19 0 22 0;
#X connect 20 0 23 0;
#X connect 21 0 24 0;
#X connect 22 0 28 6;
#X connect 23 0 28 7;
#X connect 24 0 28 8;
#X connect 25 0 24 1;
#X connect 25 0 23 1;
#X connect 25 0 22 1;
#X connect 26 0 25 0;
#X connect 27 0 0 0;
#X connect 27 1 1 0;
#X connect 27 2 2 0;
#X connect 27 4 11 0;
#X connect 27 5 12 0;
#X connect 27 6 13 0;
#X connect 27 7 19 0;
#X connect 27 8 20 0;
#X connect 27 9 21 0;
#X connect 28 0 10 0;
#X restore -28 112 pd random 9;
#X obj 119 71 - 9;
#X connect 0 0 3 0;
#X connect 1 0 10 1;
#X connect 2 0 1 0;
#X connect 2 0 9 1;
#X connect 4 0 0 1;
#X connect 5 0 16 0;
#X connect 6 0 14 0;
#X connect 7 0 4 0;
#X connect 8 0 9 0;
#X connect 8 0 10 0;
#X connect 8 0 5 0;
#X connect 9 0 12 0;
#X connect 10 0 3 0;
#X connect 11 0 0 0;
#X connect 12 0 11 0;
#X connect 12 1 0 2;
#X connect 14 0 15 0;
#X connect 15 0 11 1;
#X connect 15 0 11 0;
#X connect 15 0 13 0;
#X connect 16 0 4 1;
#X restore -274 171 pd insert;
#X obj -249 78 pp;
#X obj -247 107 list-len;
#X floatatom -246 130 5 0 0 0 - - -;
#X obj 413 234 list-len;
#X floatatom 413 257 5 0 0 0 - - -;
#X text 69 576 n'ao esquecer de editar \; \; \; e verificar;
#X obj -221 151 tgl 15 0 empty empty empty 17 7 0 10 -262144 -1 -1
0 1;
#X obj -260 153 bng 15 250 50 0 empty empty empty 17 7 0 10 -262144
-1 -1;
#X obj -242 154 bng 15 250 50 0 empty empty empty 17 7 0 10 -262144
-1 -1;
#X obj -290 25 r topos/\$1/outputList;
#X obj -152 27 r topos/\$1/last;
#X msg -276 217 \; \$34 \$1 \$2 \$3 \$1 \$2 \$3 \$1 \$2 \$3 \$1 \$2
\$3 \$1 \$2 \$3 \$1 \$2 \$3 \$1 \$2 \$3 \$1 \$2 \$3 \$1 \$2 \$3 \$1
\$2 \$3 \$4 \$14 \$24 \$5 \$15 \$25 \$6 \$16 \$26 \$7 \$17 \$27 \$8
\$18 \$28 \$9 \$19 \$29 \$10 \$20 \$30 \$11 \$21 \$31 \$12 \$22 \$32
\$13 \$23 \$33;
#X obj -273 192 list append;
#X obj 35 91 loadbang;
#X obj 102 90 bng 15 250 50 0 empty empty empty 17 7 0 10 -262144 -1
-1;
#X obj -281 315 inlet;
#N canvas 757 222 450 300 curve 0;
#X msg -164 21 draw line;
#X msg -164 1 draw fill;
#X msg -164 41 draw point;
#X msg -147 146 width 1;
#X msg -147 167 width 4;
#X msg -164 62 draw line1;
#X msg -164 83 draw line2;
#X msg -164 104 draw line3;
#X msg -164 125 draw line4;
#X msg -26 15 draw control_line;
#X msg -26 36 draw control_line1;
#X msg -25 58 draw control_line2;
#X msg -8 78 draw control_fill;
#X msg -26 99 draw control_point;
#X text -23 -15 of the curve;
#X obj -193 190 outlet;
#X obj -59 189 any;
#X obj -100 -35 inlet;
#X obj -81 -12 select 0 1 2 3;
#X connect 0 0 15 0;
#X connect 1 0 15 0;
#X connect 3 0 15 0;
#X connect 4 0 15 0;
#X connect 5 0 15 0;
#X connect 6 0 15 0;
#X connect 7 0 15 0;
#X connect 8 0 15 0;
#X connect 9 0 16 0;
#X connect 10 0 16 0;
#X connect 11 0 16 0;
#X connect 12 0 16 0;
#X connect 13 0 16 0;
#X connect 16 0 15 0;
#X connect 17 0 18 0;
#X connect 18 0 9 0;
#X connect 18 1 12 0;
#X restore -130 459 pd curve appearance;
#X floatatom -167 349 5 0 0 0 - - -;
#X obj -254 517 curve3d;
#X obj -256 423 scaleXYZ;
#X msg 1 377 res 2 10;
#X obj 2 353 loadbang;
#X obj 35 114 \$1;
#X obj 48 140 f;
#X obj -194 171 makesymbol topos/%s/3dlist;
#X obj 250 186 r topos/\$1/3dlist;
#X obj 309 209 makesymbol topos/%s/curveList;
#X obj 249 231 list append;
#X obj -135 491 r topos/\$1/curveList;
#X obj -59 111 list-len;
#X floatatom -58 134 5 0 0 0 - - -;
#X obj -55 416 bng 15 250 50 0 empty empty empty 17 7 0 10 -262144
-1 -1;
#X obj -90 435 init 0;
#X msg 246 259 \; \$61 set 0 0 \$1 \$2 \$3 \; \$61 set 0 1 \$4 \$5
\$6 \; \$61 set 0 2 \$7 \$8 \$9 \; \$61 set 0 3 \$10 \$11 \$12 \; \$61
set 0 4 \$13 \$14 \$15 \; \$61 set 0 5 \$16 \$17 \$18 \; \$61 set 0
6 \$19 \$20 \$21 \; \$61 set 0 7 \$22 \$23 \$24 \; \$61 set 0 8 \$25
\$26 \$27 \; \$61 set 0 9 \$28 \$29 \$30 \; \$61 set 1 0 \$31 \$32
\$33 \; \$61 set 1 1 \$34 \$35 \$36 \; \$61 set 1 2 \$37 \$38 \$39
\; \$61 set 1 3 \$40 \$41 \$42 \; \$61 set 1 4 \$43 \$44 \$45 \; \$61
set 1 5 \$46 \$47 \$48 \; \$61 set 1 6 \$49 \$50 \$51 \; \$61 set 1
7 \$52 \$53 \$54 \; \$61 set 1 8 \$55 \$56 \$57 \; \$61 set 1 9 \$58
\$59 \$60 \;;
#X obj -280 338 separator;
#X obj 243 15 inlet commands;
#X obj -230 313 unpack f f f;
#X obj -274 371 colorRGB 1 0 0 1;
#X obj 359 68 pp draw;
#X obj 240 43 route list color alpha draw scaleXYZ;
#X obj -91 349 unpack f f f;
#X obj -249 544 outlet;
#X obj 128 318 list-nth;
#X floatatom 174 292 5 0 0 0 - - -;
#X obj 108 367 pddp/print;
#X connect 0 0 1 0;
#X connect 1 0 2 0;
#X connect 2 0 3 0;
#X connect 4 0 17 0;
#X connect 5 0 6 0;
#X connect 5 0 4 0;
#X connect 6 0 7 0;
#X connect 8 0 9 0;
#X connect 11 0 4 3;
#X connect 12 0 4 1;
#X connect 13 0 4 2;
#X connect 14 0 5 0;
#X connect 15 0 0 0;
#X connect 15 0 5 1;
#X connect 17 0 16 0;
#X connect 18 0 27 0;
#X connect 19 0 27 0;
#X connect 20 0 39 0;
#X connect 21 0 23 0;
#X connect 22 0 42 4;
#X connect 23 0 46 0;
#X connect 24 0 23 0;
#X connect 25 0 23 0;
#X connect 26 0 25 0;
#X connect 27 0 28 0;
#X connect 28 0 29 0;
#X connect 28 0 31 0;
#X connect 29 0 17 1;
#X connect 30 0 32 0;
#X connect 30 0 47 0;
#X connect 31 0 32 1;
#X connect 32 0 38 0;
#X connect 32 0 8 0;
#X connect 33 0 23 0;
#X connect 34 0 35 0;
#X connect 36 0 37 0;
#X connect 37 0 21 0;
#X connect 39 0 42 0;
#X connect 40 0 44 0;
#X connect 41 0 42 1;
#X connect 41 1 42 2;
#X connect 41 2 42 3;
#X connect 42 0 24 0;
#X connect 43 0 23 0;
#X connect 44 0 5 0;
#X connect 44 1 41 0;
#X connect 44 2 22 0;
#X connect 44 3 43 0;
#X connect 44 4 45 0;
#X connect 45 0 24 1;
#X connect 45 1 24 2;
#X connect 45 2 24 3;
#X connect 47 0 49 0;
#X connect 48 0 47 1;
