#N canvas 1406 153 444 425 10;
#X obj 63 -23 inlet;
#X obj 373 -9 inlet;
#X obj 92 228 msgfile;
#X msg 33 140 goto \$1;
#X obj 120 -4 hradio 15 1 0 8 empty empty empty 0 -8 0 10 -262144 -1
-1 3;
#X msg 324 347 bang;
#X msg 320 249 flush;
#X msg 132 66 clear;
#X msg 162 125 this;
#X msg 312 273 add 1;
#X msg 312 294 add 2;
#X msg 318 318 add 3 4;
#X msg 370 222 where;
#X obj 191 160 lister;
#X obj 186 203 pp add;
#X obj 22 270 outlet;
#X obj 34 165 spigot;
#X obj 73 98 spigot;
#X msg 199 125 goto \$1;
#X obj 176 94 t b f b;
#X msg 229 64 0;
#X obj 58 29 route record get clear float stop write read;
#X msg 268 67 0;
#X obj 72 60 t b f f;
#X obj 193 179 t b a;
#X msg 157 180 0;
#X obj 285 102 t a b;
#X msg 323 126 1;
#X obj 284 174 bng 15 250 50 0 empty empty empty 17 7 0 10 -262144
-1 -1;
#X msg 263 201 goto 1;
#X msg 268 8 get \$1;
#X obj 265 -42 hradio 15 1 0 8 empty empty empty 0 -8 0 10 -262144
-1 -1 6;
#X obj 31 212 spigot;
#X connect 0 0 21 0;
#X connect 1 0 26 0;
#X connect 1 0 32 0;
#X connect 2 0 15 0;
#X connect 3 0 16 0;
#X connect 4 0 21 0;
#X connect 5 0 2 0;
#X connect 6 0 2 0;
#X connect 7 0 2 0;
#X connect 8 0 2 0;
#X connect 9 0 2 0;
#X connect 10 0 2 0;
#X connect 11 0 2 0;
#X connect 12 0 2 0;
#X connect 13 0 24 0;
#X connect 14 0 2 0;
#X connect 16 0 2 0;
#X connect 17 0 13 0;
#X connect 18 0 2 0;
#X connect 19 0 8 0;
#X connect 19 1 18 0;
#X connect 19 2 20 0;
#X connect 19 2 12 0;
#X connect 20 0 17 1;
#X connect 20 0 16 1;
#X connect 21 0 16 1;
#X connect 21 0 17 1;
#X connect 21 0 32 1;
#X connect 21 1 19 0;
#X connect 21 2 7 0;
#X connect 21 3 23 0;
#X connect 21 4 22 0;
#X connect 22 0 16 1;
#X connect 23 0 17 0;
#X connect 23 1 3 0;
#X connect 24 0 25 0;
#X connect 24 1 14 0;
#X connect 25 0 17 1;
#X connect 26 0 13 1;
#X connect 26 0 28 0;
#X connect 26 1 27 0;
#X connect 27 0 17 1;
#X connect 29 0 2 0;
#X connect 30 0 21 0;
#X connect 31 0 30 0;
#X connect 32 0 15 0;
