#N canvas 0 22 451 379 10;
#X obj 75 72 tgl 15 0 empty empty Freezes_the_shape 17 7 0 10 -262144
-1 -1 0 1;
#X floatatom 161 181 5 0 0 0 - - -;
#X text 12 22 Creates the topology data:;
#X floatatom 109 94 5 0 0 0 - - -;
#X text 150 97 Samplerate;
#X floatatom 145 126 5 0 0 0 - - -;
#X text 186 129 points in the data division;
#X text 36 50 First inlet: x y z flots;
#X text 24 260 Outputs;
#X text 35 276 1 - pack of x y and z of all points;
#X text 35 292 2 - mean (x y z);
#X text 33 308 3 - last point (x y z);
#X text 33 324 4 - counter (too specific...);
#X text 32 341 5 - ID to access local studd (\$0 or local variable)
;
#X text 28 205 Usage;
#X text 27 230 [toposData index sampleRate points];
#X text 183 147 NOT WORKING KEEP 10 Points;
#X obj 39 158 toposData 9999 100 10;
#X connect 0 0 17 1;
#X connect 3 0 17 2;
#X connect 5 0 17 3;
#X connect 17 4 1 0;
