#N canvas 0 22 725 513 10;
#X declare -lib iem_tab;
#X obj 81 397 outlet;
#X obj 167 341 pp xyzRange;
#X floatatom 186 29 5 0 0 0 - - -;
#X obj 136 111 tab_min_max \$0-xlive;
#X msg 181 82 src \$1;
#X obj 135 81 bang;
#X obj 184 60 makesymbol %s-xlive;
#X obj 212 177 -;
#X obj 357 176 -;
#X floatatom 349 199 5 0 0 0 - - -;
#X obj 508 176 -;
#X obj 432 110 tab_min_max \$0-zlive;
#X obj 281 110 tab_min_max \$0-ylive;
#X msg 317 75 src \$1;
#X obj 320 53 makesymbol %s-ylive;
#X msg 453 72 src \$1;
#X obj 456 50 makesymbol %s-zlive;
#X obj 232 237 *;
#X obj 241 260 *;
#X obj 79 340 pp volume;
#X obj 359 271 pack f f f;
#X obj 271 342 pp meanPosition;
#X obj 273 314 r topos/\$1/mean;
#X obj 559 11 receive13;
#X msg 557 -11 set topos/\$1/ID;
#X floatatom 634 40 5 0 0 0 - - -;
#X obj 112 19 receive13;
#X obj 139 -59 inlet;
#X msg 110 -3 set topos/\$1/wheel;
#X obj 560 -62 loadbang;
#X obj 384 340 pp speed;
#X obj 463 271 smooth 0.1;
#X obj 404 243 smooth 0.1;
#X obj 335 243 smooth 0.1;
#N canvas 634 396 450 300 getPos 0;
#X obj 110 -2 inlet;
#X floatatom 106 61 5 0 0 0 - - -;
#X obj 104 92 makesymbol %s-xlive;
#X obj 240 85 makesymbol %s-ylive;
#X obj 376 82 makesymbol %s-zlive;
#X msg 105 118 set \$1;
#X obj 99 140 tabread;
#X msg 227 119 set \$1;
#X obj 221 141 tabread;
#X msg 335 117 set \$1;
#X obj 329 139 tabread;
#X obj 136 184 pack f f f;
#X obj 140 215 outlet;
#X obj 51 99 f;
#X obj 39 1 inlet;
#X obj 84 25 bang;
#X obj 31 56 spigot 0;
#X obj 20 32 > 0;
#X connect 0 0 1 0;
#X connect 0 0 15 0;
#X connect 1 0 2 0;
#X connect 1 0 3 0;
#X connect 1 0 4 0;
#X connect 2 0 5 0;
#X connect 3 0 7 0;
#X connect 4 0 9 0;
#X connect 5 0 6 0;
#X connect 6 0 11 0;
#X connect 7 0 8 0;
#X connect 8 0 11 1;
#X connect 9 0 10 0;
#X connect 10 0 11 2;
#X connect 11 0 12 0;
#X connect 13 0 6 0;
#X connect 13 0 8 0;
#X connect 13 0 10 0;
#X connect 14 0 13 1;
#X connect 14 0 17 0;
#X connect 15 0 16 0;
#X connect 16 0 13 0;
#X connect 17 0 16 1;
#X restore 650 349 pd getPos;
#X obj 144 -39 route getPosPoint;
#X obj 649 379 pp getPosPoint;
#X obj 623 -51 import iem_tab;
#X obj 577 -35 symbol \$1;
#X obj 585 196 r topos/\$1/points;
#X obj 459 343 pp displacement;
#X obj 571 349 pp points;
#X symbolatom 221 401 72 0 0 0 - - -;
#X obj 221 420 _documentation changeLog/toposFeatures;
#X obj 469 319 private/_displacement;
#X obj 384 317 delta;
#X connect 1 0 0 0;
#X connect 2 0 6 0;
#X connect 2 0 14 0;
#X connect 2 0 16 0;
#X connect 3 1 7 1;
#X connect 3 2 7 0;
#X connect 4 0 3 0;
#X connect 5 0 3 0;
#X connect 5 0 12 0;
#X connect 5 0 11 0;
#X connect 6 0 4 0;
#X connect 7 0 17 0;
#X connect 7 0 33 0;
#X connect 8 0 9 0;
#X connect 9 0 17 1;
#X connect 9 0 32 0;
#X connect 10 0 18 1;
#X connect 10 0 31 0;
#X connect 11 1 10 1;
#X connect 11 2 10 0;
#X connect 12 1 8 1;
#X connect 12 2 8 0;
#X connect 13 0 12 0;
#X connect 14 0 13 0;
#X connect 15 0 11 0;
#X connect 16 0 15 0;
#X connect 17 0 18 0;
#X connect 18 0 19 0;
#X connect 19 0 0 0;
#X connect 20 0 1 0;
#X connect 21 0 0 0;
#X connect 22 0 21 0;
#X connect 23 0 25 0;
#X connect 23 0 2 0;
#X connect 23 0 34 1;
#X connect 24 0 23 0;
#X connect 26 0 5 0;
#X connect 27 0 35 0;
#X connect 28 0 26 0;
#X connect 29 0 38 0;
#X connect 30 0 0 0;
#X connect 31 0 20 2;
#X connect 32 0 20 1;
#X connect 33 0 20 0;
#X connect 34 0 36 0;
#X connect 35 0 34 0;
#X connect 35 1 28 0;
#X connect 35 1 24 0;
#X connect 36 0 0 0;
#X connect 38 0 24 0;
#X connect 38 0 28 0;
#X connect 39 0 41 0;
#X connect 39 0 44 0;
#X connect 40 0 0 0;
#X connect 41 0 0 0;
#X connect 42 0 43 0;
#X connect 44 0 40 0;
#X connect 44 0 45 0;
#X connect 45 0 30 0;
