#N canvas 12 105 450 300 10;
#X obj 51 82 gemhead;
#X obj 343 216 cnv 15 100 60 empty empty empty 20 12 0 14 -195568 -66577
0;
#N canvas 0 22 450 300 gemwin 0;
#X obj 132 136 gemwin;
#X obj 67 89 outlet;
#X obj 67 10 inlet;
#X obj 67 41 route create;
#X msg 67 70 set destroy;
#X msg 142 68 set create;
#X msg 198 112 destroy;
#X msg 132 112 create \, 1;
#X connect 2 0 3 0;
#X connect 3 0 4 0;
#X connect 3 0 7 0;
#X connect 3 1 5 0;
#X connect 3 1 6 0;
#X connect 4 0 1 0;
#X connect 5 0 1 0;
#X connect 6 0 0 0;
#X connect 7 0 0 0;
#X restore 348 255 pd gemwin;
#X msg 348 236 create;
#X text 344 215 Create window:;
#X text 51 158 USAGE:;
#X text 47 179 [toposView index];
#X obj 51 129 toposView 999;
#X msg 149 57 draw control_line;
#X msg 149 84 draw control_fill;
#N canvas 422 256 438 311 more 0;
#X msg 57 40 draw line;
#X msg 57 20 draw fill;
#X msg 57 60 draw point;
#X msg 74 165 width 1;
#X msg 74 186 width 4;
#X msg 57 81 draw line1;
#X msg 57 102 draw line2;
#X msg 57 123 draw line3;
#X msg 57 144 draw line4;
#X msg 195 34 draw control_line;
#X msg 195 55 draw control_line1;
#X msg 195 76 draw control_line2;
#X msg 195 97 draw control_fill;
#X msg 195 118 draw control_point;
#X obj 28 209 outlet;
#X obj 162 208 any;
#X text 149 -45 draw style;
#X text 63 -13 draw the curve;
#X text 217 2 of the curve;
#X text 204 -12 draw control point;
#X connect 0 0 14 0;
#X connect 1 0 14 0;
#X connect 3 0 14 0;
#X connect 4 0 14 0;
#X connect 5 0 14 0;
#X connect 6 0 14 0;
#X connect 7 0 14 0;
#X connect 8 0 14 0;
#X connect 9 0 15 0;
#X connect 10 0 15 0;
#X connect 11 0 15 0;
#X connect 12 0 15 0;
#X connect 13 0 15 0;
#X connect 15 0 14 0;
#X restore 148 111 pd more visualizations;
#X text 34 23 Draws topology using toposData information:;
#X text 56 232 Simple gets information from toposData;
#X text 57 254 and pdraws the visuzalizations;
#X connect 0 0 7 0;
#X connect 2 0 3 0;
#X connect 3 0 2 0;
#X connect 8 0 7 1;
#X connect 9 0 7 1;
#X connect 10 0 7 1;
