#N canvas 1281 627 493 379 10;
#X obj 172 45 table \$0-x-head;
#X obj 161 173 table \$0-x-torso;
#X obj 175 89 table \$0-x-neck;
#X obj 279 117 table \$0-x-r_shoulder;
#X obj 354 143 table \$0-x-r_elbow;
#X obj 362 182 table \$0-x-r_hand;
#X obj -44 173 table \$0-x-l_hand;
#X obj 0 121 table \$0-x-l_shoulder;
#X obj 14 142 table \$0-x-l_elbow;
#X obj 219 0 table \$0-x-r_hip;
#X obj 213 278 table \$0-x-r_knee;
#X obj 218 325 table \$0-x-r_foot;
#X obj 85 323 table \$0-x-l_foot;
#X obj 0 276 table \$0-x-l_knee;
#X obj 86 238 table \$0-x-l_hip;
#X obj 42 -53 inlet;
#X obj 46 -29 unpack f f f s f f f;
#X obj 37 40 makesymbol %s-x-%s;
#X obj 55 19 pack \$0 s;
#X obj -9 19 bng 15 250 50 0 empty empty empty 17 7 0 10 -262144 -1
-1;
#X obj 38 61 pp set;
#X obj 43 95 tabwrite;
#X obj 129 20 pack f f;
#X obj 138 -5 bondo;
#X obj 114 90 ppp;
#X obj 67 1 t b s;
#X connect 15 0 16 0;
#X connect 16 0 23 0;
#X connect 16 3 25 0;
#X connect 16 4 23 1;
#X connect 17 0 20 0;
#X connect 18 0 17 0;
#X connect 19 0 18 0;
#X connect 20 0 21 0;
#X connect 20 0 24 0;
#X connect 22 0 21 0;
#X connect 23 0 22 0;
#X connect 23 1 22 1;
#X connect 25 0 18 0;
#X connect 25 1 18 1;
