#N canvas 455 626 669 267 10;
#X obj 64 9 inlet;
#X obj 257 4 inlet;
#X obj 158 208 curve 2;
#X obj 25 151 loadbang;
#X obj 286 113 route color;
#X obj 281 139 unpack f f f;
#X obj 158 119 separator;
#X obj 156 94 spigot 1;
#X obj 159 137 alpha;
#X msg 25 180 draw line \, width 4;
#X obj 308 38 route lineParameters alpha lineOnOff gemlist;
#X obj 299 -5 r skeleton/\$1/all/messages;
#X obj 460 -2 r skeleton/all/messages;
#X obj 159 161 colorRGB 0.6 0.6 0.6;
#X connect 0 0 2 1;
#X connect 1 0 2 2;
#X connect 3 0 9 0;
#X connect 4 0 5 0;
#X connect 5 0 13 1;
#X connect 5 1 13 2;
#X connect 5 2 13 3;
#X connect 6 0 8 0;
#X connect 7 0 6 0;
#X connect 8 0 13 0;
#X connect 9 0 2 0;
#X connect 10 0 2 0;
#X connect 10 0 4 0;
#X connect 10 1 13 4;
#X connect 10 2 7 1;
#X connect 10 3 7 0;
#X connect 11 0 10 0;
#X connect 12 0 10 0;
#X connect 13 0 2 0;
