#N canvas 602 277 614 455 10;
#X obj 183 271 translateXYZ;
#X msg 351 309 text \$1;
#X obj 349 285 symbol \$1;
#X obj 351 255 loadbang;
#X msg 419 286 font vera.ttf;
#X obj 211 310 separator;
#X obj 351 404 text2d;
#X obj 399 345 loadbang;
#X msg 399 371 0.4;
#X obj 114 306 separator;
#X obj 19 421 outlet;
#X obj 16 274 pack float float float;
#X obj 234 86 unpack float float float;
#X obj 255 35 inlet;
#X obj 398 36 bang;
#X obj 268 294 unpack f f f;
#X obj 211 379 colorRGB 0 0 1;
#X obj 19 205 separator;
#X obj 112 382 sphere 0.05;
#X msg 397 57 0 0 0;
#X obj 228 134 * 1;
#X obj 270 138 * 1;
#X obj 314 136 * 1;
#X floatatom 166 76 5 0 0 0 - - -;
#X obj 108 335 alpha;
#X obj 108 358 colorRGB 0 0 1;
#X obj 207 413 s \$1/\$2/pos;
#X obj 211 357 translateXYZ 0 0 0;
#X obj 386 116 r zdiv;
#X obj 20 -4 route translate rotate scale sizeSphere color alpha data
text2d textSize reset gemlist;
#X obj 17 229 alpha 1;
#X obj 18 -34 inlet;
#X obj 176 -32 r debug/all/messages;
#X connect 0 0 5 0;
#X connect 0 0 9 0;
#X connect 1 0 6 0;
#X connect 2 0 1 0;
#X connect 3 0 2 0;
#X connect 3 0 4 0;
#X connect 4 0 6 0;
#X connect 5 0 27 0;
#X connect 7 0 8 0;
#X connect 8 0 6 1;
#X connect 9 0 24 0;
#X connect 11 0 10 0;
#X connect 11 0 26 0;
#X connect 12 0 20 0;
#X connect 12 1 21 0;
#X connect 12 2 22 0;
#X connect 13 0 12 0;
#X connect 14 0 19 0;
#X connect 15 0 16 1;
#X connect 15 0 25 1;
#X connect 15 1 16 2;
#X connect 15 1 25 2;
#X connect 15 2 16 3;
#X connect 15 2 25 3;
#X connect 16 0 6 0;
#X connect 17 0 30 0;
#X connect 19 0 12 0;
#X connect 20 0 11 0;
#X connect 20 0 0 1;
#X connect 21 0 11 1;
#X connect 21 0 0 2;
#X connect 22 0 11 2;
#X connect 22 0 0 3;
#X connect 24 0 25 0;
#X connect 25 0 18 0;
#X connect 27 0 16 0;
#X connect 28 0 22 1;
#X connect 29 3 18 1;
#X connect 29 4 15 0;
#X connect 29 5 16 4;
#X connect 29 5 23 0;
#X connect 29 5 25 4;
#X connect 29 6 12 0;
#X connect 29 7 6 0;
#X connect 29 8 6 1;
#X connect 29 9 14 0;
#X connect 29 10 17 0;
#X connect 30 0 0 0;
#X connect 31 0 29 0;
#X connect 32 0 29 0;
