#N canvas 682 449 669 267 10;
#X obj 64 9 inlet;
#X obj 257 4 inlet;
#X obj 158 208 curve 2;
#X obj 25 151 loadbang;
#X obj 286 113 route color;
#X obj 281 139 unpack f f f;
#X obj 158 119 separator;
#X obj 156 94 spigot 1;
#X obj 159 137 alpha;
#X msg 25 180 draw line \, width 4;
#X obj 309 38 route lineParameters alpha lineOnOff gemlist;
#X obj 309 9 r debug/all/messages;
#X obj 158 161 colorRGB 0 1 0;
#X obj 18 38 inlet;
#X obj 161 237 outlet;
#X connect 0 0 2 1;
#X connect 1 0 2 2;
#X connect 2 0 14 0;
#X connect 3 0 9 0;
#X connect 4 0 5 0;
#X connect 5 0 12 1;
#X connect 5 1 12 2;
#X connect 5 2 12 3;
#X connect 6 0 8 0;
#X connect 7 0 6 0;
#X connect 8 0 12 0;
#X connect 9 0 2 0;
#X connect 10 0 2 0;
#X connect 10 0 4 0;
#X connect 10 1 12 4;
#X connect 10 2 7 1;
#X connect 10 3 7 0;
#X connect 11 0 10 0;
#X connect 12 0 2 0;
#X connect 13 0 10 0;
