#N canvas 692 364 524 318 10;
#X obj 149 26 inlet;
#X obj 178 200 qlist;
#X obj 395 41 time ---;
#X msg 270 163 read \$1.txt;
#X obj 160 151 pp add;
#X obj 321 66 pack f f f f f;
#X obj 292 22 date -----;
#X obj 347 120 ppp;
#X obj 320 93 makesymbol %s/%s/%s-%s:%s-;
#X obj 163 126 pp;
#X obj 38 109 symbol \$1;
#X obj 271 132 symbol \$1;
#X obj 164 75 t b a b b b b b;
#X obj 57 70 bng 15 250 50 0 empty empty empty 17 7 0 10 -262144 -1
-1;
#X obj 21 226 ppp;
#X msg 30 182 write \$1.txt;
#X obj 191 50 list;
#X connect 0 0 16 0;
#X connect 2 0 5 3;
#X connect 2 1 5 4;
#X connect 3 0 1 0;
#X connect 4 0 1 0;
#X connect 5 0 8 0;
#X connect 6 0 5 0;
#X connect 6 1 5 1;
#X connect 6 2 5 2;
#X connect 8 0 7 0;
#X connect 8 0 9 1;
#X connect 9 0 4 0;
#X connect 10 0 15 0;
#X connect 11 0 3 0;
#X connect 12 0 10 0;
#X connect 12 1 9 0;
#X connect 12 2 11 0;
#X connect 12 5 6 0;
#X connect 12 6 2 0;
#X connect 13 0 10 0;
#X connect 15 0 1 0;
#X connect 15 0 14 0;
#X connect 16 0 12 0;
