#N canvas 1091 273 614 455 10;
#X obj 183 271 translateXYZ;
#X obj 254 60 route \$1;
#X msg 351 309 text \$1;
#X obj 349 285 symbol \$1;
#X obj 351 255 loadbang;
#X msg 419 286 font vera.ttf;
#X obj 211 310 separator;
#X obj 351 404 text2d;
#X obj 399 345 loadbang;
#X msg 399 371 0.4;
#X obj 114 306 separator;
#X obj 19 421 outlet;
#X obj 16 274 pack float float float;
#X obj 234 86 unpack float float float;
#X obj 255 35 inlet;
#X obj 398 36 bang;
#X obj 268 294 unpack f f f;
#X obj 211 379 colorRGB 0 0 1;
#X obj 19 205 separator;
#X obj 179 -32 r skeleton/\$1/all/messages;
#X obj 18 -34 r skeleton/\$1/\$2/messages;
#X obj 20 177 r main/\$1/gemlist;
#X obj 112 382 sphere 0.05;
#X msg 397 57 0 0 0;
#X obj 71 415 s skeleton/\$1/pos/\$2;
#X obj 228 134 * 1;
#X obj 270 138 * 1;
#X obj 314 136 * 1;
#X floatatom 166 76 5 0 0 0 - - -;
#X obj 108 335 alpha;
#X obj 108 358 colorRGB 0 0 1;
#X obj 207 413 s \$1/\$2/pos;
#X obj 211 357 translateXYZ 0 0 0;
#X obj 385 119 r zdiv;
#X obj 343 -33 r skeleton/all/messages;
#X obj 20 -4 route translate rotate scale sizeSphere color alpha data
text2d textSize reset gemlist;
#X obj 449 9 r ske/\$1/\$2;
#X obj 444 59 s ske/\$1/\$2;
#X obj 28 237 alpha 1;
#X floatatom 149 213 5 0 0 0 - - -;
#X connect 0 0 6 0;
#X connect 0 0 10 0;
#X connect 1 0 13 0;
#X connect 2 0 7 0;
#X connect 3 0 2 0;
#X connect 4 0 3 0;
#X connect 4 0 5 0;
#X connect 5 0 7 0;
#X connect 6 0 32 0;
#X connect 8 0 9 0;
#X connect 9 0 7 1;
#X connect 10 0 29 0;
#X connect 12 0 11 0;
#X connect 12 0 24 0;
#X connect 12 0 31 0;
#X connect 13 0 25 0;
#X connect 13 1 26 0;
#X connect 13 2 27 0;
#X connect 14 0 1 0;
#X connect 15 0 23 0;
#X connect 16 0 17 1;
#X connect 16 0 30 1;
#X connect 16 1 17 2;
#X connect 16 1 30 2;
#X connect 16 2 17 3;
#X connect 16 2 30 3;
#X connect 17 0 7 0;
#X connect 18 0 38 0;
#X connect 19 0 35 0;
#X connect 20 0 35 0;
#X connect 21 0 18 0;
#X connect 23 0 13 0;
#X connect 25 0 12 0;
#X connect 25 0 0 1;
#X connect 26 0 12 1;
#X connect 26 0 0 2;
#X connect 27 0 12 2;
#X connect 27 0 0 3;
#X connect 29 0 30 0;
#X connect 30 0 22 0;
#X connect 32 0 17 0;
#X connect 33 0 27 1;
#X connect 34 0 35 0;
#X connect 35 3 22 1;
#X connect 35 4 16 0;
#X connect 35 5 17 4;
#X connect 35 5 28 0;
#X connect 35 5 30 4;
#X connect 35 6 13 0;
#X connect 35 6 37 0;
#X connect 35 7 7 0;
#X connect 35 8 7 1;
#X connect 35 9 15 0;
#X connect 35 10 18 0;
#X connect 38 0 0 0;
#X connect 39 0 22 1;
