#N canvas 0 22 450 300 10;
#X declare -lib mrpeach;
#X declare -lib mrpeach;
#X declare -lib mrpeach;
#X declare -lib mrpeach;
#X declare -lib mrpeach;
#X declare -lib mrpeach;
#X declare -lib mrpeach;
#X declare -lib mrpeach;
#X declare -lib mrpeach;
#X declare -lib mrpeach;
#X declare -lib mrpeach;
#X declare -lib mrpeach;
#X declare -lib mrpeach;
#X declare -lib mrpeach;
#X declare -lib mrpeach;
#X obj 40 94 pipelist;
#X obj 41 71 unpackOSC;
#X obj 41 46 udpreceive 12347;
#X obj 40 134 topos.synapse2skeleton body 3 1;
#X obj 185 76 tgl 15 0 empty empty empty 17 7 0 10 -262144 -1 -1 0
1;
#X msg 182 96 onOff \$1;
#X msg 148 95 body;
#X msg 101 96 world;
#X obj 247 114 cnv 10 16 16 empty empty empty 20 12 0 14 -258113 -66577
0;
#X obj 40 160 s kinect;
#X obj 221 31 init 0;
#X obj 232 56 pipe 1000;
#X obj 51 199 outlet;
#X connect 0 0 3 0;
#X connect 1 0 0 0;
#X connect 1 1 0 1;
#X connect 2 0 1 0;
#X connect 3 0 9 0;
#X connect 3 0 12 0;
#X connect 4 0 5 0;
#X connect 5 0 3 0;
#X connect 6 0 3 0;
#X connect 7 0 3 0;
#X connect 10 0 11 0;
#X connect 11 0 4 0;
