#N canvas 704 106 1023 650 10;
#X declare -lib mrpeach;
#X obj 423 93 symbol \$1;
#X obj 39 102 inlet;
#X obj 121 193 bng 15 250 50 0 empty empty empty 17 7 0 10 -262144
-1 -1;
#X obj 411 48 bng 15 250 50 0 empty empty empty 17 7 0 10 -262144 -1
-1;
#X obj 627 139 s2l;
#X obj 257 217 makesymbol /%s;
#X obj 629 165 makesymbol /%s_trackjointpos;
#X obj 141 336 makesymbol %s/body;
#X obj 27 34 import mrpeach;
#X obj 92 252 prepend set;
#X obj 239 248 makesymbol %s_pos_world;
#X obj 236 276 prepend set;
#X obj 232 305 routeOSC /*;
#X obj 321 333 makesymbol %s/world;
#X obj 64 303 routeOSC /*;
#X obj 651 35 inlet;
#X msg 673 117 1;
#X msg 706 120 2;
#X msg 747 120 3;
#X obj 638 270 ppp;
#X obj 669 87 route body world screen;
#X obj 96 542 outlet;
#X obj 399 213 makesymbol /%s;
#X obj 379 277 prepend set;
#X obj 375 309 routeOSC /*;
#X obj 384 249 makesymbol %s_pos_screen;
#X obj 464 334 makesymbol %s/screen;
#X obj 625 214 pp send;
#X obj 645 63 t b a;
#X obj 616 238 any;
#X obj 534 31 inlet;
#X obj 628 329 outlet;
#X obj 50 362 list-math / 1000;
#X obj 230 376 list-math / 1000;
#X obj 343 375 list-math / 1000;
#X text 493 373 adaptation;
#X obj 63 442 prepent;
#X obj 230 438 prepent;
#X obj 326 443 prepent;
#X obj 456 560 list-nth;
#X msg 560 534 l_hip l_knee l_foot r_hip r_knee r_foot torso neck head
l_shoulder l_elbow l_hand r_shoulder r_elbow r_hand;
#X obj 459 454 list-find;
#X floatatom 458 481 5 0 0 0 - - -;
#X obj 485 520 t b f;
#X obj 540 437 loadbang;
#X msg 539 465 lefthip leftknee leftfoot righthip rightknee rightfoot
torso neck head leftshoulder leftelbow lefthand rightshoulder rightelbow
righthand;
#X obj 90 225 makesymbol /%s_pos_body;
#X obj 410 69 loadbang;
#X obj 714 51 ii 2;
#X obj 626 194 pack s 2;
#X connect 0 0 4 0;
#X connect 0 0 5 0;
#X connect 0 0 7 0;
#X connect 0 0 13 0;
#X connect 0 0 22 0;
#X connect 0 0 26 0;
#X connect 0 0 41 0;
#X connect 0 0 46 0;
#X connect 1 0 14 0;
#X connect 1 0 12 0;
#X connect 1 0 24 0;
#X connect 2 0 46 0;
#X connect 3 0 47 0;
#X connect 4 0 6 0;
#X connect 5 0 10 0;
#X connect 6 0 49 0;
#X connect 9 0 14 0;
#X connect 10 0 11 0;
#X connect 11 0 12 0;
#X connect 12 0 33 0;
#X connect 14 0 32 0;
#X connect 15 0 28 0;
#X connect 20 0 16 0;
#X connect 20 1 17 0;
#X connect 20 2 18 0;
#X connect 22 0 25 0;
#X connect 23 0 24 0;
#X connect 24 0 34 0;
#X connect 25 0 23 0;
#X connect 27 0 29 1;
#X connect 28 0 0 0;
#X connect 28 1 20 0;
#X connect 29 0 19 0;
#X connect 29 0 31 0;
#X connect 30 0 29 0;
#X connect 32 0 36 0;
#X connect 33 0 37 0;
#X connect 34 0 38 0;
#X connect 37 0 21 0;
#X connect 39 0 38 1;
#X connect 39 0 37 1;
#X connect 39 0 36 1;
#X connect 40 0 39 0;
#X connect 41 0 42 0;
#X connect 42 0 43 0;
#X connect 43 0 40 0;
#X connect 43 1 39 1;
#X connect 44 0 45 0;
#X connect 45 0 41 1;
#X connect 46 0 9 0;
#X connect 47 0 0 0;
#X connect 48 0 49 1;
#X connect 49 0 27 0;
#X coords 0 -1 1 1 130 20 1 100 100;
