#N canvas 692 364 630 326 10;
#X obj 160 23 inlet;
#X obj 176 273 qlist;
#X obj 395 41 time ---;
#X obj 163 178 pp add;
#X obj 321 66 pack f f f f f;
#X obj 292 22 date -----;
#X obj 320 93 makesymbol %s/%s/%s-%s:%s-;
#X obj 163 132 pp;
#X obj 38 109 symbol \$1;
#X obj 232 134 symbol \$1;
#X obj 164 75 t b a b b b b b;
#X obj 57 70 bng 15 250 50 0 empty empty empty 17 7 0 10 -262144 -1
-1;
#X obj 21 226 ppp;
#X msg 231 165 read \$1.TODO.txt;
#X msg 35 179 write \$1.TODO.txt;
#X obj 166 50 list;
#X obj 479 300 outlet;
#X obj 163 154 pp todo;
#X obj 475 31 inlet;
#X obj 480 200 r todo;
#X msg 482 278 add2 \$1;
#X obj 497 115 route read done;
#X msg 424 278 addsemi;
#X obj 477 228 t b b a b;
#X obj 489 143 t b b b;
#X msg 547 281 set;
#X connect 0 0 15 0;
#X connect 2 0 4 3;
#X connect 2 1 4 4;
#X connect 3 0 1 0;
#X connect 4 0 6 0;
#X connect 5 0 4 0;
#X connect 5 1 4 1;
#X connect 5 2 4 2;
#X connect 6 0 7 1;
#X connect 7 0 17 0;
#X connect 8 0 14 0;
#X connect 9 0 13 0;
#X connect 10 0 8 0;
#X connect 10 1 7 0;
#X connect 10 2 9 0;
#X connect 10 5 5 0;
#X connect 10 6 2 0;
#X connect 11 0 8 0;
#X connect 13 0 1 0;
#X connect 14 0 1 0;
#X connect 14 0 12 0;
#X connect 15 0 10 0;
#X connect 17 0 3 0;
#X connect 18 0 21 0;
#X connect 19 0 23 0;
#X connect 20 0 16 0;
#X connect 21 0 24 0;
#X connect 21 2 24 0;
#X connect 22 0 16 0;
#X connect 23 0 22 0;
#X connect 23 2 20 0;
#X connect 24 0 1 0;
#X connect 24 1 9 0;
#X connect 24 2 25 0;
#X connect 25 0 16 0;
