#N canvas 130 67 876 688 10;
#N canvas 696 321 450 300 insert 0;
#X obj 23 201 list-insert 2;
#X obj 244 77 == 0;
#X obj 198 43 inlet;
#X obj 164 245 outlet;
#X obj 80 99 random 10;
#X obj 127 49 list-len;
#X obj 29 43 inlet;
#X obj 74 43 inlet;
#X obj -41 47 inlet;
#X obj 145 123 spigot 0;
#X obj 204 107 spigot 1;
#X obj 6 174 lister;
#X obj 109 144 t b l;
#X obj 31 259 pddp/print;
#X obj -16 85 t b b b;
#N canvas 665 309 450 300 random 0;
#X obj 3 101 random 100;
#X obj 13 111 random 100;
#X obj 23 121 random 100;
#X obj 9 49 inlet;
#X obj 88 30 inlet;
#X obj 12 161 /;
#X obj 22 171 /;
#X obj 32 181 /;
#X obj 90 157 init 50;
#X obj 92 137 bng 15 250 50 0 empty empty empty 17 7 0 10 -262144 -1
-1;
#X obj 23 246 outlet;
#X obj 145 99 random 100;
#X obj 155 109 random 100;
#X obj 165 119 random 100;
#X obj 154 159 /;
#X obj 164 169 /;
#X obj 174 179 /;
#X obj 232 155 init 50;
#X obj 234 135 bng 15 250 50 0 empty empty empty 17 7 0 10 -262144
-1 -1;
#X obj 273 92 random 100;
#X obj 283 102 random 100;
#X obj 293 112 random 100;
#X obj 282 152 /;
#X obj 292 162 /;
#X obj 302 172 /;
#X obj 360 148 init 50;
#X obj 362 128 bng 15 250 50 0 empty empty empty 17 7 0 10 -262144
-1 -1;
#X obj 4 77 t b b b b b b b b b b;
#X obj 20 212 pack f f f f f f f f f;
#X connect 0 0 5 0;
#X connect 1 0 6 0;
#X connect 2 0 7 0;
#X connect 3 0 27 0;
#X connect 4 0 7 1;
#X connect 4 0 6 1;
#X connect 4 0 5 1;
#X connect 5 0 28 0;
#X connect 6 0 28 1;
#X connect 7 0 28 2;
#X connect 8 0 7 1;
#X connect 8 0 6 1;
#X connect 8 0 5 1;
#X connect 9 0 8 0;
#X connect 11 0 14 0;
#X connect 12 0 15 0;
#X connect 13 0 16 0;
#X connect 14 0 28 3;
#X connect 15 0 28 4;
#X connect 16 0 28 5;
#X connect 17 0 16 1;
#X connect 17 0 15 1;
#X connect 17 0 14 1;
#X connect 18 0 17 0;
#X connect 19 0 22 0;
#X connect 20 0 23 0;
#X connect 21 0 24 0;
#X connect 22 0 28 6;
#X connect 23 0 28 7;
#X connect 24 0 28 8;
#X connect 25 0 24 1;
#X connect 25 0 23 1;
#X connect 25 0 22 1;
#X connect 26 0 25 0;
#X connect 27 0 0 0;
#X connect 27 1 1 0;
#X connect 27 2 2 0;
#X connect 27 4 11 0;
#X connect 27 5 12 0;
#X connect 27 6 13 0;
#X connect 27 7 19 0;
#X connect 27 8 20 0;
#X connect 27 9 21 0;
#X connect 28 0 10 0;
#X restore -28 112 pd random 9;
#X obj 119 71 - 9;
#X connect 0 0 3 0;
#X connect 1 0 10 1;
#X connect 2 0 1 0;
#X connect 2 0 9 1;
#X connect 4 0 0 1;
#X connect 5 0 16 0;
#X connect 6 0 14 0;
#X connect 7 0 4 0;
#X connect 8 0 9 0;
#X connect 8 0 10 0;
#X connect 8 0 5 0;
#X connect 9 0 12 0;
#X connect 10 0 3 0;
#X connect 11 0 0 0;
#X connect 12 0 11 0;
#X connect 12 1 0 2;
#X connect 14 0 15 0;
#X connect 15 0 11 1;
#X connect 15 0 11 0;
#X connect 15 0 13 0;
#X connect 16 0 4 1;
#X restore -274 171 pd insert;
#X obj -247 78 pp;
#X obj -236 105 list-len;
#X floatatom -235 128 5 0 0 0 - - -;
#X obj 457 200 list-len;
#X floatatom 457 223 5 0 0 0 - - -;
#X obj -221 151 tgl 15 0 empty empty empty 17 7 0 10 -262144 -1 -1
0 1;
#X obj -260 153 bng 15 250 50 0 empty empty empty 17 7 0 10 -262144
-1 -1;
#X obj -242 154 bng 15 250 50 0 empty empty empty 17 7 0 10 -262144
-1 -1;
#X obj -260 -17 r topos/\$1/outputList;
#X obj -273 192 list append;
#X obj 52 40 loadbang;
#X obj 119 39 bng 15 250 50 0 empty empty empty 17 7 0 10 -262144 -1
-1;
#X obj -132 124 makesymbol topos/%s/3dlist;
#X obj 493 -41 inlet commands;
#X obj 124 434 pp draw;
#X msg 477 279 3;
#X obj 436 263 bng 15 250 50 0 empty empty empty 17 7 0 10 -262144
-1 -1;
#X obj 564 194 \$2;
#X obj 549 163 loadbang;
#X obj 521 243 t b b f;
#X obj 606 163 bng 15 250 50 0 empty empty empty 17 7 0 10 -262144
-1 -1;
#X obj 11 67 bng 15 250 50 0 empty empty empty 17 7 0 10 -262144 -1
-1;
#X obj -36 72 \$2;
#N canvas 969 256 470 378 remap 0;
#X obj 145 42 \$2;
#X obj 130 -16 loadbang;
#X obj 81 122 float;
#X obj 129 122 + 1;
#X obj 81 83 repeat;
#X obj 192 31 bng 15 250 50 0 empty empty empty 17 7 0 10 -262144 -1
-1;
#X msg 157 98 1;
#X obj 26 22 inlet;
#X obj 145 205 +;
#X obj 128 157 t f f f;
#X obj 84 201 +;
#X obj 97 173 * 2;
#X obj 52 104 bng 15 250 50 0 empty empty empty 17 7 0 10 -262144 -1
-1;
#X msg 364 240 set;
#X msg 107 234 adddollar \$1;
#X obj 221 180 + 1;
#X obj 205 207 f;
#X obj 221 138 * 3;
#X obj 196 64 t b b b b b b b;
#X msg 296 238 addsemi;
#X obj 103 313 outlet;
#X obj 112 8 t b b;
#X obj 202 -15 inlet;
#X obj 75 5 inlet;
#X connect 0 0 4 1;
#X connect 0 0 8 1;
#X connect 0 0 11 0;
#X connect 0 0 17 0;
#X connect 1 0 21 0;
#X connect 2 0 3 0;
#X connect 2 0 9 0;
#X connect 3 0 2 1;
#X connect 4 0 2 0;
#X connect 5 0 18 0;
#X connect 6 0 2 1;
#X connect 7 0 20 0;
#X connect 8 0 14 0;
#X connect 9 0 10 0;
#X connect 9 1 8 0;
#X connect 9 2 14 0;
#X connect 10 0 14 0;
#X connect 11 0 10 1;
#X connect 12 0 2 0;
#X connect 13 0 20 0;
#X connect 14 0 20 0;
#X connect 15 0 16 1;
#X connect 16 0 14 0;
#X connect 17 0 15 0;
#X connect 18 0 19 0;
#X connect 18 1 4 0;
#X connect 18 2 16 0;
#X connect 18 4 6 0;
#X connect 18 5 19 0;
#X connect 18 6 13 0;
#X connect 19 0 20 0;
#X connect 21 0 5 0;
#X connect 21 1 0 0;
#X connect 22 0 21 0;
#X connect 23 0 0 0;
#X restore -192 205 pd remap;
#X msg -113 245 \; \$31 \$1 \$11 \$21 \$2 \$12 \$22 \$3 \$13 \$23 \$4
\$14 \$24 \$5 \$15 \$25 \$6 \$16 \$26 \$7 \$17 \$27 \$8 \$18 \$28 \$9
\$19 \$29 \$10 \$20 \$30 \;;
#X obj -119 182 bng 15 250 50 0 empty empty empty 17 7 0 10 -262144
-1 -1;
#X obj -31 -39 inlet points;
#X obj -127 153 t b f;
#X obj 450 30 hsl 128 15 0 1 0 0 empty empty empty -2 -8 0 10 -262144
-1 -1 0 1;
#X obj 258 -45 inlet metro;
#N canvas 27 32 611 666 makedata 0;
#X obj -54 67 repeat;
#X floatatom 130 213 5 0 0 0 - - -;
#X floatatom 135 266 5 0 0 0 - - -;
#X obj 26 125 bng 15 250 50 0 empty empty empty 17 7 0 10 -262144 -1
-1;
#X obj 187 235 mod;
#X floatatom 192 262 5 0 0 0 - - -;
#X msg 164 155 0;
#X text 172 63 increment;
#X obj 127 183 float;
#X obj 175 183 + 1;
#X text 197 147 reset;
#X obj 131 241 div;
#X obj 123 300 f;
#X obj 161 304 f;
#X msg 143 338 add2 \$1;
#X obj 247 415 any;
#X obj 105 280 bng 15 250 50 0 empty empty empty 17 7 0 10 -262144
-1 -1;
#X msg 348 334 addsemi;
#X msg 409 334 set;
#X obj 258 168 + 1;
#X msg 261 335 adddollar \$1;
#X obj 265 304 f;
#X obj 242 281 bng 15 250 50 0 empty empty empty 17 7 0 10 -262144
-1 -1;
#X msg -64 396 adddollar \$1;
#X obj -69 328 float;
#X obj -7 328 + 1;
#X obj 18 273 sel;
#X obj 380 40 bang;
#X floatatom -57 365 5 0 0 0 - - -;
#X msg -47 291 1;
#X obj 12 238 f;
#X obj -56 100 t b b b b b b b b b b;
#X obj 378 17 bng 15 250 50 0 empty empty empty 17 7 0 10 -262144 -1
-1;
#X obj 233 445 outlet;
#X obj 34 304 f;
#X floatatom 315 201 5 0 0 0 - - -;
#X obj 308 145 - 2;
#X obj -82 279 bng 15 250 50 0 empty empty empty 17 7 0 10 -262144
-1 -1;
#X obj -80 79 bng 15 250 50 0 empty empty empty 17 7 0 10 -262144 -1
-1;
#X obj -28 249 bng 15 250 50 0 empty empty empty 17 7 0 10 -262144
-1 -1;
#X obj -45 269 once;
#X obj -63 19 t b b b;
#X obj 179 8 inlet size of the points;
#X obj 93 -2 inlet sides;
#X obj -79 -2 inlet make it;
#X obj 26 12 bng 15 250 50 0 empty empty empty 17 7 0 10 -262144 -1
-1;
#X obj 10 209 sel 0;
#X obj 22 177 * 3;
#X obj 160 278 bng 15 250 50 0 empty empty empty 17 7 0 10 -262144
-1 -1;
#X obj 306 178 f 1;
#X connect 0 0 31 0;
#X connect 1 0 4 0;
#X connect 1 0 11 0;
#X connect 2 0 12 1;
#X connect 2 0 46 0;
#X connect 3 0 8 0;
#X connect 4 0 5 0;
#X connect 5 0 13 1;
#X connect 6 0 8 1;
#X connect 8 0 9 0;
#X connect 8 0 1 0;
#X connect 9 0 8 1;
#X connect 11 0 2 0;
#X connect 13 0 14 0;
#X connect 14 0 15 0;
#X connect 15 0 33 0;
#X connect 16 0 12 0;
#X connect 17 0 15 0;
#X connect 18 0 15 0;
#X connect 19 0 21 1;
#X connect 20 0 15 0;
#X connect 21 0 20 0;
#X connect 22 0 21 0;
#X connect 23 0 15 0;
#X connect 24 0 25 0;
#X connect 24 0 26 0;
#X connect 24 0 23 0;
#X connect 24 0 28 0;
#X connect 25 0 24 1;
#X connect 26 0 34 0;
#X connect 27 0 18 0;
#X connect 27 0 6 0;
#X connect 27 0 49 0;
#X connect 29 0 24 1;
#X connect 30 0 26 1;
#X connect 30 0 19 0;
#X connect 31 0 24 0;
#X connect 31 1 24 0;
#X connect 31 2 24 0;
#X connect 31 3 13 0;
#X connect 31 4 16 0;
#X connect 31 5 3 0;
#X connect 31 8 22 0;
#X connect 31 9 17 0;
#X connect 32 0 27 0;
#X connect 34 0 24 1;
#X connect 37 0 24 0;
#X connect 38 0 31 0;
#X connect 40 0 29 0;
#X connect 41 0 17 0;
#X connect 41 1 0 0;
#X connect 41 2 27 0;
#X connect 42 0 4 1;
#X connect 42 0 11 1;
#X connect 42 0 0 1;
#X connect 42 0 36 0;
#X connect 42 0 47 0;
#X connect 44 0 41 0;
#X connect 45 0 41 0;
#X connect 46 0 30 0;
#X connect 46 0 39 0;
#X connect 46 0 40 0;
#X connect 46 1 40 1;
#X connect 47 0 30 1;
#X connect 47 0 30 0;
#X connect 48 0 13 0;
#X connect 49 0 34 1;
#X connect 49 0 35 0;
#X connect 49 0 24 1;
#X restore 450 304 pd makedata;
#X msg 405 386 \; \$31 0 \$1 \$2 \$3 \; \$31 1 \$4 \$5 \$6 \; \$31
2 \$7 \$8 \$9 \; \$31 3 \$10 \$11 \$12 \; \$31 4 \$13 \$14 \$15 \;
\$31 5 \$16 \$17 \$18 \; \$31 6 \$19 \$20 \$21 \; \$31 7 \$22 \$23
\$24 \; \$31 8 \$25 \$26 \$27 \; \$31 9 \$28 \$29 \$30 \;;
#X obj -281 315 inlet;
#N canvas 626 160 505 453 curve 0;
#X msg -164 21 draw line;
#X msg -164 1 draw fill;
#X msg -164 41 draw point;
#X msg -147 146 width 1;
#X msg -147 167 width 4;
#X msg -164 62 draw line1;
#X msg -164 83 draw line2;
#X msg -164 104 draw line3;
#X msg -164 125 draw line4;
#X msg -26 15 draw control_line;
#X msg -26 36 draw control_line1;
#X msg -25 58 draw control_line2;
#X msg -8 78 draw control_fill;
#X msg -26 99 draw control_point;
#X text -23 -15 of the curve;
#X obj -193 190 outlet;
#X obj -59 189 any;
#X obj -100 -35 inlet;
#X obj -81 -12 select 0 1 2 3;
#X msg 16 167 draw line;
#X msg 16 122 draw fill;
#X msg 15 144 draw point;
#X msg 16 187 draw linestrip;
#X msg 16 207 draw tri;
#X msg 16 229 draw tristrip;
#X msg 15 252 draw trifan;
#X msg 15 273 draw quad;
#X msg 15 295 draw quadstrip;
#X obj -197 332 any;
#X connect 0 0 15 0;
#X connect 1 0 15 0;
#X connect 3 0 15 0;
#X connect 4 0 15 0;
#X connect 5 0 15 0;
#X connect 6 0 15 0;
#X connect 7 0 15 0;
#X connect 8 0 15 0;
#X connect 9 0 16 0;
#X connect 10 0 16 0;
#X connect 11 0 16 0;
#X connect 12 0 16 0;
#X connect 13 0 16 0;
#X connect 16 0 15 0;
#X connect 17 0 18 0;
#X connect 18 0 9 0;
#X connect 18 1 12 0;
#X connect 19 0 28 0;
#X connect 20 0 28 0;
#X connect 21 0 28 0;
#X connect 22 0 28 0;
#X connect 23 0 28 0;
#X connect 24 0 28 0;
#X connect 25 0 28 0;
#X connect 26 0 28 0;
#X connect 27 0 28 0;
#X connect 28 0 15 0;
#X restore -105 457 pd curve appearance;
#X floatatom -167 349 5 0 0 0 - - -;
#X obj -256 423 scaleXYZ;
#X obj -123 482 r topos/\$1/curveList;
#X obj -280 338 separator;
#X obj -230 313 unpack f f f;
#X obj -265 393 colorRGB 1 0 0 1;
#X obj -91 349 unpack f f f;
#X msg -55 375 res 3 \$1;
#X obj -249 544 outlet;
#X obj 126 -25 r topos/\$1/3dlist;
#X obj 307 172 makesymbol topos/%s/curveList;
#X obj 247 194 list append;
#X obj 304 213 r topos/\$1/mean;
#X obj 361 258 loadbang;
#X msg 360 291 0;
#X obj 331 237 r topos/\$1/flmean;
#X msg 337 117 0.1;
#X msg 366 116 0;
#N canvas 858 438 450 300 closing 0;
#X obj 158 46 list-len;
#X floatatom 159 69 5 0 0 0 - - -;
#X obj 129 136 list-replace 2;
#X floatatom 185 96 5 0 0 0 - - -;
#X obj 158 91 - 4;
#X obj 220 17 inlet;
#X obj 106 14 inlet;
#X obj 86 249 outlet;
#X obj 74 207 spigot;
#X obj 315 17 inlet;
#X obj 226 202 spigot;
#X obj 262 16 inlet;
#X obj 126 187 == 0;
#X obj 272 178 == 1;
#X obj 256 44 == 1;
#X obj 224 67 spigot;
#X obj 276 69 spigot;
#X obj 316 46 == 2;
#X obj 293 200 spigot;
#X obj 341 176 == 2;
#X text 46 -11 0: last point/1: mean/2 mean btw first/last;
#X connect 0 0 1 0;
#X connect 1 0 4 0;
#X connect 2 0 10 0;
#X connect 2 0 18 0;
#X connect 4 0 2 1;
#X connect 4 0 3 0;
#X connect 5 0 15 0;
#X connect 6 0 8 0;
#X connect 6 0 0 0;
#X connect 6 0 2 2;
#X connect 8 0 7 0;
#X connect 9 0 12 0;
#X connect 9 0 13 0;
#X connect 9 0 14 0;
#X connect 9 0 19 0;
#X connect 9 0 17 0;
#X connect 10 0 7 0;
#X connect 11 0 16 0;
#X connect 12 0 8 1;
#X connect 13 0 10 1;
#X connect 14 0 15 1;
#X connect 15 0 2 0;
#X connect 16 0 2 0;
#X connect 17 0 16 1;
#X connect 18 0 7 0;
#X connect 19 0 18 1;
#X restore 257 308 pd closing;
#N canvas 238 446 637 334 interfere 0;
#X obj 141 142 list-replace 2;
#X obj 106 14 inlet;
#X obj 86 249 outlet;
#X obj 210 203 spigot;
#X obj 126 187 == 0;
#X obj 272 178 == 1;
#X obj 293 200 spigot;
#X obj 350 189 == 2;
#X text 46 -11 0: last point/1: mean/2 mean btw first/last;
#X obj 364 101 clip 0 10;
#X obj 310 7 inlet;
#X obj 309 37 unpack f f f f f;
#X obj 418 76 - 1;
#X obj 359 124 * 3;
#X obj 163 86 pack f f f;
#X obj 169 43 t b l;
#X obj 137 114 lister;
#X obj 370 8 pddp/print;
#X obj 74 207 spigot 1;
#X floatatom 361 167 5 0 0 0 - - -;
#X obj 359 147 - 3;
#X connect 0 0 3 0;
#X connect 0 0 6 0;
#X connect 1 0 15 0;
#X connect 1 0 18 0;
#X connect 3 0 2 0;
#X connect 4 0 18 1;
#X connect 5 0 3 1;
#X connect 6 0 2 0;
#X connect 7 0 6 1;
#X connect 9 0 13 0;
#X connect 10 0 11 0;
#X connect 10 0 17 0;
#X connect 11 0 4 0;
#X connect 11 0 5 0;
#X connect 11 1 9 0;
#X connect 11 2 14 0;
#X connect 11 3 14 1;
#X connect 11 4 14 2;
#X connect 12 0 9 2;
#X connect 13 0 20 0;
#X connect 14 0 16 1;
#X connect 15 0 16 0;
#X connect 15 1 0 2;
#X connect 16 0 0 0;
#X connect 18 0 2 0;
#X connect 20 0 0 1;
#X connect 20 0 19 0;
#X restore 263 340 pd interfere;
#N canvas 586 323 527 339 random 0;
#X obj 119 3 inlet randomLevel;
#X obj 45 3 inlet list;
#X obj 89 37 == 0;
#X obj 43 304 outlet;
#X obj 150 39 > 0;
#X obj 307 49 list-len;
#X floatatom 308 72 5 0 0 0 - - -;
#X obj 215 104 bang;
#X obj 215 130 list-random 200 10;
#X obj 213 168 list-math / 200;
#X obj 213 149 list-math - 100;
#X obj 214 193 list-math *;
#X obj 103 68 spigot 0;
#X obj 41 71 spigot 1;
#X obj 158 221 list-emath *;
#X obj 93 252 list-emath +;
#X obj 63 280 spigot 0;
#X obj 461 32 init 1;
#X obj 306 5 inlet randomActivity;
#X obj 249 3 inlet;
#X obj 111 160 t a a;
#X obj 115 113 lister;
#X obj 191 81 t b b;
#X floatatom 310 31 5 0 0 0 - - -;
#X floatatom 394 -3 5 0 0 0 - - -;
#X obj 216 54 metro 100;
#X obj 471 5 inlet;
#X obj 213 27 tgl 15 0 empty empty empty 17 7 0 10 -262144 -1 -1 1
1;
#X connect 0 0 2 0;
#X connect 0 0 4 0;
#X connect 0 0 11 1;
#X connect 1 0 5 0;
#X connect 1 0 12 0;
#X connect 1 0 13 0;
#X connect 2 0 13 1;
#X connect 4 0 12 1;
#X connect 4 0 16 1;
#X connect 5 0 6 0;
#X connect 6 0 8 2;
#X connect 7 0 8 0;
#X connect 8 0 10 0;
#X connect 9 0 11 0;
#X connect 10 0 9 0;
#X connect 11 0 14 1;
#X connect 12 0 21 1;
#X connect 13 0 3 0;
#X connect 14 0 15 1;
#X connect 15 0 16 0;
#X connect 16 0 3 0;
#X connect 17 0 27 0;
#X connect 18 0 23 0;
#X connect 18 0 25 1;
#X connect 19 0 25 1;
#X connect 20 0 15 0;
#X connect 20 1 14 0;
#X connect 21 0 20 0;
#X connect 22 0 21 0;
#X connect 22 1 7 0;
#X connect 25 0 22 0;
#X connect 26 0 17 0;
#X connect 27 0 25 0;
#X restore 239 153 pd random;
#X obj 270 382 list-len;
#X floatatom 268 405 5 0 0 0 - - -;
#X obj 517 203 bng 15 250 50 0 empty empty empty 17 7 0 10 -262144
-1 -1;
#X obj -268 365 alpha;
#X obj 57 91 symbol \$1;
#X obj 249 -23 route list color alpha draw scaleXYZ closing randomLevel
randomActivity setPoint metro;
#X obj -243 41 spigot 1;
#X obj 202 78 spigot 1;
#X obj 56 349 bang;
#X obj 78 319 bng 15 250 50 0 empty empty empty 17 7 0 10 -262144 -1
-1;
#X obj 64 440 bng 15 250 50 0 empty empty empty 17 7 0 10 -262144 -1
-1;
#X obj 44 414 zexy/lister;
#X msg 29 375 bang;
#X floatatom -187 337 5 0 0 0 - - -;
#X obj -252 517 private/mtl/gemsPolygon 10;
#X connect 0 0 10 0;
#X connect 1 0 0 0;
#X connect 2 0 3 0;
#X connect 4 0 5 0;
#X connect 6 0 0 3;
#X connect 7 0 0 1;
#X connect 8 0 0 2;
#X connect 9 0 62 0;
#X connect 10 0 24 0;
#X connect 11 0 23 0;
#X connect 11 0 60 0;
#X connect 12 0 60 0;
#X connect 13 0 10 1;
#X connect 14 0 61 0;
#X connect 15 0 70 0;
#X connect 16 0 31 1;
#X connect 17 0 31 0;
#X connect 18 0 20 0;
#X connect 19 0 18 0;
#X connect 20 0 17 0;
#X connect 20 1 16 0;
#X connect 20 2 31 2;
#X connect 21 0 18 0;
#X connect 22 0 23 0;
#X connect 23 0 42 0;
#X connect 24 0 25 0;
#X connect 26 0 24 2;
#X connect 27 0 23 0;
#X connect 27 0 18 0;
#X connect 27 0 28 0;
#X connect 27 0 64 0;
#X connect 27 0 70 2;
#X connect 28 0 26 0;
#X connect 28 1 24 1;
#X connect 29 0 55 1;
#X connect 30 0 55 2;
#X connect 31 0 32 0;
#X connect 33 0 38 0;
#X connect 34 0 70 0;
#X connect 35 0 40 4;
#X connect 36 0 70 0;
#X connect 37 0 70 1;
#X connect 38 0 59 0;
#X connect 39 0 40 1;
#X connect 39 0 69 0;
#X connect 39 1 40 2;
#X connect 39 2 40 3;
#X connect 40 0 36 0;
#X connect 41 0 36 1;
#X connect 41 1 36 2;
#X connect 41 2 36 3;
#X connect 42 0 70 0;
#X connect 44 0 63 0;
#X connect 45 0 46 1;
#X connect 46 0 53 0;
#X connect 46 0 4 0;
#X connect 47 0 53 1;
#X connect 48 0 49 0;
#X connect 49 0 53 3;
#X connect 50 0 53 2;
#X connect 51 0 55 1;
#X connect 52 0 55 1;
#X connect 53 0 54 0;
#X connect 54 0 56 0;
#X connect 54 0 32 0;
#X connect 55 0 46 0;
#X connect 56 0 57 0;
#X connect 58 0 18 0;
#X connect 59 0 40 0;
#X connect 60 0 13 0;
#X connect 60 0 45 0;
#X connect 61 0 1 0;
#X connect 61 1 39 0;
#X connect 61 2 35 0;
#X connect 61 3 15 0;
#X connect 61 4 41 0;
#X connect 61 5 53 3;
#X connect 61 6 29 0;
#X connect 61 7 55 3;
#X connect 61 8 54 1;
#X connect 61 9 55 4;
#X connect 61 9 63 1;
#X connect 61 9 62 1;
#X connect 61 10 70 0;
#X connect 62 0 1 0;
#X connect 63 0 55 0;
#X connect 64 0 68 0;
#X connect 65 0 64 0;
#X connect 67 0 66 0;
#X connect 68 0 67 0;
#X connect 70 0 43 0;
