#N canvas 967 117 681 730 10;
#X obj 40 35 inlet;
#X obj 81 201 f;
#X obj 80 171 change;
#X obj 67 559 mtl/3dDistance;
#X obj 42 376 list-enumerate;
#X obj 42 400 unpack f f;
#X obj 66 532 pack f f f;
#X obj 42 422 t b b b f f f;
#X obj -59 474 list-len;
#X floatatom -52 518 5 0 0 0 - - -;
#X obj -57 537 pack f \$0;
#X obj -52 496 change;
#X obj 88 140 bng 15 250 50 0 empty empty empty 17 7 0 10 -262144 -1
-1;
#X obj 281 138 t b a;
#X obj 78 90 r topos/\$1/ID;
#X obj 65 500 f;
#X obj 286 586 vstd;
#X obj 86 627 table \$0-dista;
#X obj 70 604 tabwrite \$0-dista;
#X obj 227 591 mean;
#X floatatom 288 623 5 0 0 0 - - -;
#X floatatom 233 628 5 0 0 0 - - -;
#X msg -78 567 \; \$2-dista resize \$1 \;;
#X obj 321 666 outlet;
#X obj 250 674 outlet;
#X obj 88 225 t f f f;
#X obj 126 500 tabread;
#X obj 99 476 tabread;
#X msg 270 261 set \$1-ylive;
#X msg 460 264 set \$1-zlive;
#X obj 273 496 tabdump \$0-dista;
#X obj 35 349 tabdump \$0-xlive;
#X msg -38 256 set \$1-xlive;
#X obj 362 592 outlet;
#X connect 0 0 13 0;
#X connect 1 0 25 0;
#X connect 2 0 1 0;
#X connect 3 0 18 0;
#X connect 4 0 5 0;
#X connect 5 0 7 0;
#X connect 5 1 15 1;
#X connect 6 0 3 0;
#X connect 7 1 30 0;
#X connect 7 2 15 0;
#X connect 7 3 27 0;
#X connect 7 4 26 0;
#X connect 7 5 18 1;
#X connect 8 0 11 0;
#X connect 9 0 10 0;
#X connect 10 0 22 0;
#X connect 11 0 9 0;
#X connect 12 0 2 0;
#X connect 13 0 31 0;
#X connect 13 0 12 0;
#X connect 13 1 3 1;
#X connect 14 0 2 0;
#X connect 15 0 6 0;
#X connect 16 0 20 0;
#X connect 19 0 21 0;
#X connect 20 0 23 0;
#X connect 21 0 24 0;
#X connect 25 0 32 0;
#X connect 25 1 28 0;
#X connect 25 2 29 0;
#X connect 26 0 6 2;
#X connect 27 0 6 1;
#X connect 28 0 27 0;
#X connect 29 0 26 0;
#X connect 30 0 16 0;
#X connect 30 0 19 0;
#X connect 30 0 33 0;
#X connect 31 0 4 0;
#X connect 31 0 8 0;
#X connect 32 0 31 0;
