#N canvas 15 22 450 300 10;
#X obj 213 25 inlet;
#X obj 211 162 outlet;
#X obj 186 47 topos.geo.displacement;
#X obj 209 96 delta;
#N canvas 331 129 450 300 delta 0;
#X obj 178 60 inlet;
#X obj 176 173 -;
#X obj 240 99 loadbang;
#X msg 240 122 0;
#X obj 176 90 t f b f;
#X obj 177 208 outlet;
#X obj 214 172 f;
#X floatatom 129 201 5 0 0 0 - - -;
#X connect 0 0 4 0;
#X connect 1 0 5 0;
#X connect 1 0 7 0;
#X connect 2 0 3 0;
#X connect 3 0 1 1;
#X connect 4 0 1 1;
#X connect 4 2 1 0;
#X restore 109 120 pd delta;
#X floatatom 111 149 5 0 0 0 - - -;
#X obj 350 91 * 10;
#X obj 371 122 delta;
#X floatatom 371 149 5 0 0 0 - - -;
#X floatatom 374 72 5 0 0 0 - - -;
#X connect 0 0 2 0;
#X connect 2 0 4 0;
#X connect 2 0 6 0;
#X connect 2 0 3 0;
#X connect 3 0 1 0;
#X connect 4 0 5 0;
#X connect 6 0 7 0;
#X connect 7 0 8 0;
#X connect 9 0 6 1;
